<svg xmlns="http://www.w3.org/2000/svg" xmlns:xlink="http://www.w3.org/1999/xlink" width="500" zoomAndPan="magnify" viewBox="0 0 375 120" height="150" preserveAspectRatio="xMidYMid meet" version="1.0"><defs><g/><clipPath id="deccd7deeb"><path d="M 163 15 L 222 15 L 222 57.558594 L 163 57.558594 Z M 163 15 " clip-rule="nonzero"/></clipPath><clipPath id="8d03175ae6"><rect x="0" width="226" y="0" height="58"/></clipPath><clipPath id="f2d8f0f991"><path d="M 45 0.359375 L 59 0.359375 L 59 41 L 45 41 Z M 45 0.359375 " clip-rule="nonzero"/></clipPath><clipPath id="82b968f976"><rect x="0" width="85" y="0" height="53"/></clipPath><clipPath id="9dc274b01d"><path d="M 2 7 L 30 7 L 30 52.921875 L 2 52.921875 Z M 2 7 " clip-rule="nonzero"/></clipPath><clipPath id="4d5170003e"><path d="M 29 0.359375 L 44 0.359375 L 44 41 L 29 41 Z M 29 0.359375 " clip-rule="nonzero"/></clipPath><clipPath id="b5f88c5041"><rect x="0" width="74" y="0" height="53"/></clipPath><clipPath id="a242a58fad"><path d="M 19 0.359375 L 28 0.359375 L 28 18.359375 L 19 18.359375 Z M 19 0.359375 " clip-rule="nonzero"/></clipPath><clipPath id="d75282695b"><rect x="0" width="58" y="0" height="19"/></clipPath></defs><g transform="matrix(1, 0, 0, 1, 84, 25)"><g clip-path="url(#8d03175ae6)"><g fill="#000000" fill-opacity="1"><g transform="translate(1.826231, 42.324303)"><g><path d="M 20.390625 -18.75 C 20.390625 -21.832031 19.085938 -23.375 16.484375 -23.375 C 15.703125 -23.375 14.914062 -23.113281 14.125 -22.59375 C 13.34375 -22.082031 12.691406 -21.398438 12.171875 -20.546875 L 12.171875 -5.65625 C 12.171875 -5.03125 12.238281 -4.410156 12.375 -3.796875 C 12.519531 -3.179688 12.703125 -2.625 12.921875 -2.125 C 13.140625 -1.632812 13.394531 -1.242188 13.6875 -0.953125 C 13.976562 -0.660156 14.28125 -0.515625 14.59375 -0.515625 L 14.59375 0 L 1.03125 0 L 1.03125 -0.515625 C 1.332031 -0.515625 1.628906 -0.660156 1.921875 -0.953125 C 2.210938 -1.242188 2.46875 -1.617188 2.6875 -2.078125 C 2.914062 -2.546875 3.097656 -3.078125 3.234375 -3.671875 C 3.367188 -4.273438 3.4375 -4.867188 3.4375 -5.453125 L 3.4375 -19.015625 C 3.4375 -19.660156 3.367188 -20.28125 3.234375 -20.875 C 3.097656 -21.476562 2.914062 -22.007812 2.6875 -22.46875 C 2.46875 -22.9375 2.210938 -23.316406 1.921875 -23.609375 C 1.628906 -23.898438 1.332031 -24.046875 1.03125 -24.046875 L 1.03125 -24.5625 C 1.988281 -24.625 2.945312 -24.710938 3.90625 -24.828125 C 4.863281 -24.953125 5.804688 -25.097656 6.734375 -25.265625 C 7.660156 -25.441406 8.53125 -25.640625 9.34375 -25.859375 C 10.164062 -26.085938 10.90625 -26.351562 11.5625 -26.65625 L 12.171875 -26.65625 L 12.171875 -22.859375 C 13.097656 -24.054688 14.332031 -25.070312 15.875 -25.90625 C 17.414062 -26.75 19.113281 -27.171875 20.96875 -27.171875 C 24.5625 -27.171875 26.988281 -25.628906 28.25 -22.546875 C 29.144531 -23.847656 30.390625 -24.941406 31.984375 -25.828125 C 33.578125 -26.722656 35.332031 -27.171875 37.25 -27.171875 C 39.914062 -27.171875 41.941406 -26.332031 43.328125 -24.65625 C 44.722656 -22.976562 45.421875 -20.546875 45.421875 -17.359375 L 45.421875 -4.265625 C 45.421875 -3.679688 45.515625 -3.226562 45.703125 -2.90625 C 45.890625 -2.582031 46.1875 -2.421875 46.59375 -2.421875 C 46.875 -2.421875 47.125 -2.488281 47.34375 -2.625 C 47.5625 -2.757812 47.773438 -3.050781 47.984375 -3.5 L 48.5 -3.5 C 48.5 -2.332031 47.972656 -1.367188 46.921875 -0.609375 C 45.878906 0.140625 44.570312 0.515625 43 0.515625 C 42.175781 0.515625 41.382812 0.382812 40.625 0.125 C 39.875 -0.125 39.195312 -0.523438 38.59375 -1.078125 C 38 -1.628906 37.53125 -2.304688 37.1875 -3.109375 C 36.851562 -3.910156 36.6875 -4.84375 36.6875 -5.90625 L 36.6875 -18.75 C 36.6875 -21.832031 35.382812 -23.375 32.78125 -23.375 C 32.0625 -23.375 31.34375 -23.160156 30.625 -22.734375 C 29.90625 -22.304688 29.285156 -21.734375 28.765625 -21.015625 C 28.867188 -20.460938 28.953125 -19.882812 29.015625 -19.28125 C 29.085938 -18.6875 29.125 -18.046875 29.125 -17.359375 L 29.125 -5.65625 C 29.125 -5.03125 29.191406 -4.410156 29.328125 -3.796875 C 29.472656 -3.179688 29.65625 -2.625 29.875 -2.125 C 30.09375 -1.632812 30.347656 -1.242188 30.640625 -0.953125 C 30.929688 -0.660156 31.234375 -0.515625 31.546875 -0.515625 L 31.546875 0 L 17.984375 0 L 17.984375 -0.515625 C 18.285156 -0.515625 18.582031 -0.660156 18.875 -0.953125 C 19.164062 -1.242188 19.421875 -1.617188 19.640625 -2.078125 C 19.867188 -2.546875 20.050781 -3.078125 20.1875 -3.671875 C 20.320312 -4.273438 20.390625 -4.867188 20.390625 -5.453125 Z M 20.390625 -18.75 "/></g></g></g><g fill="#000000" fill-opacity="1"><g transform="translate(50.059121, 42.324303)"><g><path d="M 20.390625 -18.75 C 20.390625 -21.832031 19.085938 -23.375 16.484375 -23.375 C 15.703125 -23.375 14.914062 -23.113281 14.125 -22.59375 C 13.34375 -22.082031 12.691406 -21.398438 12.171875 -20.546875 L 12.171875 -5.65625 C 12.171875 -5.03125 12.238281 -4.410156 12.375 -3.796875 C 12.519531 -3.179688 12.703125 -2.625 12.921875 -2.125 C 13.140625 -1.632812 13.394531 -1.242188 13.6875 -0.953125 C 13.976562 -0.660156 14.28125 -0.515625 14.59375 -0.515625 L 14.59375 0 L 1.03125 0 L 1.03125 -0.515625 C 1.332031 -0.515625 1.628906 -0.660156 1.921875 -0.953125 C 2.210938 -1.242188 2.46875 -1.617188 2.6875 -2.078125 C 2.914062 -2.546875 3.097656 -3.078125 3.234375 -3.671875 C 3.367188 -4.273438 3.4375 -4.867188 3.4375 -5.453125 L 3.4375 -19.015625 C 3.4375 -19.660156 3.367188 -20.28125 3.234375 -20.875 C 3.097656 -21.476562 2.914062 -22.007812 2.6875 -22.46875 C 2.46875 -22.9375 2.210938 -23.316406 1.921875 -23.609375 C 1.628906 -23.898438 1.332031 -24.046875 1.03125 -24.046875 L 1.03125 -24.5625 C 1.988281 -24.625 2.945312 -24.710938 3.90625 -24.828125 C 4.863281 -24.953125 5.804688 -25.097656 6.734375 -25.265625 C 7.660156 -25.441406 8.53125 -25.640625 9.34375 -25.859375 C 10.164062 -26.085938 10.90625 -26.351562 11.5625 -26.65625 L 12.171875 -26.65625 L 12.171875 -22.859375 C 13.097656 -24.054688 14.332031 -25.070312 15.875 -25.90625 C 17.414062 -26.75 19.113281 -27.171875 20.96875 -27.171875 C 24.5625 -27.171875 26.988281 -25.628906 28.25 -22.546875 C 29.144531 -23.847656 30.390625 -24.941406 31.984375 -25.828125 C 33.578125 -26.722656 35.332031 -27.171875 37.25 -27.171875 C 39.914062 -27.171875 41.941406 -26.332031 43.328125 -24.65625 C 44.722656 -22.976562 45.421875 -20.546875 45.421875 -17.359375 L 45.421875 -4.265625 C 45.421875 -3.679688 45.515625 -3.226562 45.703125 -2.90625 C 45.890625 -2.582031 46.1875 -2.421875 46.59375 -2.421875 C 46.875 -2.421875 47.125 -2.488281 47.34375 -2.625 C 47.5625 -2.757812 47.773438 -3.050781 47.984375 -3.5 L 48.5 -3.5 C 48.5 -2.332031 47.972656 -1.367188 46.921875 -0.609375 C 45.878906 0.140625 44.570312 0.515625 43 0.515625 C 42.175781 0.515625 41.382812 0.382812 40.625 0.125 C 39.875 -0.125 39.195312 -0.523438 38.59375 -1.078125 C 38 -1.628906 37.53125 -2.304688 37.1875 -3.109375 C 36.851562 -3.910156 36.6875 -4.84375 36.6875 -5.90625 L 36.6875 -18.75 C 36.6875 -21.832031 35.382812 -23.375 32.78125 -23.375 C 32.0625 -23.375 31.34375 -23.160156 30.625 -22.734375 C 29.90625 -22.304688 29.285156 -21.734375 28.765625 -21.015625 C 28.867188 -20.460938 28.953125 -19.882812 29.015625 -19.28125 C 29.085938 -18.6875 29.125 -18.046875 29.125 -17.359375 L 29.125 -5.65625 C 29.125 -5.03125 29.191406 -4.410156 29.328125 -3.796875 C 29.472656 -3.179688 29.65625 -2.625 29.875 -2.125 C 30.09375 -1.632812 30.347656 -1.242188 30.640625 -0.953125 C 30.929688 -0.660156 31.234375 -0.515625 31.546875 -0.515625 L 31.546875 0 L 17.984375 0 L 17.984375 -0.515625 C 18.285156 -0.515625 18.582031 -0.660156 18.875 -0.953125 C 19.164062 -1.242188 19.421875 -1.617188 19.640625 -2.078125 C 19.867188 -2.546875 20.050781 -3.078125 20.1875 -3.671875 C 20.320312 -4.273438 20.390625 -4.867188 20.390625 -5.453125 Z M 20.390625 -18.75 "/></g></g></g><g fill="#000000" fill-opacity="1"><g transform="translate(100.34675, 42.324303)"><g><path d="M 9.921875 -14.953125 C 10.085938 -11.660156 10.898438 -9.140625 12.359375 -7.390625 C 13.816406 -5.648438 15.707031 -4.78125 18.03125 -4.78125 C 18.507812 -4.78125 19.140625 -4.820312 19.921875 -4.90625 C 20.710938 -4.988281 21.519531 -5.21875 22.34375 -5.59375 C 23.164062 -5.976562 23.9375 -6.535156 24.65625 -7.265625 C 25.375 -8.003906 25.875 -9.039062 26.15625 -10.375 L 26.65625 -10.375 C 26.519531 -8.625 26.117188 -7.070312 25.453125 -5.71875 C 24.785156 -4.375 23.921875 -3.238281 22.859375 -2.3125 C 21.796875 -1.382812 20.5625 -0.679688 19.15625 -0.203125 C 17.757812 0.273438 16.238281 0.515625 14.59375 0.515625 C 12.601562 0.515625 10.773438 0.171875 9.109375 -0.515625 C 7.453125 -1.203125 6.023438 -2.160156 4.828125 -3.390625 C 3.628906 -4.617188 2.695312 -6.085938 2.03125 -7.796875 C 1.363281 -9.515625 1.03125 -11.398438 1.03125 -13.453125 C 1.03125 -15.515625 1.34375 -17.382812 1.96875 -19.0625 C 2.601562 -20.738281 3.492188 -22.175781 4.640625 -23.375 C 5.796875 -24.570312 7.164062 -25.503906 8.75 -26.171875 C 10.34375 -26.835938 12.101562 -27.171875 14.03125 -27.171875 C 15.769531 -27.171875 17.398438 -26.890625 18.921875 -26.328125 C 20.453125 -25.765625 21.78125 -24.976562 22.90625 -23.96875 C 24.039062 -22.957031 24.929688 -21.773438 25.578125 -20.421875 C 26.234375 -19.066406 26.5625 -17.601562 26.5625 -16.03125 L 26.5625 -14.953125 Z M 18.078125 -16.1875 C 17.984375 -19.195312 17.59375 -21.566406 16.90625 -23.296875 C 16.21875 -25.023438 15.328125 -25.890625 14.234375 -25.890625 C 13.578125 -25.890625 12.992188 -25.632812 12.484375 -25.125 C 11.972656 -24.613281 11.523438 -23.910156 11.140625 -23.015625 C 10.765625 -22.128906 10.472656 -21.09375 10.265625 -19.90625 C 10.066406 -18.726562 9.929688 -17.488281 9.859375 -16.1875 Z M 18.078125 -16.1875 "/></g></g></g><g fill="#000000" fill-opacity="1"><g transform="translate(128.290031, 42.324303)"><g><path d="M 20.859375 -17.671875 C 20.410156 -19.867188 19.6875 -21.632812 18.6875 -22.96875 C 17.695312 -24.300781 16.601562 -24.96875 15.40625 -24.96875 C 14.65625 -24.96875 13.960938 -24.691406 13.328125 -24.140625 C 12.691406 -23.597656 12.144531 -22.820312 11.6875 -21.8125 C 11.226562 -20.800781 10.878906 -19.578125 10.640625 -18.140625 C 10.398438 -16.703125 10.28125 -15.09375 10.28125 -13.3125 C 10.28125 -9.8125 10.851562 -7.066406 12 -5.078125 C 13.144531 -3.097656 14.640625 -2.109375 16.484375 -2.109375 C 17.410156 -2.109375 18.285156 -2.390625 19.109375 -2.953125 C 19.929688 -3.515625 20.515625 -4.207031 20.859375 -5.03125 Z M 29.546875 -5.65625 C 29.546875 -5.03125 29.613281 -4.410156 29.75 -3.796875 C 29.882812 -3.179688 30.0625 -2.625 30.28125 -2.125 C 30.507812 -1.632812 30.769531 -1.242188 31.0625 -0.953125 C 31.351562 -0.660156 31.648438 -0.515625 31.953125 -0.515625 L 31.953125 0 L 20.859375 0 L 20.859375 -2.46875 C 19.585938 -1.40625 18.195312 -0.640625 16.6875 -0.171875 C 15.1875 0.285156 13.664062 0.515625 12.125 0.515625 C 10.550781 0.515625 9.085938 0.21875 7.734375 -0.375 C 6.378906 -0.976562 5.203125 -1.851562 4.203125 -3 C 3.210938 -4.144531 2.4375 -5.546875 1.875 -7.203125 C 1.3125 -8.867188 1.03125 -10.75 1.03125 -12.84375 C 1.03125 -14.96875 1.320312 -16.898438 1.90625 -18.640625 C 2.488281 -20.390625 3.304688 -21.898438 4.359375 -23.171875 C 5.421875 -24.441406 6.695312 -25.425781 8.1875 -26.125 C 9.675781 -26.820312 11.347656 -27.171875 13.203125 -27.171875 C 14.953125 -27.171875 16.441406 -26.863281 17.671875 -26.25 C 18.898438 -25.632812 19.960938 -24.78125 20.859375 -23.6875 L 20.859375 -32.3125 C 20.859375 -32.96875 20.789062 -33.59375 20.65625 -34.1875 C 20.519531 -34.789062 20.335938 -35.320312 20.109375 -35.78125 C 19.890625 -36.238281 19.632812 -36.613281 19.34375 -36.90625 C 19.050781 -37.195312 18.75 -37.34375 18.4375 -37.34375 L 18.4375 -37.859375 C 20.363281 -37.992188 22.265625 -38.234375 24.140625 -38.578125 C 26.023438 -38.921875 27.617188 -39.382812 28.921875 -39.96875 L 29.546875 -39.96875 Z M 29.546875 -5.65625 "/></g></g></g><g clip-path="url(#deccd7deeb)"><g fill="#000000" fill-opacity="1"><g transform="translate(162.037742, 42.324303)"><g><path d="M 21.421875 -18.75 C 21.421875 -21.832031 19.945312 -23.375 17 -23.375 C 16.113281 -23.375 15.234375 -23.113281 14.359375 -22.59375 C 13.484375 -22.082031 12.753906 -21.382812 12.171875 -20.5 L 12.171875 -5.65625 C 12.171875 -5.03125 12.238281 -4.410156 12.375 -3.796875 C 12.519531 -3.179688 12.703125 -2.625 12.921875 -2.125 C 13.140625 -1.632812 13.394531 -1.242188 13.6875 -0.953125 C 13.976562 -0.660156 14.28125 -0.515625 14.59375 -0.515625 L 14.59375 0 L 1.03125 0 L 1.03125 -0.515625 C 1.332031 -0.515625 1.628906 -0.660156 1.921875 -0.953125 C 2.210938 -1.242188 2.46875 -1.617188 2.6875 -2.078125 C 2.914062 -2.546875 3.097656 -3.078125 3.234375 -3.671875 C 3.367188 -4.273438 3.4375 -4.867188 3.4375 -5.453125 L 3.4375 -19.015625 C 3.4375 -19.660156 3.367188 -20.28125 3.234375 -20.875 C 3.097656 -21.476562 2.914062 -22.007812 2.6875 -22.46875 C 2.46875 -22.9375 2.210938 -23.316406 1.921875 -23.609375 C 1.628906 -23.898438 1.332031 -24.046875 1.03125 -24.046875 L 1.03125 -24.5625 C 1.988281 -24.625 2.945312 -24.710938 3.90625 -24.828125 C 4.863281 -24.953125 5.804688 -25.097656 6.734375 -25.265625 C 7.660156 -25.441406 8.53125 -25.640625 9.34375 -25.859375 C 10.164062 -26.085938 10.90625 -26.351562 11.5625 -26.65625 L 12.171875 -26.65625 L 12.171875 -22.8125 C 13.171875 -24.007812 14.484375 -25.035156 16.109375 -25.890625 C 17.734375 -26.742188 19.519531 -27.171875 21.46875 -27.171875 C 24.28125 -27.171875 26.429688 -26.332031 27.921875 -24.65625 C 29.410156 -22.976562 30.15625 -20.546875 30.15625 -17.359375 L 30.15625 -4.265625 C 30.15625 -1.347656 30.410156 1.203125 30.921875 3.390625 C 31.441406 5.578125 32.160156 7.398438 33.078125 8.859375 C 34.003906 10.316406 35.101562 11.410156 36.375 12.140625 C 37.644531 12.878906 39.015625 13.25 40.484375 13.25 C 41.679688 13.25 42.734375 12.972656 43.640625 12.421875 C 44.546875 11.878906 45.382812 11.207031 46.15625 10.40625 C 46.925781 9.601562 47.671875 8.726562 48.390625 7.78125 C 49.109375 6.84375 49.878906 5.96875 50.703125 5.15625 C 51.523438 4.351562 52.425781 3.675781 53.40625 3.125 C 54.382812 2.582031 55.539062 2.3125 56.875 2.3125 C 57.863281 2.3125 58.613281 2.617188 59.125 3.234375 C 59.644531 3.847656 59.859375 4.625 59.765625 5.5625 C 59.679688 6.507812 59.289062 7.519531 58.59375 8.59375 C 57.894531 9.675781 56.832031 10.6875 55.40625 11.625 C 53.988281 12.570312 52.191406 13.351562 50.015625 13.96875 C 47.835938 14.59375 45.242188 14.90625 42.234375 14.90625 C 39.316406 14.90625 36.59375 14.445312 34.0625 13.53125 C 31.53125 12.625 29.328125 11.296875 27.453125 9.546875 C 25.585938 7.804688 24.113281 5.660156 23.03125 3.109375 C 21.957031 0.554688 21.421875 -2.363281 21.421875 -5.65625 Z M 21.421875 -18.75 "/></g></g></g></g></g></g><g transform="matrix(1, 0, 0, 1, 277, 27)"><g clip-path="url(#82b968f976)"><g fill="#000000" fill-opacity="1"><g transform="translate(1.117081, 40.324303)"><g><path d="M 24.96875 -4.265625 C 24.96875 -3.679688 25.0625 -3.226562 25.25 -2.90625 C 25.4375 -2.582031 25.738281 -2.421875 26.15625 -2.421875 C 26.425781 -2.421875 26.671875 -2.488281 26.890625 -2.625 C 27.117188 -2.757812 27.332031 -3.050781 27.53125 -3.5 L 28.046875 -3.5 C 28.046875 -2.332031 27.523438 -1.367188 26.484375 -0.609375 C 25.441406 0.140625 24.128906 0.515625 22.546875 0.515625 C 19.296875 0.515625 17.296875 -0.460938 16.546875 -2.421875 C 15.753906 -1.390625 14.765625 -0.640625 13.578125 -0.171875 C 12.398438 0.285156 11.09375 0.515625 9.65625 0.515625 C 8.488281 0.515625 7.382812 0.328125 6.34375 -0.046875 C 5.300781 -0.421875 4.382812 -0.976562 3.59375 -1.71875 C 2.8125 -2.457031 2.1875 -3.347656 1.71875 -4.390625 C 1.257812 -5.429688 1.03125 -6.625 1.03125 -7.96875 C 1.03125 -9.882812 1.40625 -11.492188 2.15625 -12.796875 C 2.90625 -14.097656 3.84375 -15.140625 4.96875 -15.921875 C 6.101562 -16.710938 7.332031 -17.28125 8.65625 -17.625 C 9.976562 -17.96875 11.203125 -18.140625 12.328125 -18.140625 C 13.046875 -18.140625 13.65625 -18.09375 14.15625 -18 C 14.65625 -17.914062 15.054688 -17.820312 15.359375 -17.71875 C 15.703125 -17.582031 15.992188 -17.445312 16.234375 -17.3125 L 16.234375 -21.015625 C 16.234375 -22.484375 15.984375 -23.660156 15.484375 -24.546875 C 14.992188 -25.441406 14.351562 -25.890625 13.5625 -25.890625 C 12.226562 -25.890625 11.5625 -24.535156 11.5625 -21.828125 C 11.5625 -20.703125 11.113281 -19.757812 10.21875 -19 C 9.332031 -18.25 8.117188 -17.875 6.578125 -17.875 C 5.378906 -17.875 4.453125 -18.179688 3.796875 -18.796875 C 3.148438 -19.421875 2.828125 -20.242188 2.828125 -21.265625 C 2.828125 -22.191406 3.09375 -23.019531 3.625 -23.75 C 4.15625 -24.488281 4.878906 -25.113281 5.796875 -25.625 C 6.722656 -26.144531 7.8125 -26.53125 9.0625 -26.78125 C 10.3125 -27.039062 11.65625 -27.171875 13.09375 -27.171875 C 15.050781 -27.171875 16.765625 -26.878906 18.234375 -26.296875 C 19.710938 -25.722656 20.957031 -24.894531 21.96875 -23.8125 C 22.976562 -22.726562 23.726562 -21.425781 24.21875 -19.90625 C 24.71875 -18.382812 24.96875 -16.679688 24.96875 -14.796875 Z M 16.234375 -13.96875 C 16.234375 -14.550781 16.070312 -15.097656 15.75 -15.609375 C 15.425781 -16.128906 14.882812 -16.390625 14.125 -16.390625 C 12.925781 -16.390625 11.945312 -15.644531 11.1875 -14.15625 C 10.4375 -12.664062 10.0625 -10.53125 10.0625 -7.75 C 10.0625 -6.039062 10.367188 -4.722656 10.984375 -3.796875 C 11.609375 -2.878906 12.347656 -2.421875 13.203125 -2.421875 C 14.398438 -2.421875 15.410156 -2.945312 16.234375 -4 Z M 16.234375 -13.96875 "/></g></g></g><g fill="#000000" fill-opacity="1"><g transform="translate(28.906222, 40.324303)"><g><path d="M 7.09375 -28.828125 C 5.820312 -28.828125 4.75 -29.234375 3.875 -30.046875 C 3 -30.867188 2.5625 -31.878906 2.5625 -33.078125 C 2.5625 -34.285156 3 -35.296875 3.875 -36.109375 C 4.75 -36.929688 5.820312 -37.34375 7.09375 -37.34375 C 8.351562 -37.34375 9.421875 -36.929688 10.296875 -36.109375 C 11.171875 -35.296875 11.609375 -34.285156 11.609375 -33.078125 C 11.609375 -31.878906 11.171875 -30.867188 10.296875 -30.046875 C 9.421875 -29.234375 8.351562 -28.828125 7.09375 -28.828125 Z M 1.03125 -0.515625 C 1.332031 -0.515625 1.628906 -0.660156 1.921875 -0.953125 C 2.210938 -1.242188 2.46875 -1.617188 2.6875 -2.078125 C 2.914062 -2.546875 3.097656 -3.078125 3.234375 -3.671875 C 3.367188 -4.273438 3.4375 -4.867188 3.4375 -5.453125 L 3.4375 -19.015625 C 3.4375 -19.660156 3.367188 -20.28125 3.234375 -20.875 C 3.097656 -21.476562 2.914062 -22.007812 2.6875 -22.46875 C 2.46875 -22.9375 2.210938 -23.316406 1.921875 -23.609375 C 1.628906 -23.898438 1.332031 -24.046875 1.03125 -24.046875 L 1.03125 -24.5625 C 1.988281 -24.625 2.945312 -24.710938 3.90625 -24.828125 C 4.863281 -24.953125 5.804688 -25.097656 6.734375 -25.265625 C 7.660156 -25.441406 8.53125 -25.640625 9.34375 -25.859375 C 10.164062 -26.085938 10.90625 -26.351562 11.5625 -26.65625 L 12.171875 -26.65625 L 12.171875 -5.65625 C 12.171875 -5.03125 12.238281 -4.410156 12.375 -3.796875 C 12.519531 -3.179688 12.703125 -2.625 12.921875 -2.125 C 13.140625 -1.632812 13.394531 -1.242188 13.6875 -0.953125 C 13.976562 -0.660156 14.28125 -0.515625 14.59375 -0.515625 L 14.59375 0 L 1.03125 0 Z M 1.03125 -0.515625 "/></g></g></g><g clip-path="url(#f2d8f0f991)"><g fill="#000000" fill-opacity="1"><g transform="translate(44.264776, 40.324303)"><g><path d="M 12.171875 -5.65625 C 12.171875 -5.03125 12.238281 -4.410156 12.375 -3.796875 C 12.519531 -3.179688 12.703125 -2.625 12.921875 -2.125 C 13.140625 -1.632812 13.394531 -1.242188 13.6875 -0.953125 C 13.976562 -0.660156 14.28125 -0.515625 14.59375 -0.515625 L 14.59375 0 L 1.03125 0 L 1.03125 -0.515625 C 1.332031 -0.515625 1.628906 -0.660156 1.921875 -0.953125 C 2.210938 -1.242188 2.46875 -1.617188 2.6875 -2.078125 C 2.914062 -2.546875 3.097656 -3.078125 3.234375 -3.671875 C 3.367188 -4.273438 3.4375 -4.867188 3.4375 -5.453125 L 3.4375 -31.75 C 3.4375 -32.394531 3.367188 -33.019531 3.234375 -33.625 C 3.097656 -34.226562 2.914062 -34.757812 2.6875 -35.21875 C 2.46875 -35.675781 2.210938 -36.050781 1.921875 -36.34375 C 1.628906 -36.632812 1.332031 -36.78125 1.03125 -36.78125 L 1.03125 -37.296875 C 1.988281 -37.367188 2.945312 -37.460938 3.90625 -37.578125 C 4.863281 -37.703125 5.804688 -37.847656 6.734375 -38.015625 C 7.660156 -38.191406 8.53125 -38.390625 9.34375 -38.609375 C 10.164062 -38.828125 10.90625 -39.09375 11.5625 -39.40625 L 12.171875 -39.40625 Z M 12.171875 -5.65625 "/></g></g></g></g><g fill="#000000" fill-opacity="1"><g transform="translate(58.082266, 40.324303)"><g><path d="M 12.53125 -25.890625 C 11.914062 -25.890625 11.367188 -25.648438 10.890625 -25.171875 C 10.410156 -24.691406 10.171875 -24.007812 10.171875 -23.125 C 10.171875 -21.988281 10.515625 -20.992188 11.203125 -20.140625 C 11.890625 -19.285156 12.742188 -18.503906 13.765625 -17.796875 C 14.796875 -17.097656 15.910156 -16.414062 17.109375 -15.75 C 18.304688 -15.082031 19.414062 -14.363281 20.4375 -13.59375 C 21.46875 -12.820312 22.328125 -11.945312 23.015625 -10.96875 C 23.703125 -9.988281 24.046875 -8.847656 24.046875 -7.546875 C 24.046875 -6.390625 23.757812 -5.3125 23.1875 -4.3125 C 22.625 -3.320312 21.828125 -2.46875 20.796875 -1.75 C 19.773438 -1.03125 18.570312 -0.472656 17.1875 -0.078125 C 15.800781 0.316406 14.285156 0.515625 12.640625 0.515625 C 10.992188 0.515625 9.46875 0.382812 8.0625 0.125 C 6.65625 -0.125 5.429688 -0.515625 4.390625 -1.046875 C 3.347656 -1.578125 2.523438 -2.253906 1.921875 -3.078125 C 1.328125 -3.898438 1.03125 -4.859375 1.03125 -5.953125 C 1.03125 -7.117188 1.414062 -8.128906 2.1875 -8.984375 C 2.957031 -9.847656 3.941406 -10.28125 5.140625 -10.28125 C 6.128906 -10.28125 6.894531 -10.046875 7.4375 -9.578125 C 7.988281 -9.117188 8.410156 -8.53125 8.703125 -7.8125 C 8.992188 -7.09375 9.21875 -6.328125 9.375 -5.515625 C 9.53125 -4.710938 9.71875 -3.953125 9.9375 -3.234375 C 10.164062 -2.515625 10.472656 -1.921875 10.859375 -1.453125 C 11.253906 -0.992188 11.847656 -0.765625 12.640625 -0.765625 C 13.460938 -0.765625 14.101562 -0.953125 14.5625 -1.328125 C 15.03125 -1.710938 15.265625 -2.296875 15.265625 -3.078125 C 15.265625 -4.171875 14.921875 -5.140625 14.234375 -5.984375 C 13.546875 -6.828125 12.675781 -7.625 11.625 -8.375 C 10.582031 -9.125 9.460938 -9.859375 8.265625 -10.578125 C 7.066406 -11.296875 5.945312 -12.082031 4.90625 -12.9375 C 3.863281 -13.800781 3 -14.753906 2.3125 -15.796875 C 1.625 -16.835938 1.28125 -18.046875 1.28125 -19.421875 C 1.28125 -20.484375 1.5625 -21.484375 2.125 -22.421875 C 2.695312 -23.367188 3.476562 -24.191406 4.46875 -24.890625 C 5.457031 -25.585938 6.628906 -26.140625 7.984375 -26.546875 C 9.335938 -26.960938 10.800781 -27.171875 12.375 -27.171875 C 16.007812 -27.171875 18.8125 -26.546875 20.78125 -25.296875 C 22.75 -24.046875 23.734375 -22.429688 23.734375 -20.453125 C 23.734375 -19.347656 23.375 -18.46875 22.65625 -17.8125 C 21.9375 -17.164062 20.976562 -16.84375 19.78125 -16.84375 C 18.820312 -16.84375 18.054688 -17.066406 17.484375 -17.515625 C 16.921875 -17.960938 16.457031 -18.519531 16.09375 -19.1875 C 15.738281 -19.851562 15.46875 -20.578125 15.28125 -21.359375 C 15.09375 -22.148438 14.882812 -22.878906 14.65625 -23.546875 C 14.4375 -24.222656 14.171875 -24.78125 13.859375 -25.21875 C 13.554688 -25.664062 13.113281 -25.890625 12.53125 -25.890625 Z M 12.53125 -25.890625 "/></g></g></g></g></g><g transform="matrix(1, 0, 0, 1, 15, 27)"><g clip-path="url(#b5f88c5041)"><g clip-path="url(#9dc274b01d)"><g fill="#000000" fill-opacity="1"><g transform="translate(1.946062, 40.324303)"><g><path d="M 4.515625 1.078125 C 3.628906 0.671875 2.925781 0.160156 2.40625 -0.453125 C 1.894531 -1.078125 1.640625 -1.851562 1.640625 -2.78125 C 1.640625 -4.039062 2.039062 -5.125 2.84375 -6.03125 C 3.65625 -6.9375 4.59375 -7.703125 5.65625 -8.328125 C 4.25 -9.285156 3.140625 -10.460938 2.328125 -11.859375 C 1.523438 -13.265625 1.125 -14.804688 1.125 -16.484375 C 1.125 -17.992188 1.429688 -19.398438 2.046875 -20.703125 C 2.671875 -22.003906 3.519531 -23.132812 4.59375 -24.09375 C 5.675781 -25.050781 6.953125 -25.800781 8.421875 -26.34375 C 9.898438 -26.894531 11.476562 -27.171875 13.15625 -27.171875 C 14.5625 -27.171875 15.929688 -26.984375 17.265625 -26.609375 C 17.535156 -27.296875 17.875 -28.015625 18.28125 -28.765625 C 18.695312 -29.523438 19.1875 -30.210938 19.75 -30.828125 C 20.3125 -31.441406 20.953125 -31.953125 21.671875 -32.359375 C 22.398438 -32.773438 23.191406 -32.984375 24.046875 -32.984375 C 25.273438 -32.984375 26.1875 -32.601562 26.78125 -31.84375 C 27.382812 -31.09375 27.710938 -30.265625 27.765625 -29.359375 C 27.816406 -28.453125 27.578125 -27.617188 27.046875 -26.859375 C 26.515625 -26.109375 25.738281 -25.734375 24.71875 -25.734375 C 24.0625 -25.734375 23.535156 -25.816406 23.140625 -25.984375 C 22.742188 -26.160156 22.390625 -26.34375 22.078125 -26.53125 C 21.773438 -26.71875 21.476562 -26.894531 21.1875 -27.0625 C 20.894531 -27.238281 20.507812 -27.328125 20.03125 -27.328125 C 19.757812 -27.328125 19.460938 -27.257812 19.140625 -27.125 C 18.816406 -26.988281 18.515625 -26.679688 18.234375 -26.203125 C 20.628906 -25.347656 22.585938 -24.078125 24.109375 -22.390625 C 25.640625 -20.710938 26.40625 -18.78125 26.40625 -16.59375 C 26.40625 -15.050781 26.070312 -13.613281 25.40625 -12.28125 C 24.738281 -10.945312 23.8125 -9.796875 22.625 -8.828125 C 21.445312 -7.867188 20.066406 -7.113281 18.484375 -6.5625 C 16.910156 -6.019531 15.21875 -5.75 13.40625 -5.75 C 12.144531 -5.75 10.910156 -5.9375 9.703125 -6.3125 C 8.503906 -6.695312 7.492188 -7.160156 6.671875 -7.703125 C 5.546875 -7.054688 4.984375 -6.40625 4.984375 -5.75 C 4.984375 -5.207031 5.519531 -4.875 6.59375 -4.75 C 7.675781 -4.632812 9.019531 -4.566406 10.625 -4.546875 C 12.238281 -4.523438 13.988281 -4.472656 15.875 -4.390625 C 17.757812 -4.304688 19.503906 -4.015625 21.109375 -3.515625 C 22.722656 -3.023438 24.066406 -2.25 25.140625 -1.1875 C 26.222656 -0.125 26.765625 1.382812 26.765625 3.34375 C 26.765625 4.601562 26.460938 5.78125 25.859375 6.875 C 25.265625 7.976562 24.394531 8.921875 23.25 9.703125 C 22.101562 10.492188 20.695312 11.117188 19.03125 11.578125 C 17.375 12.046875 15.5 12.28125 13.40625 12.28125 C 11.625 12.28125 9.976562 12.132812 8.46875 11.84375 C 6.96875 11.550781 5.664062 11.128906 4.5625 10.578125 C 3.46875 10.035156 2.601562 9.359375 1.96875 8.546875 C 1.34375 7.742188 1.03125 6.8125 1.03125 5.75 C 1.03125 3.425781 2.191406 1.867188 4.515625 1.078125 Z M 10.125 -16.4375 C 10.125 -14.65625 10.21875 -13.15625 10.40625 -11.9375 C 10.59375 -10.726562 10.847656 -9.753906 11.171875 -9.015625 C 11.492188 -8.273438 11.878906 -7.75 12.328125 -7.4375 C 12.773438 -7.132812 13.253906 -6.984375 13.765625 -6.984375 C 14.285156 -6.984375 14.765625 -7.132812 15.203125 -7.4375 C 15.648438 -7.75 16.035156 -8.273438 16.359375 -9.015625 C 16.679688 -9.753906 16.9375 -10.726562 17.125 -11.9375 C 17.320312 -13.15625 17.421875 -14.65625 17.421875 -16.4375 C 17.421875 -18.21875 17.320312 -19.707031 17.125 -20.90625 C 16.9375 -22.101562 16.679688 -23.070312 16.359375 -23.8125 C 16.035156 -24.550781 15.648438 -25.082031 15.203125 -25.40625 C 14.765625 -25.726562 14.285156 -25.890625 13.765625 -25.890625 C 13.253906 -25.890625 12.773438 -25.726562 12.328125 -25.40625 C 11.878906 -25.082031 11.492188 -24.550781 11.171875 -23.8125 C 10.847656 -23.070312 10.59375 -22.101562 10.40625 -20.90625 C 10.21875 -19.707031 10.125 -18.21875 10.125 -16.4375 Z M 8.78125 2.359375 C 8.375 2.878906 8.054688 3.515625 7.828125 4.265625 C 7.609375 5.015625 7.5 5.75 7.5 6.46875 C 7.5 7.8125 8.046875 8.925781 9.140625 9.8125 C 10.234375 10.695312 11.691406 11.140625 13.515625 11.140625 C 15.460938 11.140625 17.007812 10.710938 18.15625 9.859375 C 19.300781 9.003906 19.875 7.992188 19.875 6.828125 C 19.875 6.046875 19.53125 5.421875 18.84375 4.953125 C 18.164062 4.492188 17.296875 4.109375 16.234375 3.796875 C 15.171875 3.492188 13.976562 3.25 12.65625 3.0625 C 11.34375 2.875 10.050781 2.640625 8.78125 2.359375 Z M 8.78125 2.359375 "/></g></g></g></g><g clip-path="url(#4d5170003e)"><g fill="#000000" fill-opacity="1"><g transform="translate(28.96467, 40.324303)"><g><path d="M 12.171875 -5.65625 C 12.171875 -5.03125 12.238281 -4.410156 12.375 -3.796875 C 12.519531 -3.179688 12.703125 -2.625 12.921875 -2.125 C 13.140625 -1.632812 13.394531 -1.242188 13.6875 -0.953125 C 13.976562 -0.660156 14.28125 -0.515625 14.59375 -0.515625 L 14.59375 0 L 1.03125 0 L 1.03125 -0.515625 C 1.332031 -0.515625 1.628906 -0.660156 1.921875 -0.953125 C 2.210938 -1.242188 2.46875 -1.617188 2.6875 -2.078125 C 2.914062 -2.546875 3.097656 -3.078125 3.234375 -3.671875 C 3.367188 -4.273438 3.4375 -4.867188 3.4375 -5.453125 L 3.4375 -31.75 C 3.4375 -32.394531 3.367188 -33.019531 3.234375 -33.625 C 3.097656 -34.226562 2.914062 -34.757812 2.6875 -35.21875 C 2.46875 -35.675781 2.210938 -36.050781 1.921875 -36.34375 C 1.628906 -36.632812 1.332031 -36.78125 1.03125 -36.78125 L 1.03125 -37.296875 C 1.988281 -37.367188 2.945312 -37.460938 3.90625 -37.578125 C 4.863281 -37.703125 5.804688 -37.847656 6.734375 -38.015625 C 7.660156 -38.191406 8.53125 -38.390625 9.34375 -38.609375 C 10.164062 -38.828125 10.90625 -39.09375 11.5625 -39.40625 L 12.171875 -39.40625 Z M 12.171875 -5.65625 "/></g></g></g></g><g fill="#000000" fill-opacity="1"><g transform="translate(42.525322, 40.324303)"><g><path d="M 24.96875 -4.265625 C 24.96875 -3.679688 25.0625 -3.226562 25.25 -2.90625 C 25.4375 -2.582031 25.738281 -2.421875 26.15625 -2.421875 C 26.425781 -2.421875 26.671875 -2.488281 26.890625 -2.625 C 27.117188 -2.757812 27.332031 -3.050781 27.53125 -3.5 L 28.046875 -3.5 C 28.046875 -2.332031 27.523438 -1.367188 26.484375 -0.609375 C 25.441406 0.140625 24.128906 0.515625 22.546875 0.515625 C 19.296875 0.515625 17.296875 -0.460938 16.546875 -2.421875 C 15.753906 -1.390625 14.765625 -0.640625 13.578125 -0.171875 C 12.398438 0.285156 11.09375 0.515625 9.65625 0.515625 C 8.488281 0.515625 7.382812 0.328125 6.34375 -0.046875 C 5.300781 -0.421875 4.382812 -0.976562 3.59375 -1.71875 C 2.8125 -2.457031 2.1875 -3.347656 1.71875 -4.390625 C 1.257812 -5.429688 1.03125 -6.625 1.03125 -7.96875 C 1.03125 -9.882812 1.40625 -11.492188 2.15625 -12.796875 C 2.90625 -14.097656 3.84375 -15.140625 4.96875 -15.921875 C 6.101562 -16.710938 7.332031 -17.28125 8.65625 -17.625 C 9.976562 -17.96875 11.203125 -18.140625 12.328125 -18.140625 C 13.046875 -18.140625 13.65625 -18.09375 14.15625 -18 C 14.65625 -17.914062 15.054688 -17.820312 15.359375 -17.71875 C 15.703125 -17.582031 15.992188 -17.445312 16.234375 -17.3125 L 16.234375 -21.015625 C 16.234375 -22.484375 15.984375 -23.660156 15.484375 -24.546875 C 14.992188 -25.441406 14.351562 -25.890625 13.5625 -25.890625 C 12.226562 -25.890625 11.5625 -24.535156 11.5625 -21.828125 C 11.5625 -20.703125 11.113281 -19.757812 10.21875 -19 C 9.332031 -18.25 8.117188 -17.875 6.578125 -17.875 C 5.378906 -17.875 4.453125 -18.179688 3.796875 -18.796875 C 3.148438 -19.421875 2.828125 -20.242188 2.828125 -21.265625 C 2.828125 -22.191406 3.09375 -23.019531 3.625 -23.75 C 4.15625 -24.488281 4.878906 -25.113281 5.796875 -25.625 C 6.722656 -26.144531 7.8125 -26.53125 9.0625 -26.78125 C 10.3125 -27.039062 11.65625 -27.171875 13.09375 -27.171875 C 15.050781 -27.171875 16.765625 -26.878906 18.234375 -26.296875 C 19.710938 -25.722656 20.957031 -24.894531 21.96875 -23.8125 C 22.976562 -22.726562 23.726562 -21.425781 24.21875 -19.90625 C 24.71875 -18.382812 24.96875 -16.679688 24.96875 -14.796875 Z M 16.234375 -13.96875 C 16.234375 -14.550781 16.070312 -15.097656 15.75 -15.609375 C 15.425781 -16.128906 14.882812 -16.390625 14.125 -16.390625 C 12.925781 -16.390625 11.945312 -15.644531 11.1875 -14.15625 C 10.4375 -12.664062 10.0625 -10.53125 10.0625 -7.75 C 10.0625 -6.039062 10.367188 -4.722656 10.984375 -3.796875 C 11.609375 -2.878906 12.347656 -2.421875 13.203125 -2.421875 C 14.398438 -2.421875 15.410156 -2.945312 16.234375 -4 Z M 16.234375 -13.96875 "/></g></g></g></g></g><g transform="matrix(1, 0, 0, 1, 305, 69)"><g clip-path="url(#d75282695b)"><g fill="#6b4631" fill-opacity="1"><g transform="translate(1.060251, 14.159169)"><g><path d="M 2.875 -10.71875 C 2.988281 -11.25 2.925781 -11.597656 2.6875 -11.765625 C 2.445312 -11.941406 1.976562 -12.015625 1.28125 -11.984375 C 1.226562 -11.960938 1.203125 -12.003906 1.203125 -12.109375 C 1.203125 -12.210938 1.253906 -12.285156 1.359375 -12.328125 C 2.066406 -12.347656 2.769531 -12.421875 3.46875 -12.546875 C 4.164062 -12.679688 4.738281 -12.84375 5.1875 -13.03125 C 5.289062 -13.0625 5.375 -13.054688 5.4375 -13.015625 C 5.507812 -12.984375 5.53125 -12.925781 5.5 -12.84375 L 3.515625 -4.5625 L 3.609375 -4.5625 C 3.859375 -5.289062 4.113281 -5.941406 4.375 -6.515625 C 4.632812 -7.097656 4.921875 -7.597656 5.234375 -8.015625 C 5.554688 -8.441406 5.90625 -8.769531 6.28125 -9 C 6.664062 -9.226562 7.097656 -9.34375 7.578125 -9.34375 C 8.023438 -9.34375 8.410156 -9.238281 8.734375 -9.03125 C 9.066406 -8.832031 9.328125 -8.546875 9.515625 -8.171875 C 9.703125 -7.804688 9.816406 -7.363281 9.859375 -6.84375 C 9.898438 -6.332031 9.851562 -5.75 9.71875 -5.09375 C 9.5625 -4.320312 9.3125 -3.613281 8.96875 -2.96875 C 8.632812 -2.332031 8.226562 -1.78125 7.75 -1.3125 C 7.28125 -0.851562 6.75 -0.488281 6.15625 -0.21875 C 5.5625 0.0390625 4.9375 0.171875 4.28125 0.171875 C 3.8125 0.171875 3.367188 0.101562 2.953125 -0.03125 C 2.535156 -0.175781 2.179688 -0.394531 1.890625 -0.6875 C 1.597656 -0.988281 1.390625 -1.367188 1.265625 -1.828125 C 1.148438 -2.285156 1.171875 -2.832031 1.328125 -3.46875 Z M 6.609375 -8.140625 C 6.304688 -8.140625 6.019531 -8.007812 5.75 -7.75 C 5.488281 -7.488281 5.238281 -7.148438 5 -6.734375 C 4.769531 -6.316406 4.554688 -5.859375 4.359375 -5.359375 C 4.171875 -4.859375 4 -4.367188 3.84375 -3.890625 C 3.695312 -3.421875 3.578125 -2.992188 3.484375 -2.609375 C 3.398438 -2.222656 3.335938 -1.945312 3.296875 -1.78125 C 3.210938 -1.3125 3.257812 -0.941406 3.4375 -0.671875 C 3.625 -0.410156 3.894531 -0.28125 4.25 -0.28125 C 4.582031 -0.28125 4.910156 -0.390625 5.234375 -0.609375 C 5.554688 -0.835938 5.851562 -1.15625 6.125 -1.5625 C 6.40625 -1.976562 6.65625 -2.46875 6.875 -3.03125 C 7.09375 -3.59375 7.265625 -4.203125 7.390625 -4.859375 C 7.609375 -5.960938 7.632812 -6.785156 7.46875 -7.328125 C 7.3125 -7.867188 7.023438 -8.140625 6.609375 -8.140625 Z M 6.609375 -8.140625 "/></g></g></g><g fill="#6b4631" fill-opacity="1"><g transform="translate(10.065341, 14.159169)"><g><path d="M 2.65625 -6.671875 C 2.570312 -7.066406 2.476562 -7.34375 2.375 -7.5 C 2.28125 -7.65625 2.171875 -7.734375 2.046875 -7.734375 C 1.867188 -7.734375 1.710938 -7.597656 1.578125 -7.328125 C 1.453125 -7.066406 1.34375 -6.765625 1.25 -6.421875 C 1.21875 -6.328125 1.148438 -6.289062 1.046875 -6.3125 C 0.953125 -6.332031 0.914062 -6.394531 0.9375 -6.5 C 1.175781 -7.519531 1.484375 -8.25 1.859375 -8.6875 C 2.234375 -9.132812 2.675781 -9.359375 3.1875 -9.359375 C 3.65625 -9.359375 4.019531 -9.1875 4.28125 -8.84375 C 4.539062 -8.507812 4.753906 -7.992188 4.921875 -7.296875 L 5.921875 -2.390625 L 7.3125 -4.640625 C 7.695312 -5.242188 7.925781 -5.726562 8 -6.09375 C 8.082031 -6.457031 8.097656 -6.765625 8.046875 -7.015625 C 8.003906 -7.273438 7.929688 -7.507812 7.828125 -7.71875 C 7.722656 -7.925781 7.675781 -8.171875 7.6875 -8.453125 C 7.707031 -8.742188 7.800781 -8.96875 7.96875 -9.125 C 8.132812 -9.28125 8.335938 -9.359375 8.578125 -9.359375 C 8.828125 -9.359375 9.046875 -9.25 9.234375 -9.03125 C 9.429688 -8.820312 9.503906 -8.519531 9.453125 -8.125 C 9.410156 -7.84375 9.273438 -7.414062 9.046875 -6.84375 C 8.828125 -6.269531 8.441406 -5.554688 7.890625 -4.703125 L 4.703125 0.40625 C 4.398438 0.863281 4.097656 1.296875 3.796875 1.703125 C 3.492188 2.109375 3.175781 2.460938 2.84375 2.765625 C 2.519531 3.078125 2.195312 3.320312 1.875 3.5 C 1.550781 3.675781 1.234375 3.765625 0.921875 3.765625 C 0.679688 3.765625 0.476562 3.71875 0.3125 3.625 C 0.144531 3.53125 0.0078125 3.410156 -0.09375 3.265625 C -0.195312 3.117188 -0.265625 2.945312 -0.296875 2.75 C -0.335938 2.5625 -0.34375 2.378906 -0.3125 2.203125 C -0.25 1.921875 -0.128906 1.695312 0.046875 1.53125 C 0.234375 1.363281 0.4375 1.28125 0.65625 1.28125 C 0.875 1.28125 1.050781 1.363281 1.1875 1.53125 C 1.332031 1.707031 1.378906 1.957031 1.328125 2.28125 C 1.273438 2.46875 1.273438 2.617188 1.328125 2.734375 C 1.378906 2.859375 1.492188 2.921875 1.671875 2.921875 C 1.867188 2.921875 2.078125 2.835938 2.296875 2.671875 C 2.515625 2.515625 2.734375 2.304688 2.953125 2.046875 C 3.171875 1.796875 3.382812 1.515625 3.59375 1.203125 C 3.8125 0.898438 4.015625 0.601562 4.203125 0.3125 Z M 2.65625 -6.671875 "/></g></g></g><g fill="#6b4631" fill-opacity="1"><g transform="translate(18.391803, 14.159169)"><g/></g></g><g clip-path="url(#a242a58fad)"><g fill="#6b4631" fill-opacity="1"><g transform="translate(21.289515, 14.159169)"><g><path d="M 4.75 -13.40625 C 4.3125 -13.40625 3.9375 -13.257812 3.625 -12.96875 C 3.3125 -12.6875 3.113281 -12.335938 3.03125 -11.921875 C 2.9375 -11.503906 2.988281 -11.148438 3.1875 -10.859375 C 3.382812 -10.566406 3.703125 -10.421875 4.140625 -10.421875 C 4.585938 -10.421875 4.960938 -10.566406 5.265625 -10.859375 C 5.566406 -11.148438 5.769531 -11.503906 5.875 -11.921875 C 5.945312 -12.335938 5.882812 -12.6875 5.6875 -12.96875 C 5.5 -13.257812 5.1875 -13.40625 4.75 -13.40625 Z M 3.6875 -9.34375 C 3.976562 -9.34375 4.21875 -9.273438 4.40625 -9.140625 C 4.601562 -9.015625 4.75 -8.84375 4.84375 -8.625 C 4.9375 -8.414062 4.992188 -8.171875 5.015625 -7.890625 C 5.035156 -7.617188 5.015625 -7.335938 4.953125 -7.046875 L 3.34375 1.015625 C 3.269531 1.398438 3.117188 1.765625 2.890625 2.109375 C 2.660156 2.460938 2.378906 2.765625 2.046875 3.015625 C 1.722656 3.273438 1.347656 3.484375 0.921875 3.640625 C 0.503906 3.796875 0.0546875 3.875 -0.421875 3.875 C -1.035156 3.875 -1.488281 3.753906 -1.78125 3.515625 C -2.082031 3.273438 -2.195312 2.957031 -2.125 2.5625 C -2.0625 2.28125 -1.925781 2.039062 -1.71875 1.84375 C -1.507812 1.644531 -1.257812 1.546875 -0.96875 1.546875 C -0.71875 1.546875 -0.515625 1.632812 -0.359375 1.8125 C -0.210938 2 -0.171875 2.269531 -0.234375 2.625 C -0.285156 2.84375 -0.28125 3.019531 -0.21875 3.15625 C -0.164062 3.289062 -0.0703125 3.359375 0.0625 3.359375 C 0.226562 3.359375 0.390625 3.253906 0.546875 3.046875 C 0.703125 2.847656 0.828125 2.554688 0.921875 2.171875 L 2.75 -6.953125 C 2.8125 -7.296875 2.8125 -7.554688 2.75 -7.734375 C 2.695312 -7.921875 2.597656 -8.015625 2.453125 -8.015625 C 2.242188 -8.015625 2.046875 -7.859375 1.859375 -7.546875 C 1.679688 -7.242188 1.515625 -6.867188 1.359375 -6.421875 C 1.335938 -6.328125 1.273438 -6.289062 1.171875 -6.3125 C 1.066406 -6.332031 1.023438 -6.394531 1.046875 -6.5 C 1.191406 -7.082031 1.375 -7.554688 1.59375 -7.921875 C 1.8125 -8.285156 2.039062 -8.570312 2.28125 -8.78125 C 2.53125 -9 2.773438 -9.144531 3.015625 -9.21875 C 3.265625 -9.300781 3.488281 -9.34375 3.6875 -9.34375 Z M 3.6875 -9.34375 "/></g></g></g></g><g fill="#6b4631" fill-opacity="1"><g transform="translate(25.085862, 14.159169)"><g><path d="M 3.375 -10.71875 C 3.488281 -11.238281 3.429688 -11.585938 3.203125 -11.765625 C 2.972656 -11.941406 2.507812 -12.015625 1.8125 -11.984375 C 1.769531 -11.960938 1.75 -12.003906 1.75 -12.109375 C 1.75 -12.210938 1.796875 -12.285156 1.890625 -12.328125 C 2.597656 -12.347656 3.300781 -12.421875 4 -12.546875 C 4.695312 -12.679688 5.269531 -12.84375 5.71875 -13.03125 C 5.820312 -13.0625 5.90625 -13.054688 5.96875 -13.015625 C 6.039062 -12.984375 6.0625 -12.925781 6.03125 -12.84375 L 4.28125 -4.125 L 4.359375 -4.125 C 4.609375 -4.800781 4.867188 -5.445312 5.140625 -6.0625 C 5.410156 -6.6875 5.695312 -7.238281 6 -7.71875 C 6.3125 -8.207031 6.65625 -8.597656 7.03125 -8.890625 C 7.414062 -9.191406 7.847656 -9.34375 8.328125 -9.34375 C 8.648438 -9.34375 8.9375 -9.28125 9.1875 -9.15625 C 9.4375 -9.03125 9.640625 -8.859375 9.796875 -8.640625 C 9.953125 -8.421875 10.054688 -8.15625 10.109375 -7.84375 C 10.160156 -7.53125 10.148438 -7.175781 10.078125 -6.78125 L 9.1875 -2.203125 C 9.113281 -1.859375 9.101562 -1.59375 9.15625 -1.40625 C 9.21875 -1.226562 9.320312 -1.140625 9.46875 -1.140625 C 9.675781 -1.140625 9.867188 -1.289062 10.046875 -1.59375 C 10.234375 -1.894531 10.421875 -2.28125 10.609375 -2.75 C 10.617188 -2.800781 10.644531 -2.832031 10.6875 -2.84375 C 10.726562 -2.851562 10.765625 -2.851562 10.796875 -2.84375 C 10.835938 -2.832031 10.867188 -2.8125 10.890625 -2.78125 C 10.921875 -2.75 10.929688 -2.707031 10.921875 -2.65625 C 10.742188 -2.070312 10.539062 -1.59375 10.3125 -1.21875 C 10.09375 -0.851562 9.859375 -0.5625 9.609375 -0.34375 C 9.359375 -0.132812 9.113281 0.00390625 8.875 0.078125 C 8.632812 0.148438 8.414062 0.1875 8.21875 0.1875 C 7.925781 0.1875 7.679688 0.125 7.484375 0 C 7.296875 -0.132812 7.15625 -0.304688 7.0625 -0.515625 C 6.96875 -0.734375 6.914062 -0.976562 6.90625 -1.25 C 6.894531 -1.53125 6.921875 -1.816406 6.984375 -2.109375 L 7.8125 -6.5625 C 7.882812 -6.988281 7.878906 -7.332031 7.796875 -7.59375 C 7.710938 -7.863281 7.539062 -8 7.28125 -8 C 7.007812 -8 6.742188 -7.859375 6.484375 -7.578125 C 6.234375 -7.304688 5.988281 -6.945312 5.75 -6.5 C 5.507812 -6.050781 5.28125 -5.539062 5.0625 -4.96875 C 4.84375 -4.40625 4.632812 -3.828125 4.4375 -3.234375 C 4.238281 -2.640625 4.054688 -2.054688 3.890625 -1.484375 C 3.734375 -0.921875 3.59375 -0.425781 3.46875 0 L 1.265625 0 Z M 3.375 -10.71875 "/></g></g></g><g fill="#6b4631" fill-opacity="1"><g transform="translate(35.062931, 14.159169)"><g><path d="M 3.484375 -4.984375 C 3.773438 -5.054688 4.125 -5.144531 4.53125 -5.25 C 4.945312 -5.351562 5.34375 -5.5 5.71875 -5.6875 C 6.101562 -5.875 6.441406 -6.101562 6.734375 -6.375 C 7.035156 -6.644531 7.222656 -6.988281 7.296875 -7.40625 C 7.335938 -7.582031 7.347656 -7.75 7.328125 -7.90625 C 7.304688 -8.070312 7.257812 -8.222656 7.1875 -8.359375 C 7.125 -8.492188 7.023438 -8.601562 6.890625 -8.6875 C 6.765625 -8.78125 6.597656 -8.828125 6.390625 -8.828125 C 6.078125 -8.828125 5.773438 -8.734375 5.484375 -8.546875 C 5.191406 -8.359375 4.914062 -8.097656 4.65625 -7.765625 C 4.40625 -7.429688 4.175781 -7.03125 3.96875 -6.5625 C 3.769531 -6.09375 3.609375 -5.566406 3.484375 -4.984375 Z M 9.15625 -7.359375 C 9.03125 -6.828125 8.726562 -6.394531 8.25 -6.0625 C 7.78125 -5.738281 7.242188 -5.472656 6.640625 -5.265625 C 6.035156 -5.066406 5.429688 -4.914062 4.828125 -4.8125 C 4.234375 -4.71875 3.753906 -4.640625 3.390625 -4.578125 C 3.210938 -3.421875 3.289062 -2.519531 3.625 -1.875 C 3.96875 -1.226562 4.5625 -0.90625 5.40625 -0.90625 C 5.945312 -0.90625 6.425781 -1.015625 6.84375 -1.234375 C 7.269531 -1.460938 7.613281 -1.707031 7.875 -1.96875 C 7.945312 -2.050781 8.007812 -2.054688 8.0625 -1.984375 C 8.113281 -1.921875 8.125 -1.863281 8.09375 -1.8125 C 7.914062 -1.570312 7.691406 -1.332031 7.421875 -1.09375 C 7.160156 -0.851562 6.859375 -0.640625 6.515625 -0.453125 C 6.171875 -0.265625 5.796875 -0.113281 5.390625 0 C 4.984375 0.125 4.554688 0.1875 4.109375 0.1875 C 3.523438 0.1875 3.015625 0.0820312 2.578125 -0.125 C 2.140625 -0.332031 1.789062 -0.628906 1.53125 -1.015625 C 1.28125 -1.410156 1.117188 -1.882812 1.046875 -2.4375 C 0.984375 -3 1.019531 -3.628906 1.15625 -4.328125 C 1.300781 -5.066406 1.535156 -5.742188 1.859375 -6.359375 C 2.191406 -6.972656 2.597656 -7.5 3.078125 -7.9375 C 3.566406 -8.382812 4.113281 -8.726562 4.71875 -8.96875 C 5.320312 -9.21875 5.972656 -9.34375 6.671875 -9.34375 C 7.554688 -9.34375 8.222656 -9.160156 8.671875 -8.796875 C 9.128906 -8.429688 9.289062 -7.953125 9.15625 -7.359375 Z M 9.15625 -7.359375 "/></g></g></g><g fill="#6b4631" fill-opacity="1"><g transform="translate(42.967624, 14.159169)"><g><path d="M 2.671875 -6.953125 C 2.734375 -7.296875 2.738281 -7.554688 2.6875 -7.734375 C 2.632812 -7.921875 2.535156 -8.015625 2.390625 -8.015625 C 2.179688 -8.015625 1.984375 -7.859375 1.796875 -7.546875 C 1.609375 -7.242188 1.425781 -6.867188 1.25 -6.421875 C 1.21875 -6.328125 1.148438 -6.289062 1.046875 -6.3125 C 0.953125 -6.332031 0.914062 -6.394531 0.9375 -6.5 C 1.101562 -7.082031 1.300781 -7.554688 1.53125 -7.921875 C 1.769531 -8.285156 2.007812 -8.570312 2.25 -8.78125 C 2.5 -9 2.742188 -9.144531 2.984375 -9.21875 C 3.234375 -9.300781 3.457031 -9.34375 3.65625 -9.34375 C 3.945312 -9.34375 4.1875 -9.273438 4.375 -9.140625 C 4.5625 -9.015625 4.703125 -8.84375 4.796875 -8.625 C 4.890625 -8.414062 4.941406 -8.171875 4.953125 -7.890625 C 4.960938 -7.617188 4.929688 -7.335938 4.859375 -7.046875 L 4.390625 -4.125 L 4.46875 -4.125 C 4.71875 -4.800781 4.976562 -5.445312 5.25 -6.0625 C 5.519531 -6.6875 5.8125 -7.238281 6.125 -7.71875 C 6.445312 -8.207031 6.800781 -8.597656 7.1875 -8.890625 C 7.570312 -9.191406 8.007812 -9.34375 8.5 -9.34375 C 8.800781 -9.34375 9.070312 -9.28125 9.3125 -9.15625 C 9.5625 -9.03125 9.757812 -8.859375 9.90625 -8.640625 C 10.0625 -8.421875 10.164062 -8.15625 10.21875 -7.84375 C 10.269531 -7.53125 10.257812 -7.175781 10.1875 -6.78125 L 9.296875 -2.203125 C 9.222656 -1.859375 9.210938 -1.59375 9.265625 -1.40625 C 9.328125 -1.226562 9.429688 -1.140625 9.578125 -1.140625 C 9.785156 -1.140625 9.976562 -1.289062 10.15625 -1.59375 C 10.34375 -1.894531 10.53125 -2.28125 10.71875 -2.75 C 10.726562 -2.800781 10.753906 -2.832031 10.796875 -2.84375 C 10.835938 -2.851562 10.875 -2.851562 10.90625 -2.84375 C 10.945312 -2.832031 10.976562 -2.8125 11 -2.78125 C 11.03125 -2.75 11.039062 -2.707031 11.03125 -2.65625 C 10.851562 -2.070312 10.648438 -1.59375 10.421875 -1.21875 C 10.203125 -0.851562 9.96875 -0.5625 9.71875 -0.34375 C 9.46875 -0.132812 9.21875 0.00390625 8.96875 0.078125 C 8.726562 0.148438 8.507812 0.1875 8.3125 0.1875 C 8.019531 0.1875 7.773438 0.125 7.578125 0 C 7.390625 -0.132812 7.25 -0.304688 7.15625 -0.515625 C 7.070312 -0.734375 7.023438 -0.976562 7.015625 -1.25 C 7.003906 -1.53125 7.03125 -1.816406 7.09375 -2.109375 L 7.921875 -6.5625 C 7.992188 -6.988281 7.988281 -7.332031 7.90625 -7.59375 C 7.820312 -7.863281 7.644531 -8 7.375 -8 C 7.113281 -8 6.851562 -7.859375 6.59375 -7.578125 C 6.34375 -7.304688 6.097656 -6.945312 5.859375 -6.5 C 5.617188 -6.050781 5.390625 -5.539062 5.171875 -4.96875 C 4.953125 -4.40625 4.742188 -3.828125 4.546875 -3.234375 C 4.347656 -2.640625 4.164062 -2.054688 4 -1.484375 C 3.84375 -0.921875 3.703125 -0.425781 3.578125 0 L 1.375 0 Z M 2.671875 -6.953125 "/></g></g></g></g></g></svg>