<svg xmlns="http://www.w3.org/2000/svg" xmlns:xlink="http://www.w3.org/1999/xlink" width="500" zoomAndPan="magnify" viewBox="0 0 375 112.499997" height="150" preserveAspectRatio="xMidYMid meet" version="1.0"><defs><g/><clipPath id="a812f01f0d"><path d="M 0.429688 9 L 44 9 L 44 53 L 0.429688 53 Z M 0.429688 9 " clip-rule="nonzero"/></clipPath><clipPath id="ea3eab06fc"><path d="M 44 0.265625 L 58 0.265625 L 58 41 L 44 41 Z M 44 0.265625 " clip-rule="nonzero"/></clipPath><clipPath id="53bfc1cf0c"><path d="M 210 0.265625 L 241 0.265625 L 241 42 L 210 42 Z M 210 0.265625 " clip-rule="nonzero"/></clipPath><clipPath id="cec9df6c15"><path d="M 315 0.265625 L 329 0.265625 L 329 41 L 315 41 Z M 315 0.265625 " clip-rule="nonzero"/></clipPath><clipPath id="fe5b67ea20"><rect x="0" width="358" y="0" height="55"/></clipPath><clipPath id="f8a0ac8f50"><path d="M 14 7 L 29 7 L 29 26.796875 L 14 26.796875 Z M 14 7 " clip-rule="nonzero"/></clipPath><clipPath id="5eba1e0893"><path d="M 30 1 L 39 1 L 39 26.796875 L 30 26.796875 Z M 30 1 " clip-rule="nonzero"/></clipPath><clipPath id="17f2244c0a"><rect x="0" width="81" y="0" height="27"/></clipPath></defs><g transform="matrix(1, 0, 0, 1, 9, 21)"><g clip-path="url(#fe5b67ea20)"><g clip-path="url(#a812f01f0d)"><g fill="#000000" fill-opacity="1"><g transform="translate(15.335721, 40.438907)"><g><path d="M 22.28125 -29.578125 C 22.9375 -30.222656 23.71875 -30.546875 24.625 -30.546875 C 25.539062 -30.546875 26.320312 -30.222656 26.96875 -29.578125 C 27.625 -28.929688 27.953125 -28.140625 27.953125 -27.203125 C 27.953125 -26.273438 27.625 -25.484375 26.96875 -24.828125 C 26.320312 -24.179688 25.539062 -23.859375 24.625 -23.859375 C 23.71875 -23.859375 22.9375 -24.179688 22.28125 -24.828125 C 21.632812 -25.484375 21.3125 -26.273438 21.3125 -27.203125 C 21.3125 -28.140625 21.632812 -28.929688 22.28125 -29.578125 Z M 13.71875 -25.8125 C 15.050781 -25.8125 16.34375 -25.660156 17.59375 -25.359375 C 18.84375 -25.054688 20.015625 -24.597656 21.109375 -23.984375 C 22.210938 -23.367188 23.101562 -22.503906 23.78125 -21.390625 C 24.46875 -20.273438 24.8125 -19.003906 24.8125 -17.578125 C 24.8125 -16.378906 24.582031 -15.304688 24.125 -14.359375 C 23.675781 -13.410156 23.085938 -12.625 22.359375 -12 C 21.628906 -11.382812 20.769531 -10.867188 19.78125 -10.453125 C 18.800781 -10.035156 17.8125 -9.734375 16.8125 -9.546875 C 15.820312 -9.367188 14.789062 -9.28125 13.71875 -9.28125 C 10.820312 -9.28125 8.410156 -9.894531 6.484375 -11.125 C 5.585938 -10.46875 5.015625 -9.601562 4.765625 -8.53125 C 4.515625 -7.46875 4.644531 -6.507812 5.15625 -5.65625 C 5.675781 -4.8125 6.46875 -4.375 7.53125 -4.34375 C 8.4375 -4.28125 9.453125 -4.445312 10.578125 -4.84375 C 11.710938 -5.238281 12.742188 -5.675781 13.671875 -6.15625 C 14.609375 -6.644531 15.765625 -7.019531 17.140625 -7.28125 C 18.523438 -7.550781 19.929688 -7.570312 21.359375 -7.34375 C 22.796875 -7.070312 24.046875 -6.34375 25.109375 -5.15625 C 26.171875 -3.976562 26.828125 -2.609375 27.078125 -1.046875 C 27.328125 0.515625 27.132812 2.144531 26.5 3.84375 C 25.707031 5.644531 24.398438 7.007812 22.578125 7.9375 C 20.765625 8.863281 18.726562 9.460938 16.46875 9.734375 C 14.707031 9.929688 12.992188 9.832031 11.328125 9.4375 C 9.660156 9.039062 8.160156 8.472656 6.828125 7.734375 C 5.503906 7.003906 4.191406 6.265625 2.890625 5.515625 C 1.597656 4.765625 0.171875 4.128906 -1.390625 3.609375 C -2.960938 3.097656 -4.5625 2.878906 -6.1875 2.953125 C -9.75 3.210938 -12.03125 4.65625 -13.03125 7.28125 C -12.632812 7.082031 -12.203125 6.984375 -11.734375 6.984375 C -11.003906 6.984375 -10.367188 7.25 -9.828125 7.78125 C -9.296875 8.320312 -9.03125 8.960938 -9.03125 9.703125 C -9.03125 10.453125 -9.296875 11.09375 -9.828125 11.625 C -10.367188 12.164062 -11.003906 12.4375 -11.734375 12.4375 C -12.503906 12.4375 -13.132812 12.1875 -13.625 11.6875 C -14.125 11.1875 -14.410156 10.566406 -14.484375 9.828125 C -14.546875 8.335938 -14.09375 7.015625 -13.125 5.859375 C -12.164062 4.710938 -11.023438 3.890625 -9.703125 3.390625 C -8.390625 2.890625 -7.085938 2.640625 -5.796875 2.640625 C -4.097656 2.679688 -2.441406 2.96875 -0.828125 3.5 C 0.785156 4.03125 2.21875 4.660156 3.46875 5.390625 C 4.71875 6.117188 5.984375 6.832031 7.265625 7.53125 C 8.546875 8.238281 9.96875 8.765625 11.53125 9.109375 C 13.09375 9.460938 14.738281 9.519531 16.46875 9.28125 C 17.695312 9.144531 18.769531 8.757812 19.6875 8.125 C 20.601562 7.5 21.253906 6.785156 21.640625 5.984375 C 22.023438 5.191406 22.238281 4.382812 22.28125 3.5625 C 22.332031 2.75 22.148438 2.019531 21.734375 1.375 C 21.316406 0.726562 20.726562 0.285156 19.96875 0.046875 C 19.132812 -0.210938 18.101562 -0.160156 16.875 0.203125 C 15.644531 0.566406 14.460938 1.003906 13.328125 1.515625 C 12.191406 2.035156 10.882812 2.421875 9.40625 2.671875 C 7.925781 2.921875 6.535156 2.796875 5.234375 2.296875 C 3.835938 1.523438 2.832031 0.5 2.21875 -0.78125 C 1.601562 -2.0625 1.394531 -3.359375 1.59375 -4.671875 C 1.789062 -5.984375 2.304688 -7.242188 3.140625 -8.453125 C 3.972656 -9.671875 5.039062 -10.597656 6.34375 -11.234375 C 5.238281 -11.929688 4.378906 -12.796875 3.765625 -13.828125 C 3.148438 -14.859375 2.800781 -15.90625 2.71875 -16.96875 C 2.632812 -18.039062 2.804688 -19.109375 3.234375 -20.171875 C 3.671875 -21.234375 4.320312 -22.179688 5.1875 -23.015625 C 6.050781 -23.847656 7.234375 -24.519531 8.734375 -25.03125 C 10.234375 -25.550781 11.894531 -25.8125 13.71875 -25.8125 Z M 13.71875 -9.4375 C 15.15625 -9.4375 16.296875 -10.25 17.140625 -11.875 C 17.992188 -13.507812 18.421875 -15.40625 18.421875 -17.5625 C 18.421875 -19.726562 17.992188 -21.617188 17.140625 -23.234375 C 16.296875 -24.847656 15.15625 -25.65625 13.71875 -25.65625 C 12.351562 -25.65625 11.242188 -24.863281 10.390625 -23.28125 C 9.546875 -21.707031 9.109375 -19.867188 9.078125 -17.765625 C 9.046875 -15.535156 9.453125 -13.585938 10.296875 -11.921875 C 11.148438 -10.265625 12.289062 -9.4375 13.71875 -9.4375 Z M 13.71875 -9.4375 "/></g></g></g></g><g clip-path="url(#ea3eab06fc)"><g fill="#000000" fill-opacity="1"><g transform="translate(43.594575, 40.438907)"><g><path d="M 4.046875 -6.390625 C 4.046875 -15.941406 4.046875 -23.492188 4.046875 -29.046875 C 4.046875 -29.378906 4.007812 -29.726562 3.9375 -30.09375 C 3.875 -30.46875 3.75 -30.921875 3.5625 -31.453125 C 3.382812 -31.984375 3.078125 -32.476562 2.640625 -32.9375 C 2.210938 -33.40625 1.664062 -33.757812 1 -34 C 1.632812 -34.363281 3.070312 -35.191406 5.3125 -36.484375 C 7.5625 -37.785156 9.285156 -38.800781 10.484375 -39.53125 L 10.484375 -6.390625 C 10.484375 -5.523438 10.515625 -4.816406 10.578125 -4.265625 C 10.648438 -3.710938 10.785156 -3.085938 10.984375 -2.390625 C 11.179688 -1.691406 11.535156 -1.144531 12.046875 -0.75 C 12.566406 -0.351562 13.210938 -0.101562 13.984375 0 L 0.546875 0 C 1.347656 -0.101562 2 -0.351562 2.5 -0.75 C 3 -1.144531 3.351562 -1.691406 3.5625 -2.390625 C 3.78125 -3.085938 3.914062 -3.710938 3.96875 -4.265625 C 4.019531 -4.816406 4.046875 -5.523438 4.046875 -6.390625 Z M 4.046875 -6.390625 "/></g></g></g></g><g fill="#000000" fill-opacity="1"><g transform="translate(57.274608, 40.438907)"><g><path d="M 29.40625 0 C 28.34375 0 27.5625 -0.00390625 27.0625 -0.015625 C 26.5625 -0.0351562 25.800781 -0.09375 24.78125 -0.1875 C 23.769531 -0.289062 22.914062 -0.484375 22.21875 -0.765625 C 21.519531 -1.054688 20.953125 -1.429688 20.515625 -1.890625 C 18.785156 -0.0664062 16.273438 0.84375 12.984375 0.84375 C 11.546875 0.84375 10.15625 0.632812 8.8125 0.21875 C 7.46875 -0.195312 6.21875 -0.8125 5.0625 -1.625 C 3.914062 -2.4375 2.992188 -3.539062 2.296875 -4.9375 C 1.597656 -6.332031 1.25 -7.914062 1.25 -9.6875 C 1.28125 -12.050781 1.9375 -13.988281 3.21875 -15.5 C 4.5 -17.007812 6.054688 -17.972656 7.890625 -18.390625 C 9.722656 -18.804688 11.6875 -18.789062 13.78125 -18.34375 C 15.875 -17.894531 17.769531 -17.039062 19.46875 -15.78125 L 19.46875 -17.078125 C 19.46875 -17.972656 19.382812 -18.851562 19.21875 -19.71875 C 19.050781 -20.582031 18.789062 -21.445312 18.4375 -22.3125 C 18.09375 -23.175781 17.578125 -23.898438 16.890625 -24.484375 C 16.210938 -25.066406 15.410156 -25.375 14.484375 -25.40625 C 13.316406 -25.507812 12.382812 -25.195312 11.6875 -24.46875 C 12.414062 -24.5 13.046875 -24.265625 13.578125 -23.765625 C 14.109375 -23.265625 14.375 -22.664062 14.375 -21.96875 C 14.375 -21.300781 14.132812 -20.722656 13.65625 -20.234375 C 13.175781 -19.753906 12.59375 -19.515625 11.90625 -19.515625 C 11.226562 -19.515625 10.644531 -19.753906 10.15625 -20.234375 C 9.675781 -20.722656 9.4375 -21.300781 9.4375 -21.96875 C 9.46875 -23.394531 10.445312 -24.472656 12.375 -25.203125 C 14.769531 -26.078125 17.25 -26.0625 19.8125 -25.15625 C 23.082031 -23.957031 25.03125 -21.613281 25.65625 -18.125 C 25.820312 -17.351562 25.90625 -16.550781 25.90625 -15.71875 L 25.90625 -6.59375 C 25.90625 -5.757812 25.929688 -5.050781 25.984375 -4.46875 C 26.035156 -3.882812 26.164062 -3.222656 26.375 -2.484375 C 26.59375 -1.753906 26.953125 -1.179688 27.453125 -0.765625 C 27.953125 -0.359375 28.601562 -0.101562 29.40625 0 Z M 19.46875 -14.375 C 19.164062 -14.976562 18.691406 -15.5625 18.046875 -16.125 C 17.398438 -16.6875 16.773438 -17.085938 16.171875 -17.328125 C 14.109375 -18.191406 12.21875 -17.957031 10.5 -16.625 C 8.789062 -15.289062 7.820312 -13.296875 7.59375 -10.640625 C 7.457031 -9.066406 7.601562 -7.472656 8.03125 -5.859375 C 8.46875 -4.242188 9.257812 -2.8125 10.40625 -1.5625 C 11.550781 -0.320312 12.925781 0.332031 14.53125 0.40625 C 16.1875 0.46875 17.4375 -0.125 18.28125 -1.375 C 19.132812 -2.625 19.53125 -4.097656 19.46875 -5.796875 Z M 19.46875 -14.375 "/></g></g></g><g fill="#000000" fill-opacity="1"><g transform="translate(86.631851, 40.438907)"><g><path d="M 10.734375 -24.96875 L 10.734375 -20.421875 C 10.835938 -20.484375 11.285156 -20.765625 12.078125 -21.265625 C 12.878906 -21.765625 13.382812 -22.070312 13.59375 -22.1875 C 13.8125 -22.300781 14.269531 -22.554688 14.96875 -22.953125 C 15.675781 -23.359375 16.210938 -23.632812 16.578125 -23.78125 C 16.941406 -23.9375 17.414062 -24.117188 18 -24.328125 C 18.582031 -24.546875 19.128906 -24.695312 19.640625 -24.78125 C 20.160156 -24.863281 20.671875 -24.925781 21.171875 -24.96875 C 22.628906 -24.96875 23.898438 -24.59375 24.984375 -23.84375 C 26.066406 -23.09375 26.773438 -21.898438 27.109375 -20.265625 C 27.335938 -20.429688 27.789062 -20.726562 28.46875 -21.15625 C 29.15625 -21.59375 29.65625 -21.898438 29.96875 -22.078125 C 30.289062 -22.265625 30.765625 -22.539062 31.390625 -22.90625 C 32.023438 -23.28125 32.550781 -23.554688 32.96875 -23.734375 C 33.382812 -23.921875 33.882812 -24.117188 34.46875 -24.328125 C 35.050781 -24.546875 35.597656 -24.695312 36.109375 -24.78125 C 36.628906 -24.863281 37.15625 -24.925781 37.6875 -24.96875 C 39.414062 -24.96875 40.863281 -24.445312 42.03125 -23.40625 C 43.195312 -22.375 43.78125 -20.726562 43.78125 -18.46875 L 43.78125 -6.390625 C 43.78125 -5.523438 43.8125 -4.816406 43.875 -4.265625 C 43.945312 -3.710938 44.082031 -3.085938 44.28125 -2.390625 C 44.476562 -1.691406 44.828125 -1.144531 45.328125 -0.75 C 45.828125 -0.351562 46.476562 -0.101562 47.28125 0 L 33.84375 0 C 34.613281 -0.101562 35.253906 -0.351562 35.765625 -0.75 C 36.285156 -1.144531 36.644531 -1.691406 36.84375 -2.390625 C 37.039062 -3.085938 37.171875 -3.710938 37.234375 -4.265625 C 37.304688 -4.816406 37.34375 -5.523438 37.34375 -6.390625 L 37.34375 -18.015625 C 37.375 -19.585938 37.054688 -20.890625 36.390625 -21.921875 C 35.722656 -22.953125 34.660156 -23.347656 33.203125 -23.109375 C 33.003906 -23.078125 32.796875 -23.023438 32.578125 -22.953125 C 32.359375 -22.890625 32.148438 -22.828125 31.953125 -22.765625 C 31.753906 -22.703125 31.546875 -22.617188 31.328125 -22.515625 C 31.109375 -22.410156 30.898438 -22.304688 30.703125 -22.203125 C 30.503906 -22.109375 30.285156 -21.992188 30.046875 -21.859375 C 29.816406 -21.734375 29.617188 -21.617188 29.453125 -21.515625 C 29.285156 -21.410156 29.078125 -21.285156 28.828125 -21.140625 C 28.578125 -20.992188 28.375 -20.867188 28.21875 -20.765625 C 28.070312 -20.671875 27.882812 -20.546875 27.65625 -20.390625 C 27.425781 -20.242188 27.257812 -20.132812 27.15625 -20.0625 C 27.21875 -19.5625 27.25 -19.03125 27.25 -18.46875 L 27.25 -6.390625 C 27.25 -5.523438 27.28125 -4.816406 27.34375 -4.265625 C 27.414062 -3.710938 27.550781 -3.085938 27.75 -2.390625 C 27.957031 -1.691406 28.316406 -1.144531 28.828125 -0.75 C 29.347656 -0.351562 29.988281 -0.101562 30.75 0 L 17.328125 0 C 18.117188 -0.101562 18.765625 -0.351562 19.265625 -0.75 C 19.765625 -1.144531 20.113281 -1.691406 20.3125 -2.390625 C 20.519531 -3.085938 20.65625 -3.710938 20.71875 -4.265625 C 20.78125 -4.816406 20.8125 -5.523438 20.8125 -6.390625 L 20.8125 -18.015625 C 20.851562 -19.585938 20.539062 -20.890625 19.875 -21.921875 C 19.207031 -22.953125 18.140625 -23.347656 16.671875 -23.109375 C 15.472656 -22.910156 13.644531 -22.015625 11.1875 -20.421875 C 10.988281 -20.285156 10.835938 -20.1875 10.734375 -20.125 L 10.734375 -6.390625 C 10.734375 -5.523438 10.765625 -4.816406 10.828125 -4.265625 C 10.898438 -3.710938 11.035156 -3.085938 11.234375 -2.390625 C 11.429688 -1.691406 11.785156 -1.144531 12.296875 -0.75 C 12.816406 -0.351562 13.460938 -0.101562 14.234375 0 L 0.796875 0 C 1.597656 -0.101562 2.25 -0.351562 2.75 -0.75 C 3.25 -1.144531 3.601562 -1.691406 3.8125 -2.390625 C 4.03125 -3.085938 4.164062 -3.710938 4.21875 -4.265625 C 4.269531 -4.816406 4.296875 -5.523438 4.296875 -6.390625 L 4.296875 -14.484375 C 4.296875 -14.816406 4.257812 -15.164062 4.1875 -15.53125 C 4.125 -15.894531 4 -16.34375 3.8125 -16.875 C 3.632812 -17.40625 3.328125 -17.898438 2.890625 -18.359375 C 2.460938 -18.828125 1.914062 -19.179688 1.25 -19.421875 C 5.476562 -21.878906 8.640625 -23.726562 10.734375 -24.96875 Z M 10.734375 -24.96875 "/></g></g></g><g fill="#000000" fill-opacity="1"><g transform="translate(134.462187, 40.438907)"><g><path d="M 10.734375 -24.96875 L 10.734375 -20.421875 C 10.835938 -20.484375 11.285156 -20.765625 12.078125 -21.265625 C 12.878906 -21.765625 13.382812 -22.070312 13.59375 -22.1875 C 13.8125 -22.300781 14.269531 -22.554688 14.96875 -22.953125 C 15.675781 -23.359375 16.210938 -23.632812 16.578125 -23.78125 C 16.941406 -23.9375 17.414062 -24.117188 18 -24.328125 C 18.582031 -24.546875 19.128906 -24.695312 19.640625 -24.78125 C 20.160156 -24.863281 20.671875 -24.925781 21.171875 -24.96875 C 22.628906 -24.96875 23.898438 -24.59375 24.984375 -23.84375 C 26.066406 -23.09375 26.773438 -21.898438 27.109375 -20.265625 C 27.335938 -20.429688 27.789062 -20.726562 28.46875 -21.15625 C 29.15625 -21.59375 29.65625 -21.898438 29.96875 -22.078125 C 30.289062 -22.265625 30.765625 -22.539062 31.390625 -22.90625 C 32.023438 -23.28125 32.550781 -23.554688 32.96875 -23.734375 C 33.382812 -23.921875 33.882812 -24.117188 34.46875 -24.328125 C 35.050781 -24.546875 35.597656 -24.695312 36.109375 -24.78125 C 36.628906 -24.863281 37.15625 -24.925781 37.6875 -24.96875 C 39.414062 -24.96875 40.863281 -24.445312 42.03125 -23.40625 C 43.195312 -22.375 43.78125 -20.726562 43.78125 -18.46875 L 43.78125 -6.390625 C 43.78125 -5.523438 43.8125 -4.816406 43.875 -4.265625 C 43.945312 -3.710938 44.082031 -3.085938 44.28125 -2.390625 C 44.476562 -1.691406 44.828125 -1.144531 45.328125 -0.75 C 45.828125 -0.351562 46.476562 -0.101562 47.28125 0 L 33.84375 0 C 34.613281 -0.101562 35.253906 -0.351562 35.765625 -0.75 C 36.285156 -1.144531 36.644531 -1.691406 36.84375 -2.390625 C 37.039062 -3.085938 37.171875 -3.710938 37.234375 -4.265625 C 37.304688 -4.816406 37.34375 -5.523438 37.34375 -6.390625 L 37.34375 -18.015625 C 37.375 -19.585938 37.054688 -20.890625 36.390625 -21.921875 C 35.722656 -22.953125 34.660156 -23.347656 33.203125 -23.109375 C 33.003906 -23.078125 32.796875 -23.023438 32.578125 -22.953125 C 32.359375 -22.890625 32.148438 -22.828125 31.953125 -22.765625 C 31.753906 -22.703125 31.546875 -22.617188 31.328125 -22.515625 C 31.109375 -22.410156 30.898438 -22.304688 30.703125 -22.203125 C 30.503906 -22.109375 30.285156 -21.992188 30.046875 -21.859375 C 29.816406 -21.734375 29.617188 -21.617188 29.453125 -21.515625 C 29.285156 -21.410156 29.078125 -21.285156 28.828125 -21.140625 C 28.578125 -20.992188 28.375 -20.867188 28.21875 -20.765625 C 28.070312 -20.671875 27.882812 -20.546875 27.65625 -20.390625 C 27.425781 -20.242188 27.257812 -20.132812 27.15625 -20.0625 C 27.21875 -19.5625 27.25 -19.03125 27.25 -18.46875 L 27.25 -6.390625 C 27.25 -5.523438 27.28125 -4.816406 27.34375 -4.265625 C 27.414062 -3.710938 27.550781 -3.085938 27.75 -2.390625 C 27.957031 -1.691406 28.316406 -1.144531 28.828125 -0.75 C 29.347656 -0.351562 29.988281 -0.101562 30.75 0 L 17.328125 0 C 18.117188 -0.101562 18.765625 -0.351562 19.265625 -0.75 C 19.765625 -1.144531 20.113281 -1.691406 20.3125 -2.390625 C 20.519531 -3.085938 20.65625 -3.710938 20.71875 -4.265625 C 20.78125 -4.816406 20.8125 -5.523438 20.8125 -6.390625 L 20.8125 -18.015625 C 20.851562 -19.585938 20.539062 -20.890625 19.875 -21.921875 C 19.207031 -22.953125 18.140625 -23.347656 16.671875 -23.109375 C 15.472656 -22.910156 13.644531 -22.015625 11.1875 -20.421875 C 10.988281 -20.285156 10.835938 -20.1875 10.734375 -20.125 L 10.734375 -6.390625 C 10.734375 -5.523438 10.765625 -4.816406 10.828125 -4.265625 C 10.898438 -3.710938 11.035156 -3.085938 11.234375 -2.390625 C 11.429688 -1.691406 11.785156 -1.144531 12.296875 -0.75 C 12.816406 -0.351562 13.460938 -0.101562 14.234375 0 L 0.796875 0 C 1.597656 -0.101562 2.25 -0.351562 2.75 -0.75 C 3.25 -1.144531 3.601562 -1.691406 3.8125 -2.390625 C 4.03125 -3.085938 4.164062 -3.710938 4.21875 -4.265625 C 4.269531 -4.816406 4.296875 -5.523438 4.296875 -6.390625 L 4.296875 -14.484375 C 4.296875 -14.816406 4.257812 -15.164062 4.1875 -15.53125 C 4.125 -15.894531 4 -16.34375 3.8125 -16.875 C 3.632812 -17.40625 3.328125 -17.898438 2.890625 -18.359375 C 2.460938 -18.828125 1.914062 -19.179688 1.25 -19.421875 C 5.476562 -21.878906 8.640625 -23.726562 10.734375 -24.96875 Z M 10.734375 -24.96875 "/></g></g></g><g fill="#000000" fill-opacity="1"><g transform="translate(181.393795, 40.438907)"><g><path d="M 14.53125 0.84375 C 12.695312 0.84375 11.015625 0.535156 9.484375 -0.078125 C 7.953125 -0.691406 6.675781 -1.515625 5.65625 -2.546875 C 4.644531 -3.578125 3.773438 -4.765625 3.046875 -6.109375 C 2.316406 -7.460938 1.867188 -8.878906 1.703125 -10.359375 C 1.535156 -11.835938 1.507812 -13.316406 1.625 -14.796875 C 1.738281 -16.273438 2.144531 -17.679688 2.84375 -19.015625 C 3.539062 -20.347656 4.390625 -21.519531 5.390625 -22.53125 C 6.390625 -23.550781 7.675781 -24.359375 9.25 -24.953125 C 10.832031 -25.554688 12.59375 -25.84375 14.53125 -25.8125 C 16.351562 -25.78125 17.972656 -25.429688 19.390625 -24.765625 C 20.804688 -24.097656 21.960938 -23.1875 22.859375 -22.03125 C 23.765625 -20.882812 24.460938 -19.613281 24.953125 -18.21875 C 25.453125 -16.820312 25.769531 -15.304688 25.90625 -13.671875 L 7.734375 -13.671875 C 7.835938 -10.910156 8.550781 -8.554688 9.875 -6.609375 C 11.207031 -4.660156 13.15625 -3.601562 15.71875 -3.4375 C 17.789062 -3.3125 19.816406 -3.78125 21.796875 -4.84375 C 23.773438 -5.90625 25.226562 -7.300781 26.15625 -9.03125 C 25.726562 -5.96875 24.40625 -3.546875 22.1875 -1.765625 C 19.976562 0.015625 17.425781 0.882812 14.53125 0.84375 Z M 7.734375 -13.921875 L 19.21875 -13.921875 C 19.28125 -14.992188 19.242188 -16.171875 19.109375 -17.453125 C 18.984375 -18.734375 18.742188 -20.054688 18.390625 -21.421875 C 18.046875 -22.785156 17.457031 -23.863281 16.625 -24.65625 C 15.789062 -25.457031 14.804688 -25.742188 13.671875 -25.515625 C 11.878906 -25.179688 10.429688 -23.863281 9.328125 -21.5625 C 8.234375 -19.269531 7.703125 -16.722656 7.734375 -13.921875 Z M 7.734375 -13.921875 "/></g></g></g><g clip-path="url(#53bfc1cf0c)"><g fill="#000000" fill-opacity="1"><g transform="translate(209.053504, 40.438907)"><g><path d="M 31.09375 0 C 30.03125 0 29.238281 -0.00390625 28.71875 -0.015625 C 28.207031 -0.0351562 27.441406 -0.09375 26.421875 -0.1875 C 25.410156 -0.289062 24.554688 -0.484375 23.859375 -0.765625 C 23.160156 -1.054688 22.597656 -1.429688 22.171875 -1.890625 C 20.429688 -0.0234375 18.035156 0.882812 14.984375 0.84375 C 13.015625 0.8125 11.222656 0.488281 9.609375 -0.125 C 7.992188 -0.738281 6.660156 -1.5625 5.609375 -2.59375 C 4.566406 -3.625 3.6875 -4.804688 2.96875 -6.140625 C 2.25 -7.472656 1.816406 -8.867188 1.671875 -10.328125 C 1.523438 -11.796875 1.523438 -13.269531 1.671875 -14.75 C 1.816406 -16.226562 2.253906 -17.625 2.984375 -18.9375 C 3.722656 -20.257812 4.597656 -21.4375 5.609375 -22.46875 C 6.628906 -23.5 7.925781 -24.3125 9.5 -24.90625 C 11.082031 -25.507812 12.828125 -25.8125 14.734375 -25.8125 C 15.828125 -25.8125 16.988281 -25.550781 18.21875 -25.03125 C 19.445312 -24.519531 20.410156 -23.914062 21.109375 -23.21875 L 21.109375 -29.046875 C 21.109375 -29.378906 21.082031 -29.726562 21.03125 -30.09375 C 20.988281 -30.46875 20.875 -30.921875 20.6875 -31.453125 C 20.507812 -31.984375 20.191406 -32.476562 19.734375 -32.9375 C 19.285156 -33.40625 18.75 -33.757812 18.125 -34 C 22.3125 -36.457031 25.472656 -38.300781 27.609375 -39.53125 C 27.609375 -20.726562 27.609375 -9.679688 27.609375 -6.390625 C 27.609375 -5.554688 27.628906 -4.851562 27.671875 -4.28125 C 27.722656 -3.71875 27.859375 -3.085938 28.078125 -2.390625 C 28.296875 -1.691406 28.65625 -1.144531 29.15625 -0.75 C 29.65625 -0.351562 30.300781 -0.101562 31.09375 0 Z M 21.109375 -20.0625 C 21.109375 -21.0625 20.800781 -21.984375 20.1875 -22.828125 C 19.570312 -23.679688 18.765625 -24.332031 17.765625 -24.78125 C 16.773438 -25.226562 15.765625 -25.40625 14.734375 -25.3125 C 13.097656 -25.144531 11.722656 -24.382812 10.609375 -23.03125 C 9.492188 -21.6875 8.726562 -20.066406 8.3125 -18.171875 C 7.894531 -16.273438 7.742188 -14.234375 7.859375 -12.046875 C 7.972656 -9.867188 8.335938 -7.847656 8.953125 -5.984375 C 9.578125 -4.117188 10.46875 -2.570312 11.625 -1.34375 C 12.789062 -0.113281 14.125 0.5 15.625 0.5 C 17.351562 0.53125 18.71875 -0.0664062 19.71875 -1.296875 C 20.71875 -2.523438 21.179688 -3.957031 21.109375 -5.59375 Z M 21.109375 -20.0625 "/></g></g></g></g><g fill="#000000" fill-opacity="1"><g transform="translate(240.158202, 40.438907)"><g><path d="M 10.734375 -24.96875 L 10.734375 -20.421875 C 10.835938 -20.484375 11.285156 -20.765625 12.078125 -21.265625 C 12.878906 -21.765625 13.382812 -22.070312 13.59375 -22.1875 C 13.8125 -22.300781 14.269531 -22.554688 14.96875 -22.953125 C 15.675781 -23.359375 16.210938 -23.632812 16.578125 -23.78125 C 16.941406 -23.9375 17.414062 -24.117188 18 -24.328125 C 18.582031 -24.546875 19.128906 -24.695312 19.640625 -24.78125 C 20.160156 -24.863281 20.671875 -24.925781 21.171875 -24.96875 C 22.265625 -24.96875 23.25 -24.773438 24.125 -24.390625 C 25.007812 -24.003906 25.75 -23.300781 26.34375 -22.28125 C 26.945312 -21.269531 27.25 -20 27.25 -18.46875 L 27.25 -6.390625 C 27.25 -5.523438 27.28125 -4.816406 27.34375 -4.265625 C 27.414062 -3.710938 27.550781 -3.085938 27.75 -2.390625 C 27.957031 -1.691406 28.316406 -1.144531 28.828125 -0.75 C 29.347656 -0.351562 29.988281 -0.101562 30.75 0 L 17.328125 0 C 18.117188 -0.101562 18.765625 -0.351562 19.265625 -0.75 C 19.765625 -1.144531 20.113281 -1.691406 20.3125 -2.390625 C 20.519531 -3.085938 20.65625 -3.710938 20.71875 -4.265625 C 20.78125 -4.816406 20.8125 -5.523438 20.8125 -6.390625 L 20.8125 -18.015625 C 20.851562 -19.585938 20.539062 -20.890625 19.875 -21.921875 C 19.207031 -22.953125 18.140625 -23.347656 16.671875 -23.109375 C 15.472656 -22.910156 13.644531 -22.015625 11.1875 -20.421875 C 10.988281 -20.285156 10.835938 -20.1875 10.734375 -20.125 L 10.734375 -6.390625 C 10.734375 -5.828125 10.738281 -5.359375 10.75 -4.984375 C 10.769531 -4.617188 10.820312 -4.171875 10.90625 -3.640625 C 10.988281 -3.109375 11.101562 -2.664062 11.25 -2.3125 C 11.40625 -1.96875 11.609375 -1.613281 11.859375 -1.25 C 12.109375 -0.882812 12.429688 -0.597656 12.828125 -0.390625 C 13.222656 -0.191406 13.691406 -0.0625 14.234375 0 L 0.796875 0 C 1.597656 -0.101562 2.25 -0.351562 2.75 -0.75 C 3.25 -1.144531 3.601562 -1.691406 3.8125 -2.390625 C 4.03125 -3.085938 4.164062 -3.710938 4.21875 -4.265625 C 4.269531 -4.816406 4.296875 -5.523438 4.296875 -6.390625 L 4.296875 -14.484375 C 4.296875 -14.816406 4.257812 -15.164062 4.1875 -15.53125 C 4.125 -15.894531 4 -16.34375 3.8125 -16.875 C 3.632812 -17.40625 3.328125 -17.898438 2.890625 -18.359375 C 2.460938 -18.828125 1.914062 -19.179688 1.25 -19.421875 C 1.582031 -19.617188 2.9375 -20.40625 5.3125 -21.78125 C 7.695312 -23.164062 9.503906 -24.226562 10.734375 -24.96875 Z M 10.734375 -24.96875 "/></g></g></g><g fill="#000000" fill-opacity="1"><g transform="translate(270.663754, 40.438907)"><g><path d="M 29.40625 0 C 28.34375 0 27.5625 -0.00390625 27.0625 -0.015625 C 26.5625 -0.0351562 25.800781 -0.09375 24.78125 -0.1875 C 23.769531 -0.289062 22.914062 -0.484375 22.21875 -0.765625 C 21.519531 -1.054688 20.953125 -1.429688 20.515625 -1.890625 C 18.785156 -0.0664062 16.273438 0.84375 12.984375 0.84375 C 11.546875 0.84375 10.15625 0.632812 8.8125 0.21875 C 7.46875 -0.195312 6.21875 -0.8125 5.0625 -1.625 C 3.914062 -2.4375 2.992188 -3.539062 2.296875 -4.9375 C 1.597656 -6.332031 1.25 -7.914062 1.25 -9.6875 C 1.28125 -12.050781 1.9375 -13.988281 3.21875 -15.5 C 4.5 -17.007812 6.054688 -17.972656 7.890625 -18.390625 C 9.722656 -18.804688 11.6875 -18.789062 13.78125 -18.34375 C 15.875 -17.894531 17.769531 -17.039062 19.46875 -15.78125 L 19.46875 -17.078125 C 19.46875 -17.972656 19.382812 -18.851562 19.21875 -19.71875 C 19.050781 -20.582031 18.789062 -21.445312 18.4375 -22.3125 C 18.09375 -23.175781 17.578125 -23.898438 16.890625 -24.484375 C 16.210938 -25.066406 15.410156 -25.375 14.484375 -25.40625 C 13.316406 -25.507812 12.382812 -25.195312 11.6875 -24.46875 C 12.414062 -24.5 13.046875 -24.265625 13.578125 -23.765625 C 14.109375 -23.265625 14.375 -22.664062 14.375 -21.96875 C 14.375 -21.300781 14.132812 -20.722656 13.65625 -20.234375 C 13.175781 -19.753906 12.59375 -19.515625 11.90625 -19.515625 C 11.226562 -19.515625 10.644531 -19.753906 10.15625 -20.234375 C 9.675781 -20.722656 9.4375 -21.300781 9.4375 -21.96875 C 9.46875 -23.394531 10.445312 -24.472656 12.375 -25.203125 C 14.769531 -26.078125 17.25 -26.0625 19.8125 -25.15625 C 23.082031 -23.957031 25.03125 -21.613281 25.65625 -18.125 C 25.820312 -17.351562 25.90625 -16.550781 25.90625 -15.71875 L 25.90625 -6.59375 C 25.90625 -5.757812 25.929688 -5.050781 25.984375 -4.46875 C 26.035156 -3.882812 26.164062 -3.222656 26.375 -2.484375 C 26.59375 -1.753906 26.953125 -1.179688 27.453125 -0.765625 C 27.953125 -0.359375 28.601562 -0.101562 29.40625 0 Z M 19.46875 -14.375 C 19.164062 -14.976562 18.691406 -15.5625 18.046875 -16.125 C 17.398438 -16.6875 16.773438 -17.085938 16.171875 -17.328125 C 14.109375 -18.191406 12.21875 -17.957031 10.5 -16.625 C 8.789062 -15.289062 7.820312 -13.296875 7.59375 -10.640625 C 7.457031 -9.066406 7.601562 -7.472656 8.03125 -5.859375 C 8.46875 -4.242188 9.257812 -2.8125 10.40625 -1.5625 C 11.550781 -0.320312 12.925781 0.332031 14.53125 0.40625 C 16.1875 0.46875 17.4375 -0.125 18.28125 -1.375 C 19.132812 -2.625 19.53125 -4.097656 19.46875 -5.796875 Z M 19.46875 -14.375 "/></g></g></g><g fill="#000000" fill-opacity="1"><g transform="translate(300.020998, 40.438907)"><g><path d="M 1.25 -19.421875 C 5.539062 -21.910156 8.703125 -23.757812 10.734375 -24.96875 L 10.734375 -6.390625 C 10.734375 -5.523438 10.765625 -4.816406 10.828125 -4.265625 C 10.898438 -3.710938 11.035156 -3.085938 11.234375 -2.390625 C 11.429688 -1.691406 11.785156 -1.144531 12.296875 -0.75 C 12.816406 -0.351562 13.460938 -0.101562 14.234375 0 L 0.796875 0 C 1.597656 -0.101562 2.25 -0.351562 2.75 -0.75 C 3.25 -1.144531 3.601562 -1.691406 3.8125 -2.390625 C 4.03125 -3.085938 4.164062 -3.710938 4.21875 -4.265625 C 4.269531 -4.816406 4.296875 -5.523438 4.296875 -6.390625 L 4.296875 -14.484375 C 4.296875 -14.816406 4.257812 -15.164062 4.1875 -15.53125 C 4.125 -15.894531 4 -16.34375 3.8125 -16.875 C 3.632812 -17.40625 3.328125 -17.898438 2.890625 -18.359375 C 2.460938 -18.828125 1.914062 -19.179688 1.25 -19.421875 Z M 4.765625 -26.46875 C 4.085938 -27.15625 3.75 -27.988281 3.75 -28.96875 C 3.75 -29.957031 4.085938 -30.800781 4.765625 -31.5 C 5.453125 -32.195312 6.285156 -32.546875 7.265625 -32.546875 C 8.242188 -32.546875 9.082031 -32.195312 9.78125 -31.5 C 10.476562 -30.800781 10.828125 -29.957031 10.828125 -28.96875 C 10.828125 -27.988281 10.476562 -27.15625 9.78125 -26.46875 C 9.082031 -25.789062 8.242188 -25.453125 7.265625 -25.453125 C 6.285156 -25.453125 5.453125 -25.789062 4.765625 -26.46875 Z M 4.765625 -26.46875 "/></g></g></g><g clip-path="url(#cec9df6c15)"><g fill="#000000" fill-opacity="1"><g transform="translate(314.8494, 40.438907)"><g><path d="M 4.046875 -6.390625 C 4.046875 -15.941406 4.046875 -23.492188 4.046875 -29.046875 C 4.046875 -29.378906 4.007812 -29.726562 3.9375 -30.09375 C 3.875 -30.46875 3.75 -30.921875 3.5625 -31.453125 C 3.382812 -31.984375 3.078125 -32.476562 2.640625 -32.9375 C 2.210938 -33.40625 1.664062 -33.757812 1 -34 C 1.632812 -34.363281 3.070312 -35.191406 5.3125 -36.484375 C 7.5625 -37.785156 9.285156 -38.800781 10.484375 -39.53125 L 10.484375 -6.390625 C 10.484375 -5.523438 10.515625 -4.816406 10.578125 -4.265625 C 10.648438 -3.710938 10.785156 -3.085938 10.984375 -2.390625 C 11.179688 -1.691406 11.535156 -1.144531 12.046875 -0.75 C 12.566406 -0.351562 13.210938 -0.101562 13.984375 0 L 0.546875 0 C 1.347656 -0.101562 2 -0.351562 2.5 -0.75 C 3 -1.144531 3.351562 -1.691406 3.5625 -2.390625 C 3.78125 -3.085938 3.914062 -3.710938 3.96875 -4.265625 C 4.019531 -4.816406 4.046875 -5.523438 4.046875 -6.390625 Z M 4.046875 -6.390625 "/></g></g></g></g><g fill="#000000" fill-opacity="1"><g transform="translate(329.428161, 40.438907)"><g><path d="M 12.328125 -25.765625 C 13.554688 -25.859375 14.84375 -25.695312 16.1875 -25.28125 C 17.539062 -24.863281 18.734375 -24.15625 19.765625 -23.15625 C 20.796875 -22.164062 21.328125 -21.003906 21.359375 -19.671875 C 21.359375 -18.804688 21.132812 -18.097656 20.6875 -17.546875 C 20.238281 -16.992188 19.597656 -16.71875 18.765625 -16.71875 C 18.035156 -16.71875 17.410156 -16.972656 16.890625 -17.484375 C 16.378906 -18.003906 16.125 -18.625 16.125 -19.34375 C 16.125 -20.0625 16.378906 -20.675781 16.890625 -21.1875 C 17.410156 -21.707031 18.035156 -21.96875 18.765625 -21.96875 C 19.734375 -21.96875 20.46875 -21.550781 20.96875 -20.71875 C 20.738281 -21.644531 20.164062 -22.484375 19.25 -23.234375 C 18.332031 -23.984375 17.273438 -24.507812 16.078125 -24.8125 C 14.878906 -25.113281 13.703125 -25.253906 12.546875 -25.234375 C 11.398438 -25.210938 10.394531 -24.867188 9.53125 -24.203125 C 8.664062 -23.546875 8.164062 -22.632812 8.03125 -21.46875 C 8 -20.300781 8.265625 -19.304688 8.828125 -18.484375 C 9.398438 -17.671875 10.144531 -17.054688 11.0625 -16.640625 C 11.976562 -16.234375 13 -15.867188 14.125 -15.546875 C 15.257812 -15.234375 16.40625 -14.898438 17.5625 -14.546875 C 18.726562 -14.203125 19.796875 -13.78125 20.765625 -13.28125 C 21.734375 -12.78125 22.53125 -12.054688 23.15625 -11.109375 C 23.789062 -10.160156 24.144531 -9.019531 24.21875 -7.6875 C 24.25 -6.1875 23.976562 -4.867188 23.40625 -3.734375 C 22.84375 -2.609375 22.03125 -1.71875 20.96875 -1.0625 C 19.90625 -0.414062 18.707031 0.0625 17.375 0.375 C 16.039062 0.6875 14.59375 0.84375 13.03125 0.84375 C 11.03125 0.84375 9.289062 0.5625 7.8125 0 C 6.332031 -0.5625 5.234375 -1.257812 4.515625 -2.09375 C 3.796875 -2.925781 3.269531 -3.820312 2.9375 -4.78125 C 2.613281 -5.75 2.5 -6.65625 2.59375 -7.5 C 2.695312 -8.351562 2.914062 -9.066406 3.25 -9.640625 C 3.75 -10.535156 4.492188 -10.984375 5.484375 -10.984375 C 6.222656 -10.984375 6.847656 -10.734375 7.359375 -10.234375 C 7.878906 -9.734375 8.140625 -9.117188 8.140625 -8.390625 C 8.140625 -7.648438 7.890625 -7.03125 7.390625 -6.53125 C 6.890625 -6.039062 6.253906 -5.796875 5.484375 -5.796875 C 4.617188 -5.796875 3.925781 -6.164062 3.40625 -6.90625 C 2.894531 -7.65625 2.890625 -8.546875 3.390625 -9.578125 C 2.765625 -8.210938 2.707031 -6.722656 3.21875 -5.109375 C 3.738281 -3.503906 4.765625 -2.179688 6.296875 -1.140625 C 7.921875 -0.015625 10.195312 0.5 13.125 0.40625 C 14.6875 0.332031 15.992188 -0.0351562 17.046875 -0.703125 C 18.097656 -1.367188 18.765625 -2.15625 19.046875 -3.0625 C 19.328125 -3.976562 19.25 -4.925781 18.8125 -5.90625 C 18.382812 -6.894531 17.585938 -7.722656 16.421875 -8.390625 C 15.722656 -8.785156 14.734375 -9.179688 13.453125 -9.578125 C 12.171875 -9.984375 11.003906 -10.367188 9.953125 -10.734375 C 8.910156 -11.097656 7.863281 -11.5625 6.8125 -12.125 C 5.757812 -12.695312 4.925781 -13.472656 4.3125 -14.453125 C 3.695312 -15.429688 3.375 -16.601562 3.34375 -17.96875 C 3.40625 -19.238281 3.695312 -20.367188 4.21875 -21.359375 C 4.738281 -22.359375 5.429688 -23.15625 6.296875 -23.75 C 7.160156 -24.351562 8.097656 -24.820312 9.109375 -25.15625 C 10.128906 -25.488281 11.203125 -25.691406 12.328125 -25.765625 Z M 12.328125 -25.765625 "/></g></g></g></g></g><g transform="matrix(1, 0, 0, 1, 284, 64)"><g clip-path="url(#17f2244c0a)"><g fill="#545454" fill-opacity="1"><g transform="translate(2.356699, 20.728781)"><g><path d="M 7.390625 -11.953125 C 7.035156 -11.953125 6.703125 -11.863281 6.390625 -11.6875 C 6.078125 -11.507812 5.804688 -11.273438 5.578125 -10.984375 C 5.347656 -10.691406 5.164062 -10.359375 5.03125 -9.984375 C 4.894531 -9.609375 4.828125 -9.21875 4.828125 -8.8125 L 4.828125 -2.40625 C 4.828125 -1.800781 4.988281 -1.335938 5.3125 -1.015625 C 5.644531 -0.691406 6.082031 -0.53125 6.625 -0.53125 C 7.15625 -0.53125 7.628906 -0.695312 8.046875 -1.03125 C 8.460938 -1.375 8.804688 -1.835938 9.078125 -2.421875 C 9.359375 -3.015625 9.566406 -3.695312 9.703125 -4.46875 C 9.847656 -5.238281 9.921875 -6.050781 9.921875 -6.90625 C 9.921875 -8.550781 9.695312 -9.800781 9.25 -10.65625 C 8.8125 -11.519531 8.191406 -11.953125 7.390625 -11.953125 Z M 8.703125 -13.578125 C 10.085938 -13.578125 11.179688 -13.035156 11.984375 -11.953125 C 12.796875 -10.867188 13.203125 -9.367188 13.203125 -7.453125 C 13.203125 -6.203125 13.03125 -5.097656 12.6875 -4.140625 C 12.34375 -3.191406 11.875 -2.394531 11.28125 -1.75 C 10.695312 -1.101562 10.019531 -0.609375 9.25 -0.265625 C 8.476562 0.0664062 7.664062 0.234375 6.8125 0.234375 C 6.414062 0.234375 6.050781 0.203125 5.71875 0.140625 C 5.394531 0.078125 5.082031 0.015625 4.78125 -0.046875 C 4.476562 -0.109375 4.179688 -0.164062 3.890625 -0.21875 C 3.609375 -0.28125 3.304688 -0.3125 2.984375 -0.3125 C 2.628906 -0.3125 2.285156 -0.273438 1.953125 -0.203125 C 1.628906 -0.140625 1.265625 -0.0625 0.859375 0.03125 C 0.804688 0.0390625 0.753906 0.0195312 0.703125 -0.03125 C 0.660156 -0.0820312 0.640625 -0.140625 0.640625 -0.203125 C 0.640625 -0.273438 0.648438 -0.351562 0.671875 -0.4375 C 0.703125 -0.519531 0.753906 -0.570312 0.828125 -0.59375 C 1.109375 -0.675781 1.3125 -0.859375 1.4375 -1.140625 C 1.5625 -1.429688 1.625 -1.867188 1.625 -2.453125 L 1.625 -15.984375 C 1.625 -16.585938 1.507812 -16.992188 1.28125 -17.203125 C 1.050781 -17.421875 0.578125 -17.515625 -0.140625 -17.484375 C -0.191406 -17.460938 -0.234375 -17.523438 -0.265625 -17.671875 C -0.296875 -17.828125 -0.253906 -17.921875 -0.140625 -17.953125 C 0.734375 -18.046875 1.515625 -18.171875 2.203125 -18.328125 C 2.898438 -18.492188 3.609375 -18.707031 4.328125 -18.96875 C 4.453125 -19.03125 4.566406 -19.03125 4.671875 -18.96875 C 4.773438 -18.914062 4.828125 -18.828125 4.828125 -18.703125 L 4.828125 -11.390625 L 4.96875 -11.390625 C 5.269531 -11.960938 5.722656 -12.46875 6.328125 -12.90625 C 6.929688 -13.351562 7.722656 -13.578125 8.703125 -13.578125 Z M 8.703125 -13.578125 "/></g></g></g><g clip-path="url(#f8a0ac8f50)"><g fill="#545454" fill-opacity="1"><g transform="translate(15.034396, 20.728781)"><g><path d="M 8 -3.625 L 11 -11.15625 C 11.125 -11.457031 11.164062 -11.707031 11.125 -11.90625 C 11.09375 -12.113281 11.019531 -12.285156 10.90625 -12.421875 C 10.789062 -12.554688 10.640625 -12.660156 10.453125 -12.734375 C 10.265625 -12.804688 10.070312 -12.847656 9.875 -12.859375 C 9.78125 -12.878906 9.734375 -12.957031 9.734375 -13.09375 C 9.734375 -13.238281 9.78125 -13.3125 9.875 -13.3125 L 13.421875 -13.3125 C 13.515625 -13.3125 13.5625 -13.238281 13.5625 -13.09375 C 13.5625 -12.957031 13.515625 -12.878906 13.421875 -12.859375 C 13.046875 -12.804688 12.742188 -12.65625 12.515625 -12.40625 C 12.285156 -12.15625 12.054688 -11.753906 11.828125 -11.203125 L 6.625 1.546875 C 6.050781 2.878906 5.457031 3.847656 4.84375 4.453125 C 4.226562 5.054688 3.519531 5.359375 2.71875 5.359375 C 2.332031 5.359375 1.984375 5.289062 1.671875 5.15625 C 1.359375 5.03125 1.09375 4.851562 0.875 4.625 C 0.664062 4.40625 0.503906 4.160156 0.390625 3.890625 C 0.285156 3.628906 0.234375 3.363281 0.234375 3.09375 C 0.234375 2.6875 0.347656 2.363281 0.578125 2.125 C 0.816406 1.882812 1.085938 1.765625 1.390625 1.765625 C 1.710938 1.765625 1.992188 1.890625 2.234375 2.140625 C 2.484375 2.390625 2.609375 2.742188 2.609375 3.203125 C 2.609375 3.472656 2.671875 3.695312 2.796875 3.875 C 2.921875 4.050781 3.117188 4.140625 3.390625 4.140625 C 3.796875 4.140625 4.222656 3.914062 4.671875 3.46875 C 5.128906 3.019531 5.582031 2.226562 6.03125 1.09375 L 6.296875 0.40625 L 1.390625 -11.3125 C 1.171875 -11.832031 0.953125 -12.207031 0.734375 -12.4375 C 0.515625 -12.664062 0.207031 -12.804688 -0.1875 -12.859375 C -0.269531 -12.878906 -0.3125 -12.957031 -0.3125 -13.09375 C -0.3125 -13.238281 -0.269531 -13.3125 -0.1875 -13.3125 L 6.109375 -13.3125 C 6.203125 -13.3125 6.25 -13.238281 6.25 -13.09375 C 6.25 -12.957031 6.203125 -12.878906 6.109375 -12.859375 C 5.910156 -12.847656 5.710938 -12.8125 5.515625 -12.75 C 5.328125 -12.6875 5.164062 -12.59375 5.03125 -12.46875 C 4.894531 -12.351562 4.804688 -12.191406 4.765625 -11.984375 C 4.734375 -11.785156 4.78125 -11.535156 4.90625 -11.234375 Z M 8 -3.625 "/></g></g></g></g><g fill="#545454" fill-opacity="1"><g transform="translate(28.486146, 20.728781)"><g/></g></g><g clip-path="url(#5eba1e0893)"><g fill="#545454" fill-opacity="1"><g transform="translate(32.996751, 20.728781)"><g><path d="M 3.234375 -19.515625 C 2.585938 -19.515625 2.082031 -19.300781 1.71875 -18.875 C 1.351562 -18.457031 1.171875 -17.945312 1.171875 -17.34375 C 1.171875 -16.738281 1.351562 -16.222656 1.71875 -15.796875 C 2.082031 -15.367188 2.585938 -15.15625 3.234375 -15.15625 C 3.867188 -15.15625 4.367188 -15.367188 4.734375 -15.796875 C 5.097656 -16.222656 5.28125 -16.738281 5.28125 -17.34375 C 5.28125 -17.945312 5.097656 -18.457031 4.734375 -18.875 C 4.367188 -19.300781 3.867188 -19.515625 3.234375 -19.515625 Z M 5.09375 1.46875 C 5.09375 2.039062 4.984375 2.578125 4.765625 3.078125 C 4.546875 3.585938 4.226562 4.03125 3.8125 4.40625 C 3.40625 4.78125 2.914062 5.078125 2.34375 5.296875 C 1.78125 5.515625 1.148438 5.625 0.453125 5.625 C -0.429688 5.625 -1.128906 5.453125 -1.640625 5.109375 C -2.148438 4.765625 -2.40625 4.304688 -2.40625 3.734375 C -2.40625 3.328125 -2.28125 2.972656 -2.03125 2.671875 C -1.78125 2.378906 -1.441406 2.234375 -1.015625 2.234375 C -0.640625 2.234375 -0.316406 2.367188 -0.046875 2.640625 C 0.210938 2.910156 0.34375 3.300781 0.34375 3.8125 C 0.34375 4.132812 0.398438 4.394531 0.515625 4.59375 C 0.628906 4.789062 0.785156 4.890625 0.984375 4.890625 C 1.234375 4.890625 1.445312 4.738281 1.625 4.4375 C 1.800781 4.144531 1.890625 3.71875 1.890625 3.15625 L 1.890625 -10.625 C 1.890625 -11.25 1.769531 -11.65625 1.53125 -11.84375 C 1.289062 -12.039062 0.832031 -12.128906 0.15625 -12.109375 C 0.0703125 -12.097656 0.0195312 -12.160156 0 -12.296875 C -0.0195312 -12.441406 0.03125 -12.53125 0.15625 -12.5625 C 1.007812 -12.65625 1.78125 -12.78125 2.46875 -12.9375 C 3.164062 -13.101562 3.878906 -13.316406 4.609375 -13.578125 C 4.734375 -13.628906 4.84375 -13.628906 4.9375 -13.578125 C 5.039062 -13.523438 5.09375 -13.4375 5.09375 -13.3125 Z M 5.09375 1.46875 "/></g></g></g></g><g fill="#545454" fill-opacity="1"><g transform="translate(38.654994, 20.728781)"><g><path d="M 13 -1.234375 C 13 -0.867188 13.148438 -0.660156 13.453125 -0.609375 C 13.753906 -0.554688 14.09375 -0.503906 14.46875 -0.453125 C 14.550781 -0.429688 14.59375 -0.347656 14.59375 -0.203125 C 14.59375 -0.0664062 14.550781 0 14.46875 0 L 8.296875 0 C 8.210938 0 8.171875 -0.0664062 8.171875 -0.203125 C 8.171875 -0.347656 8.210938 -0.429688 8.296875 -0.453125 C 8.492188 -0.484375 8.679688 -0.503906 8.859375 -0.515625 C 9.035156 -0.523438 9.191406 -0.550781 9.328125 -0.59375 C 9.472656 -0.644531 9.585938 -0.710938 9.671875 -0.796875 C 9.753906 -0.890625 9.796875 -1.015625 9.796875 -1.171875 L 9.796875 -9.546875 C 9.796875 -10.367188 9.601562 -10.972656 9.21875 -11.359375 C 8.832031 -11.753906 8.382812 -11.953125 7.875 -11.953125 C 7.5 -11.953125 7.160156 -11.859375 6.859375 -11.671875 C 6.554688 -11.484375 6.289062 -11.238281 6.0625 -10.9375 C 5.832031 -10.632812 5.65625 -10.289062 5.53125 -9.90625 C 5.40625 -9.53125 5.34375 -9.140625 5.34375 -8.734375 L 5.34375 -1.140625 C 5.34375 -0.828125 5.492188 -0.644531 5.796875 -0.59375 C 6.097656 -0.550781 6.441406 -0.503906 6.828125 -0.453125 C 6.921875 -0.429688 6.96875 -0.347656 6.96875 -0.203125 C 6.96875 -0.0664062 6.921875 0 6.828125 0 L 0.640625 0 C 0.546875 0 0.5 -0.0664062 0.5 -0.203125 C 0.5 -0.347656 0.546875 -0.429688 0.640625 -0.453125 C 1.035156 -0.503906 1.382812 -0.554688 1.6875 -0.609375 C 1.988281 -0.660156 2.140625 -0.859375 2.140625 -1.203125 L 2.140625 -15.984375 C 2.140625 -16.566406 2.019531 -16.96875 1.78125 -17.1875 C 1.550781 -17.414062 1.082031 -17.515625 0.375 -17.484375 C 0.320312 -17.460938 0.28125 -17.519531 0.25 -17.65625 C 0.226562 -17.800781 0.269531 -17.894531 0.375 -17.9375 C 1.25 -18.019531 2.03125 -18.140625 2.71875 -18.296875 C 3.414062 -18.460938 4.117188 -18.679688 4.828125 -18.953125 C 4.953125 -19.003906 5.066406 -19.003906 5.171875 -18.953125 C 5.285156 -18.898438 5.34375 -18.8125 5.34375 -18.6875 L 5.34375 -11.390625 L 5.4375 -11.390625 C 5.707031 -11.929688 6.15625 -12.429688 6.78125 -12.890625 C 7.40625 -13.347656 8.207031 -13.578125 9.1875 -13.578125 C 9.726562 -13.578125 10.234375 -13.488281 10.703125 -13.3125 C 11.179688 -13.132812 11.585938 -12.882812 11.921875 -12.5625 C 12.265625 -12.25 12.53125 -11.863281 12.71875 -11.40625 C 12.90625 -10.957031 13 -10.445312 13 -9.875 Z M 13 -1.234375 "/></g></g></g><g fill="#545454" fill-opacity="1"><g transform="translate(52.800668, 20.728781)"><g><path d="M 8.9375 -9.796875 C 8.9375 -10.203125 8.882812 -10.585938 8.78125 -10.953125 C 8.675781 -11.316406 8.519531 -11.632812 8.3125 -11.90625 C 8.101562 -12.1875 7.859375 -12.410156 7.578125 -12.578125 C 7.296875 -12.753906 6.976562 -12.84375 6.625 -12.84375 C 6 -12.84375 5.445312 -12.566406 4.96875 -12.015625 C 4.488281 -11.472656 4.125 -10.734375 3.875 -9.796875 Z M 3.734375 -9.046875 C 3.628906 -8.460938 3.578125 -7.832031 3.578125 -7.15625 C 3.578125 -5.300781 3.925781 -3.863281 4.625 -2.84375 C 5.332031 -1.820312 6.328125 -1.3125 7.609375 -1.3125 C 8.390625 -1.3125 9.050781 -1.472656 9.59375 -1.796875 C 10.132812 -2.128906 10.554688 -2.484375 10.859375 -2.859375 C 10.929688 -2.984375 11.019531 -2.992188 11.125 -2.890625 C 11.226562 -2.796875 11.265625 -2.710938 11.234375 -2.640625 C 11.054688 -2.285156 10.804688 -1.929688 10.484375 -1.578125 C 10.160156 -1.234375 9.773438 -0.921875 9.328125 -0.640625 C 8.890625 -0.367188 8.390625 -0.148438 7.828125 0.015625 C 7.265625 0.179688 6.65625 0.265625 6 0.265625 C 5.144531 0.265625 4.367188 0.113281 3.671875 -0.1875 C 2.984375 -0.488281 2.398438 -0.921875 1.921875 -1.484375 C 1.441406 -2.054688 1.066406 -2.75 0.796875 -3.5625 C 0.535156 -4.375 0.40625 -5.285156 0.40625 -6.296875 C 0.40625 -7.367188 0.554688 -8.351562 0.859375 -9.25 C 1.160156 -10.144531 1.585938 -10.910156 2.140625 -11.546875 C 2.703125 -12.191406 3.375 -12.691406 4.15625 -13.046875 C 4.945312 -13.398438 5.832031 -13.578125 6.8125 -13.578125 C 7.425781 -13.578125 8 -13.5 8.53125 -13.34375 C 9.070312 -13.195312 9.53125 -12.992188 9.90625 -12.734375 C 10.289062 -12.484375 10.59375 -12.175781 10.8125 -11.8125 C 11.039062 -11.457031 11.15625 -11.078125 11.15625 -10.671875 C 11.15625 -10.210938 11.003906 -9.828125 10.703125 -9.515625 C 10.398438 -9.203125 9.960938 -9.046875 9.390625 -9.046875 Z M 3.734375 -9.046875 "/></g></g></g><g fill="#545454" fill-opacity="1"><g transform="translate(64.143921, 20.728781)"><g><path d="M 12.96875 -1.234375 C 12.96875 -0.867188 13.117188 -0.660156 13.421875 -0.609375 C 13.722656 -0.554688 14.070312 -0.503906 14.46875 -0.453125 C 14.550781 -0.429688 14.59375 -0.347656 14.59375 -0.203125 C 14.59375 -0.0664062 14.550781 0 14.46875 0 L 8.296875 0 C 8.210938 0 8.171875 -0.0664062 8.171875 -0.203125 C 8.171875 -0.347656 8.210938 -0.429688 8.296875 -0.453125 C 8.492188 -0.484375 8.675781 -0.503906 8.84375 -0.515625 C 9.007812 -0.523438 9.164062 -0.550781 9.3125 -0.59375 C 9.457031 -0.644531 9.566406 -0.710938 9.640625 -0.796875 C 9.722656 -0.890625 9.765625 -1.015625 9.765625 -1.171875 L 9.765625 -9.546875 C 9.765625 -10.367188 9.578125 -10.972656 9.203125 -11.359375 C 8.828125 -11.753906 8.382812 -11.953125 7.875 -11.953125 C 7.5 -11.953125 7.160156 -11.859375 6.859375 -11.671875 C 6.554688 -11.484375 6.289062 -11.238281 6.0625 -10.9375 C 5.832031 -10.632812 5.65625 -10.289062 5.53125 -9.90625 C 5.40625 -9.53125 5.34375 -9.140625 5.34375 -8.734375 L 5.34375 -1.140625 C 5.34375 -0.828125 5.492188 -0.644531 5.796875 -0.59375 C 6.097656 -0.550781 6.4375 -0.503906 6.8125 -0.453125 C 6.894531 -0.429688 6.9375 -0.347656 6.9375 -0.203125 C 6.9375 -0.0664062 6.894531 0 6.8125 0 L 0.640625 0 C 0.546875 0 0.5 -0.0664062 0.5 -0.203125 C 0.5 -0.347656 0.546875 -0.429688 0.640625 -0.453125 C 1.035156 -0.503906 1.382812 -0.554688 1.6875 -0.609375 C 1.988281 -0.660156 2.140625 -0.859375 2.140625 -1.203125 L 2.140625 -10.40625 C 2.140625 -10.976562 2.019531 -11.367188 1.78125 -11.578125 C 1.550781 -11.796875 1.082031 -11.882812 0.375 -11.84375 C 0.320312 -11.832031 0.28125 -11.894531 0.25 -12.03125 C 0.226562 -12.175781 0.269531 -12.265625 0.375 -12.296875 C 1.25 -12.390625 2.03125 -12.515625 2.71875 -12.671875 C 3.414062 -12.835938 4.117188 -13.050781 4.828125 -13.3125 C 4.953125 -13.363281 5.066406 -13.363281 5.171875 -13.3125 C 5.285156 -13.257812 5.34375 -13.171875 5.34375 -13.046875 L 5.34375 -11.375 L 5.4375 -11.375 C 5.582031 -11.632812 5.757812 -11.894531 5.96875 -12.15625 C 6.1875 -12.425781 6.453125 -12.664062 6.765625 -12.875 C 7.078125 -13.082031 7.429688 -13.25 7.828125 -13.375 C 8.234375 -13.507812 8.6875 -13.578125 9.1875 -13.578125 C 9.726562 -13.578125 10.226562 -13.488281 10.6875 -13.3125 C 11.15625 -13.132812 11.554688 -12.882812 11.890625 -12.5625 C 12.234375 -12.25 12.5 -11.863281 12.6875 -11.40625 C 12.875 -10.957031 12.96875 -10.445312 12.96875 -9.875 Z M 12.96875 -1.234375 "/></g></g></g></g></g></svg>