<svg xmlns="http://www.w3.org/2000/svg" xmlns:xlink="http://www.w3.org/1999/xlink" width="500" zoomAndPan="magnify" viewBox="0 0 375 120" height="150" preserveAspectRatio="xMidYMid meet" version="1.0"><defs><g/><clipPath id="808517915b"><path d="M 0.28125 9 L 43 9 L 43 52 L 0.28125 52 Z M 0.28125 9 " clip-rule="nonzero"/></clipPath><clipPath id="480892178f"><rect x="0" width="350" y="0" height="53"/></clipPath><clipPath id="8902b49a1b"><rect x="0" width="64" y="0" height="22"/></clipPath></defs><g transform="matrix(1, 0, 0, 1, 11, 25)"><g clip-path="url(#480892178f)"><g clip-path="url(#808517915b)"><g fill="#000000" fill-opacity="1"><g transform="translate(15.003804, 39.787511)"><g><path d="M 21.78125 -28.90625 C 22.414062 -29.539062 23.179688 -29.859375 24.078125 -29.859375 C 24.972656 -29.859375 25.738281 -29.539062 26.375 -28.90625 C 27.007812 -28.269531 27.328125 -27.5 27.328125 -26.59375 C 27.328125 -25.6875 27.007812 -24.914062 26.375 -24.28125 C 25.738281 -23.644531 24.972656 -23.328125 24.078125 -23.328125 C 23.179688 -23.328125 22.414062 -23.644531 21.78125 -24.28125 C 21.144531 -24.914062 20.828125 -25.6875 20.828125 -26.59375 C 20.828125 -27.5 21.144531 -28.269531 21.78125 -28.90625 Z M 13.421875 -25.234375 C 14.722656 -25.234375 15.984375 -25.082031 17.203125 -24.78125 C 18.421875 -24.488281 19.566406 -24.039062 20.640625 -23.4375 C 21.710938 -22.84375 22.582031 -22 23.25 -20.90625 C 23.914062 -19.820312 24.25 -18.578125 24.25 -17.171875 C 24.25 -16.003906 24.03125 -14.957031 23.59375 -14.03125 C 23.15625 -13.101562 22.578125 -12.335938 21.859375 -11.734375 C 21.140625 -11.128906 20.300781 -10.625 19.34375 -10.21875 C 18.382812 -9.8125 17.414062 -9.519531 16.4375 -9.34375 C 15.46875 -9.164062 14.460938 -9.078125 13.421875 -9.078125 C 10.585938 -9.078125 8.226562 -9.675781 6.34375 -10.875 C 5.46875 -10.226562 4.90625 -9.382812 4.65625 -8.34375 C 4.414062 -7.300781 4.546875 -6.363281 5.046875 -5.53125 C 5.554688 -4.707031 6.328125 -4.28125 7.359375 -4.25 C 8.242188 -4.175781 9.238281 -4.332031 10.34375 -4.71875 C 11.445312 -5.113281 12.453125 -5.546875 13.359375 -6.015625 C 14.273438 -6.492188 15.40625 -6.863281 16.75 -7.125 C 18.101562 -7.382812 19.484375 -7.398438 20.890625 -7.171875 C 22.285156 -6.910156 23.503906 -6.203125 24.546875 -5.046875 C 25.585938 -3.890625 26.226562 -2.546875 26.46875 -1.015625 C 26.71875 0.503906 26.53125 2.09375 25.90625 3.75 C 25.125 5.507812 23.847656 6.84375 22.078125 7.75 C 20.304688 8.664062 18.3125 9.253906 16.09375 9.515625 C 14.375 9.710938 12.703125 9.613281 11.078125 9.21875 C 9.453125 8.832031 7.988281 8.28125 6.6875 7.5625 C 5.382812 6.84375 4.097656 6.117188 2.828125 5.390625 C 1.554688 4.660156 0.160156 4.039062 -1.359375 3.53125 C -2.890625 3.03125 -4.453125 2.8125 -6.046875 2.875 C -9.535156 3.132812 -11.765625 4.550781 -12.734375 7.125 C -12.347656 6.925781 -11.925781 6.828125 -11.46875 6.828125 C -10.75 6.828125 -10.128906 7.085938 -9.609375 7.609375 C -9.085938 8.128906 -8.828125 8.753906 -8.828125 9.484375 C -8.828125 10.222656 -9.085938 10.851562 -9.609375 11.375 C -10.128906 11.894531 -10.75 12.15625 -11.46875 12.15625 C -12.21875 12.15625 -12.835938 11.910156 -13.328125 11.421875 C -13.816406 10.929688 -14.09375 10.328125 -14.15625 9.609375 C -14.21875 8.148438 -13.773438 6.859375 -12.828125 5.734375 C -11.890625 4.609375 -10.773438 3.800781 -9.484375 3.3125 C -8.203125 2.832031 -6.925781 2.59375 -5.65625 2.59375 C -4 2.625 -2.378906 2.898438 -0.796875 3.421875 C 0.773438 3.941406 2.171875 4.554688 3.390625 5.265625 C 4.609375 5.984375 5.84375 6.679688 7.09375 7.359375 C 8.351562 8.046875 9.742188 8.5625 11.265625 8.90625 C 12.796875 9.25 14.40625 9.304688 16.09375 9.078125 C 17.300781 8.941406 18.351562 8.566406 19.25 7.953125 C 20.144531 7.335938 20.78125 6.640625 21.15625 5.859375 C 21.53125 5.078125 21.738281 4.285156 21.78125 3.484375 C 21.832031 2.691406 21.65625 1.976562 21.25 1.34375 C 20.84375 0.707031 20.265625 0.273438 19.515625 0.046875 C 18.703125 -0.210938 17.691406 -0.164062 16.484375 0.1875 C 15.285156 0.550781 14.132812 0.984375 13.03125 1.484375 C 11.925781 1.992188 10.648438 2.367188 9.203125 2.609375 C 7.753906 2.859375 6.394531 2.738281 5.125 2.25 C 3.757812 1.5 2.773438 0.5 2.171875 -0.75 C 1.566406 -2.007812 1.363281 -3.28125 1.5625 -4.5625 C 1.757812 -5.84375 2.265625 -7.078125 3.078125 -8.265625 C 3.890625 -9.453125 4.925781 -10.359375 6.1875 -10.984375 C 5.113281 -11.660156 4.273438 -12.503906 3.671875 -13.515625 C 3.078125 -14.523438 2.738281 -15.550781 2.65625 -16.59375 C 2.570312 -17.632812 2.738281 -18.675781 3.15625 -19.71875 C 3.582031 -20.757812 4.21875 -21.6875 5.0625 -22.5 C 5.914062 -23.3125 7.070312 -23.96875 8.53125 -24.46875 C 10 -24.976562 11.628906 -25.234375 13.421875 -25.234375 Z M 13.421875 -9.21875 C 14.816406 -9.21875 15.925781 -10.015625 16.75 -11.609375 C 17.582031 -13.203125 18 -15.054688 18 -17.171875 C 18 -19.285156 17.582031 -21.128906 16.75 -22.703125 C 15.925781 -24.285156 14.816406 -25.078125 13.421875 -25.078125 C 12.085938 -25.078125 11.003906 -24.304688 10.171875 -22.765625 C 9.335938 -21.222656 8.90625 -19.425781 8.875 -17.375 C 8.84375 -15.195312 9.238281 -13.289062 10.0625 -11.65625 C 10.894531 -10.03125 12.015625 -9.21875 13.421875 -9.21875 Z M 13.421875 -9.21875 "/></g></g></g></g><g fill="#000000" fill-opacity="1"><g transform="translate(42.617628, 39.787511)"><g><path d="M 3.953125 -6.25 C 3.953125 -15.582031 3.953125 -22.96875 3.953125 -28.40625 C 3.953125 -28.726562 3.914062 -29.066406 3.84375 -29.421875 C 3.78125 -29.785156 3.660156 -30.222656 3.484375 -30.734375 C 3.304688 -31.253906 3.003906 -31.742188 2.578125 -32.203125 C 2.160156 -32.660156 1.625 -33.003906 0.96875 -33.234375 C 1.59375 -33.585938 3 -34.398438 5.1875 -35.671875 C 7.382812 -36.941406 9.070312 -37.929688 10.25 -38.640625 L 10.25 -6.25 C 10.25 -5.40625 10.28125 -4.710938 10.34375 -4.171875 C 10.40625 -3.628906 10.535156 -3.015625 10.734375 -2.328125 C 10.929688 -1.648438 11.28125 -1.113281 11.78125 -0.71875 C 12.289062 -0.332031 12.914062 -0.09375 13.65625 0 L 0.53125 0 C 1.3125 -0.09375 1.945312 -0.332031 2.4375 -0.71875 C 2.925781 -1.113281 3.273438 -1.648438 3.484375 -2.328125 C 3.703125 -3.015625 3.832031 -3.628906 3.875 -4.171875 C 3.925781 -4.710938 3.953125 -5.40625 3.953125 -6.25 Z M 3.953125 -6.25 "/></g></g></g><g fill="#000000" fill-opacity="1"><g transform="translate(55.985404, 39.787511)"><g><path d="M 28.734375 0 C 27.703125 0 26.941406 -0.00390625 26.453125 -0.015625 C 25.960938 -0.0351562 25.21875 -0.09375 24.21875 -0.1875 C 23.226562 -0.289062 22.390625 -0.476562 21.703125 -0.75 C 21.023438 -1.03125 20.476562 -1.398438 20.0625 -1.859375 C 18.363281 -0.0664062 15.90625 0.828125 12.6875 0.828125 C 11.289062 0.828125 9.929688 0.625 8.609375 0.21875 C 7.296875 -0.1875 6.078125 -0.785156 4.953125 -1.578125 C 3.828125 -2.378906 2.921875 -3.460938 2.234375 -4.828125 C 1.554688 -6.191406 1.21875 -7.738281 1.21875 -9.46875 C 1.25 -11.78125 1.890625 -13.675781 3.140625 -15.15625 C 4.398438 -16.632812 5.921875 -17.578125 7.703125 -17.984375 C 9.492188 -18.390625 11.414062 -18.375 13.46875 -17.9375 C 15.519531 -17.5 17.375 -16.660156 19.03125 -15.421875 L 19.03125 -16.6875 C 19.03125 -17.5625 18.945312 -18.421875 18.78125 -19.265625 C 18.625 -20.117188 18.375 -20.96875 18.03125 -21.8125 C 17.6875 -22.65625 17.179688 -23.359375 16.515625 -23.921875 C 15.847656 -24.492188 15.0625 -24.800781 14.15625 -24.84375 C 13.007812 -24.9375 12.097656 -24.625 11.421875 -23.90625 C 12.128906 -23.9375 12.742188 -23.707031 13.265625 -23.21875 C 13.785156 -22.738281 14.046875 -22.15625 14.046875 -21.46875 C 14.046875 -20.820312 13.8125 -20.257812 13.34375 -19.78125 C 12.875 -19.3125 12.304688 -19.078125 11.640625 -19.078125 C 10.972656 -19.078125 10.398438 -19.3125 9.921875 -19.78125 C 9.453125 -20.257812 9.21875 -20.820312 9.21875 -21.46875 C 9.25 -22.863281 10.210938 -23.921875 12.109375 -24.640625 C 14.441406 -25.484375 16.863281 -25.46875 19.375 -24.59375 C 22.5625 -23.425781 24.460938 -21.132812 25.078125 -17.71875 C 25.242188 -16.96875 25.328125 -16.1875 25.328125 -15.375 L 25.328125 -6.4375 C 25.328125 -5.625 25.347656 -4.929688 25.390625 -4.359375 C 25.441406 -3.796875 25.570312 -3.15625 25.78125 -2.4375 C 26 -1.71875 26.347656 -1.15625 26.828125 -0.75 C 27.316406 -0.34375 27.953125 -0.09375 28.734375 0 Z M 19.03125 -14.046875 C 18.738281 -14.640625 18.273438 -15.210938 17.640625 -15.765625 C 17.003906 -16.316406 16.394531 -16.707031 15.8125 -16.9375 C 13.789062 -17.78125 11.941406 -17.550781 10.265625 -16.25 C 8.597656 -14.945312 7.648438 -12.992188 7.421875 -10.390625 C 7.285156 -8.859375 7.425781 -7.300781 7.84375 -5.71875 C 8.269531 -4.144531 9.046875 -2.75 10.171875 -1.53125 C 11.296875 -0.3125 12.640625 0.328125 14.203125 0.390625 C 15.828125 0.453125 17.050781 -0.125 17.875 -1.34375 C 18.707031 -2.5625 19.09375 -4 19.03125 -5.65625 Z M 19.03125 -14.046875 "/></g></g></g><g fill="#000000" fill-opacity="1"><g transform="translate(84.672545, 39.787511)"><g><path d="M 10.484375 -24.40625 L 10.484375 -19.953125 C 10.585938 -20.023438 11.03125 -20.300781 11.8125 -20.78125 C 12.59375 -21.269531 13.085938 -21.570312 13.296875 -21.6875 C 13.503906 -21.800781 13.945312 -22.050781 14.625 -22.4375 C 15.3125 -22.832031 15.832031 -23.101562 16.1875 -23.25 C 16.550781 -23.394531 17.015625 -23.570312 17.578125 -23.78125 C 18.148438 -24 18.6875 -24.144531 19.1875 -24.21875 C 19.695312 -24.300781 20.195312 -24.363281 20.6875 -24.40625 C 22.125 -24.40625 23.367188 -24.035156 24.421875 -23.296875 C 25.484375 -22.566406 26.175781 -21.40625 26.5 -19.8125 C 26.726562 -19.976562 27.175781 -20.269531 27.84375 -20.6875 C 28.507812 -21.113281 28.992188 -21.414062 29.296875 -21.59375 C 29.609375 -21.769531 30.070312 -22.035156 30.6875 -22.390625 C 31.3125 -22.753906 31.828125 -23.023438 32.234375 -23.203125 C 32.640625 -23.378906 33.125 -23.570312 33.6875 -23.78125 C 34.257812 -24 34.796875 -24.144531 35.296875 -24.21875 C 35.804688 -24.300781 36.320312 -24.363281 36.84375 -24.40625 C 38.53125 -24.40625 39.941406 -23.898438 41.078125 -22.890625 C 42.222656 -21.878906 42.796875 -20.269531 42.796875 -18.0625 L 42.796875 -6.25 C 42.796875 -5.40625 42.828125 -4.710938 42.890625 -4.171875 C 42.953125 -3.628906 43.082031 -3.015625 43.28125 -2.328125 C 43.476562 -1.648438 43.820312 -1.113281 44.3125 -0.71875 C 44.800781 -0.332031 45.429688 -0.09375 46.203125 0 L 33.078125 0 C 33.828125 -0.09375 34.453125 -0.332031 34.953125 -0.71875 C 35.460938 -1.113281 35.816406 -1.648438 36.015625 -2.328125 C 36.210938 -3.015625 36.34375 -3.628906 36.40625 -4.171875 C 36.46875 -4.710938 36.5 -5.40625 36.5 -6.25 L 36.5 -17.609375 C 36.53125 -19.140625 36.21875 -20.410156 35.5625 -21.421875 C 34.914062 -22.429688 33.878906 -22.820312 32.453125 -22.59375 C 32.253906 -22.5625 32.046875 -22.507812 31.828125 -22.4375 C 31.617188 -22.375 31.414062 -22.3125 31.21875 -22.25 C 31.03125 -22.1875 30.828125 -22.101562 30.609375 -22 C 30.398438 -21.90625 30.195312 -21.804688 30 -21.703125 C 29.8125 -21.609375 29.601562 -21.492188 29.375 -21.359375 C 29.144531 -21.234375 28.945312 -21.125 28.78125 -21.03125 C 28.625 -20.9375 28.421875 -20.816406 28.171875 -20.671875 C 27.929688 -20.523438 27.738281 -20.398438 27.59375 -20.296875 C 27.445312 -20.203125 27.257812 -20.082031 27.03125 -19.9375 C 26.800781 -19.789062 26.640625 -19.679688 26.546875 -19.609375 C 26.609375 -19.128906 26.640625 -18.613281 26.640625 -18.0625 L 26.640625 -6.25 C 26.640625 -5.40625 26.671875 -4.710938 26.734375 -4.171875 C 26.804688 -3.628906 26.9375 -3.015625 27.125 -2.328125 C 27.320312 -1.648438 27.671875 -1.113281 28.171875 -0.71875 C 28.679688 -0.332031 29.3125 -0.09375 30.0625 0 L 16.9375 0 C 17.71875 -0.09375 18.347656 -0.332031 18.828125 -0.71875 C 19.316406 -1.113281 19.660156 -1.648438 19.859375 -2.328125 C 20.054688 -3.015625 20.1875 -3.628906 20.25 -4.171875 C 20.3125 -4.710938 20.34375 -5.40625 20.34375 -6.25 L 20.34375 -17.609375 C 20.375 -19.140625 20.0625 -20.410156 19.40625 -21.421875 C 18.757812 -22.429688 17.722656 -22.820312 16.296875 -22.59375 C 15.128906 -22.394531 13.34375 -21.515625 10.9375 -19.953125 C 10.738281 -19.828125 10.585938 -19.734375 10.484375 -19.671875 L 10.484375 -6.25 C 10.484375 -5.40625 10.515625 -4.710938 10.578125 -4.171875 C 10.648438 -3.628906 10.78125 -3.015625 10.96875 -2.328125 C 11.164062 -1.648438 11.515625 -1.113281 12.015625 -0.71875 C 12.523438 -0.332031 13.15625 -0.09375 13.90625 0 L 0.78125 0 C 1.5625 -0.09375 2.195312 -0.332031 2.6875 -0.71875 C 3.175781 -1.113281 3.523438 -1.648438 3.734375 -2.328125 C 3.941406 -3.015625 4.070312 -3.628906 4.125 -4.171875 C 4.175781 -4.710938 4.203125 -5.40625 4.203125 -6.25 L 4.203125 -14.15625 C 4.203125 -14.476562 4.164062 -14.816406 4.09375 -15.171875 C 4.03125 -15.535156 3.910156 -15.976562 3.734375 -16.5 C 3.554688 -17.019531 3.253906 -17.503906 2.828125 -17.953125 C 2.410156 -18.410156 1.875 -18.753906 1.21875 -18.984375 C 5.351562 -21.390625 8.441406 -23.195312 10.484375 -24.40625 Z M 10.484375 -24.40625 "/></g></g></g><g fill="#000000" fill-opacity="1"><g transform="translate(131.411117, 39.787511)"><g><path d="M 10.484375 -24.40625 L 10.484375 -19.953125 C 10.585938 -20.023438 11.03125 -20.300781 11.8125 -20.78125 C 12.59375 -21.269531 13.085938 -21.570312 13.296875 -21.6875 C 13.503906 -21.800781 13.945312 -22.050781 14.625 -22.4375 C 15.3125 -22.832031 15.832031 -23.101562 16.1875 -23.25 C 16.550781 -23.394531 17.015625 -23.570312 17.578125 -23.78125 C 18.148438 -24 18.6875 -24.144531 19.1875 -24.21875 C 19.695312 -24.300781 20.195312 -24.363281 20.6875 -24.40625 C 22.125 -24.40625 23.367188 -24.035156 24.421875 -23.296875 C 25.484375 -22.566406 26.175781 -21.40625 26.5 -19.8125 C 26.726562 -19.976562 27.175781 -20.269531 27.84375 -20.6875 C 28.507812 -21.113281 28.992188 -21.414062 29.296875 -21.59375 C 29.609375 -21.769531 30.070312 -22.035156 30.6875 -22.390625 C 31.3125 -22.753906 31.828125 -23.023438 32.234375 -23.203125 C 32.640625 -23.378906 33.125 -23.570312 33.6875 -23.78125 C 34.257812 -24 34.796875 -24.144531 35.296875 -24.21875 C 35.804688 -24.300781 36.320312 -24.363281 36.84375 -24.40625 C 38.53125 -24.40625 39.941406 -23.898438 41.078125 -22.890625 C 42.222656 -21.878906 42.796875 -20.269531 42.796875 -18.0625 L 42.796875 -6.25 C 42.796875 -5.40625 42.828125 -4.710938 42.890625 -4.171875 C 42.953125 -3.628906 43.082031 -3.015625 43.28125 -2.328125 C 43.476562 -1.648438 43.820312 -1.113281 44.3125 -0.71875 C 44.800781 -0.332031 45.429688 -0.09375 46.203125 0 L 33.078125 0 C 33.828125 -0.09375 34.453125 -0.332031 34.953125 -0.71875 C 35.460938 -1.113281 35.816406 -1.648438 36.015625 -2.328125 C 36.210938 -3.015625 36.34375 -3.628906 36.40625 -4.171875 C 36.46875 -4.710938 36.5 -5.40625 36.5 -6.25 L 36.5 -17.609375 C 36.53125 -19.140625 36.21875 -20.410156 35.5625 -21.421875 C 34.914062 -22.429688 33.878906 -22.820312 32.453125 -22.59375 C 32.253906 -22.5625 32.046875 -22.507812 31.828125 -22.4375 C 31.617188 -22.375 31.414062 -22.3125 31.21875 -22.25 C 31.03125 -22.1875 30.828125 -22.101562 30.609375 -22 C 30.398438 -21.90625 30.195312 -21.804688 30 -21.703125 C 29.8125 -21.609375 29.601562 -21.492188 29.375 -21.359375 C 29.144531 -21.234375 28.945312 -21.125 28.78125 -21.03125 C 28.625 -20.9375 28.421875 -20.816406 28.171875 -20.671875 C 27.929688 -20.523438 27.738281 -20.398438 27.59375 -20.296875 C 27.445312 -20.203125 27.257812 -20.082031 27.03125 -19.9375 C 26.800781 -19.789062 26.640625 -19.679688 26.546875 -19.609375 C 26.609375 -19.128906 26.640625 -18.613281 26.640625 -18.0625 L 26.640625 -6.25 C 26.640625 -5.40625 26.671875 -4.710938 26.734375 -4.171875 C 26.804688 -3.628906 26.9375 -3.015625 27.125 -2.328125 C 27.320312 -1.648438 27.671875 -1.113281 28.171875 -0.71875 C 28.679688 -0.332031 29.3125 -0.09375 30.0625 0 L 16.9375 0 C 17.71875 -0.09375 18.347656 -0.332031 18.828125 -0.71875 C 19.316406 -1.113281 19.660156 -1.648438 19.859375 -2.328125 C 20.054688 -3.015625 20.1875 -3.628906 20.25 -4.171875 C 20.3125 -4.710938 20.34375 -5.40625 20.34375 -6.25 L 20.34375 -17.609375 C 20.375 -19.140625 20.0625 -20.410156 19.40625 -21.421875 C 18.757812 -22.429688 17.722656 -22.820312 16.296875 -22.59375 C 15.128906 -22.394531 13.34375 -21.515625 10.9375 -19.953125 C 10.738281 -19.828125 10.585938 -19.734375 10.484375 -19.671875 L 10.484375 -6.25 C 10.484375 -5.40625 10.515625 -4.710938 10.578125 -4.171875 C 10.648438 -3.628906 10.78125 -3.015625 10.96875 -2.328125 C 11.164062 -1.648438 11.515625 -1.113281 12.015625 -0.71875 C 12.523438 -0.332031 13.15625 -0.09375 13.90625 0 L 0.78125 0 C 1.5625 -0.09375 2.195312 -0.332031 2.6875 -0.71875 C 3.175781 -1.113281 3.523438 -1.648438 3.734375 -2.328125 C 3.941406 -3.015625 4.070312 -3.628906 4.125 -4.171875 C 4.175781 -4.710938 4.203125 -5.40625 4.203125 -6.25 L 4.203125 -14.15625 C 4.203125 -14.476562 4.164062 -14.816406 4.09375 -15.171875 C 4.03125 -15.535156 3.910156 -15.976562 3.734375 -16.5 C 3.554688 -17.019531 3.253906 -17.503906 2.828125 -17.953125 C 2.410156 -18.410156 1.875 -18.753906 1.21875 -18.984375 C 5.351562 -21.390625 8.441406 -23.195312 10.484375 -24.40625 Z M 10.484375 -24.40625 "/></g></g></g><g fill="#000000" fill-opacity="1"><g transform="translate(177.271476, 39.787511)"><g><path d="M 14.203125 0.828125 C 12.410156 0.828125 10.765625 0.53125 9.265625 -0.0625 C 7.773438 -0.664062 6.53125 -1.472656 5.53125 -2.484375 C 4.539062 -3.492188 3.6875 -4.65625 2.96875 -5.96875 C 2.257812 -7.289062 1.820312 -8.675781 1.65625 -10.125 C 1.5 -11.570312 1.472656 -13.019531 1.578125 -14.46875 C 1.691406 -15.914062 2.09375 -17.289062 2.78125 -18.59375 C 3.46875 -19.894531 4.296875 -21.039062 5.265625 -22.03125 C 6.242188 -23.019531 7.503906 -23.804688 9.046875 -24.390625 C 10.597656 -24.984375 12.316406 -25.265625 14.203125 -25.234375 C 15.992188 -25.191406 17.578125 -24.847656 18.953125 -24.203125 C 20.335938 -23.554688 21.46875 -22.671875 22.34375 -21.546875 C 23.226562 -20.421875 23.910156 -19.175781 24.390625 -17.8125 C 24.878906 -16.445312 25.191406 -14.96875 25.328125 -13.375 L 7.5625 -13.375 C 7.65625 -10.664062 8.351562 -8.359375 9.65625 -6.453125 C 10.957031 -4.554688 12.863281 -3.523438 15.375 -3.359375 C 17.382812 -3.234375 19.359375 -3.691406 21.296875 -4.734375 C 23.234375 -5.773438 24.65625 -7.140625 25.5625 -8.828125 C 25.144531 -5.835938 23.851562 -3.472656 21.6875 -1.734375 C 19.519531 0.00390625 17.023438 0.859375 14.203125 0.828125 Z M 7.5625 -13.609375 L 18.78125 -13.609375 C 18.851562 -14.648438 18.820312 -15.796875 18.6875 -17.046875 C 18.5625 -18.304688 18.328125 -19.601562 17.984375 -20.9375 C 17.640625 -22.269531 17.0625 -23.328125 16.25 -24.109375 C 15.4375 -24.890625 14.476562 -25.164062 13.375 -24.9375 C 11.613281 -24.613281 10.195312 -23.328125 9.125 -21.078125 C 8.050781 -18.835938 7.53125 -16.347656 7.5625 -13.609375 Z M 7.5625 -13.609375 "/></g></g></g><g fill="#000000" fill-opacity="1"><g transform="translate(204.299831, 39.787511)"><g><path d="M 30.40625 0 C 29.363281 0 28.585938 -0.00390625 28.078125 -0.015625 C 27.578125 -0.0351562 26.828125 -0.09375 25.828125 -0.1875 C 24.835938 -0.289062 24 -0.476562 23.3125 -0.75 C 22.632812 -1.03125 22.085938 -1.398438 21.671875 -1.859375 C 19.972656 -0.0351562 17.628906 0.859375 14.640625 0.828125 C 12.722656 0.796875 10.972656 0.476562 9.390625 -0.125 C 7.816406 -0.726562 6.515625 -1.53125 5.484375 -2.53125 C 4.460938 -3.539062 3.601562 -4.695312 2.90625 -6 C 2.207031 -7.300781 1.785156 -8.664062 1.640625 -10.09375 C 1.492188 -11.53125 1.492188 -12.972656 1.640625 -14.421875 C 1.785156 -15.867188 2.210938 -17.234375 2.921875 -18.515625 C 3.640625 -19.804688 4.492188 -20.953125 5.484375 -21.953125 C 6.484375 -22.960938 7.753906 -23.757812 9.296875 -24.34375 C 10.835938 -24.9375 12.535156 -25.234375 14.390625 -25.234375 C 15.460938 -25.234375 16.597656 -24.976562 17.796875 -24.46875 C 19.003906 -23.96875 19.953125 -23.375 20.640625 -22.6875 L 20.640625 -28.40625 C 20.640625 -28.726562 20.613281 -29.066406 20.5625 -29.421875 C 20.519531 -29.785156 20.40625 -30.222656 20.21875 -30.734375 C 20.039062 -31.253906 19.734375 -31.742188 19.296875 -32.203125 C 18.859375 -32.660156 18.332031 -33.003906 17.71875 -33.234375 C 21.8125 -35.640625 24.898438 -37.441406 26.984375 -38.640625 C 26.984375 -20.265625 26.984375 -9.46875 26.984375 -6.25 C 26.984375 -5.4375 27.003906 -4.75 27.046875 -4.1875 C 27.097656 -3.632812 27.226562 -3.015625 27.4375 -2.328125 C 27.65625 -1.648438 28.007812 -1.113281 28.5 -0.71875 C 28.988281 -0.332031 29.625 -0.09375 30.40625 0 Z M 20.640625 -19.609375 C 20.640625 -20.585938 20.335938 -21.488281 19.734375 -22.3125 C 19.128906 -23.144531 18.335938 -23.78125 17.359375 -24.21875 C 16.390625 -24.664062 15.398438 -24.835938 14.390625 -24.734375 C 12.796875 -24.578125 11.453125 -23.835938 10.359375 -22.515625 C 9.273438 -21.203125 8.53125 -19.617188 8.125 -17.765625 C 7.71875 -15.910156 7.570312 -13.914062 7.6875 -11.78125 C 7.800781 -9.65625 8.15625 -7.679688 8.75 -5.859375 C 9.351562 -4.035156 10.222656 -2.519531 11.359375 -1.3125 C 12.503906 -0.113281 13.804688 0.484375 15.265625 0.484375 C 16.960938 0.515625 18.296875 -0.0664062 19.265625 -1.265625 C 20.242188 -2.472656 20.703125 -3.875 20.640625 -5.46875 Z M 20.640625 -19.609375 "/></g></g></g><g fill="#000000" fill-opacity="1"><g transform="translate(234.69454, 39.787511)"><g><path d="M 10.484375 -24.40625 L 10.484375 -19.953125 C 10.585938 -20.023438 11.03125 -20.300781 11.8125 -20.78125 C 12.59375 -21.269531 13.085938 -21.570312 13.296875 -21.6875 C 13.503906 -21.800781 13.945312 -22.050781 14.625 -22.4375 C 15.3125 -22.832031 15.832031 -23.101562 16.1875 -23.25 C 16.550781 -23.394531 17.015625 -23.570312 17.578125 -23.78125 C 18.148438 -24 18.6875 -24.144531 19.1875 -24.21875 C 19.695312 -24.300781 20.195312 -24.363281 20.6875 -24.40625 C 21.757812 -24.40625 22.726562 -24.21875 23.59375 -23.84375 C 24.457031 -23.46875 25.179688 -22.78125 25.765625 -21.78125 C 26.347656 -20.789062 26.640625 -19.550781 26.640625 -18.0625 L 26.640625 -6.25 C 26.640625 -5.40625 26.671875 -4.710938 26.734375 -4.171875 C 26.804688 -3.628906 26.9375 -3.015625 27.125 -2.328125 C 27.320312 -1.648438 27.671875 -1.113281 28.171875 -0.71875 C 28.679688 -0.332031 29.3125 -0.09375 30.0625 0 L 16.9375 0 C 17.71875 -0.09375 18.347656 -0.332031 18.828125 -0.71875 C 19.316406 -1.113281 19.660156 -1.648438 19.859375 -2.328125 C 20.054688 -3.015625 20.1875 -3.628906 20.25 -4.171875 C 20.3125 -4.710938 20.34375 -5.40625 20.34375 -6.25 L 20.34375 -17.609375 C 20.375 -19.140625 20.0625 -20.410156 19.40625 -21.421875 C 18.757812 -22.429688 17.722656 -22.820312 16.296875 -22.59375 C 15.128906 -22.394531 13.34375 -21.515625 10.9375 -19.953125 C 10.738281 -19.828125 10.585938 -19.734375 10.484375 -19.671875 L 10.484375 -6.25 C 10.484375 -5.695312 10.492188 -5.238281 10.515625 -4.875 C 10.535156 -4.519531 10.582031 -4.082031 10.65625 -3.5625 C 10.738281 -3.039062 10.851562 -2.609375 11 -2.265625 C 11.144531 -1.921875 11.335938 -1.570312 11.578125 -1.21875 C 11.828125 -0.863281 12.144531 -0.585938 12.53125 -0.390625 C 12.925781 -0.191406 13.382812 -0.0625 13.90625 0 L 0.78125 0 C 1.5625 -0.09375 2.195312 -0.332031 2.6875 -0.71875 C 3.175781 -1.113281 3.523438 -1.648438 3.734375 -2.328125 C 3.941406 -3.015625 4.070312 -3.628906 4.125 -4.171875 C 4.175781 -4.710938 4.203125 -5.40625 4.203125 -6.25 L 4.203125 -14.15625 C 4.203125 -14.476562 4.164062 -14.816406 4.09375 -15.171875 C 4.03125 -15.535156 3.910156 -15.976562 3.734375 -16.5 C 3.554688 -17.019531 3.253906 -17.503906 2.828125 -17.953125 C 2.410156 -18.410156 1.875 -18.753906 1.21875 -18.984375 C 1.539062 -19.179688 2.863281 -19.953125 5.1875 -21.296875 C 7.519531 -22.648438 9.285156 -23.6875 10.484375 -24.40625 Z M 10.484375 -24.40625 "/></g></g></g><g fill="#000000" fill-opacity="1"><g transform="translate(264.50378, 39.787511)"><g><path d="M 28.734375 0 C 27.703125 0 26.941406 -0.00390625 26.453125 -0.015625 C 25.960938 -0.0351562 25.21875 -0.09375 24.21875 -0.1875 C 23.226562 -0.289062 22.390625 -0.476562 21.703125 -0.75 C 21.023438 -1.03125 20.476562 -1.398438 20.0625 -1.859375 C 18.363281 -0.0664062 15.90625 0.828125 12.6875 0.828125 C 11.289062 0.828125 9.929688 0.625 8.609375 0.21875 C 7.296875 -0.1875 6.078125 -0.785156 4.953125 -1.578125 C 3.828125 -2.378906 2.921875 -3.460938 2.234375 -4.828125 C 1.554688 -6.191406 1.21875 -7.738281 1.21875 -9.46875 C 1.25 -11.78125 1.890625 -13.675781 3.140625 -15.15625 C 4.398438 -16.632812 5.921875 -17.578125 7.703125 -17.984375 C 9.492188 -18.390625 11.414062 -18.375 13.46875 -17.9375 C 15.519531 -17.5 17.375 -16.660156 19.03125 -15.421875 L 19.03125 -16.6875 C 19.03125 -17.5625 18.945312 -18.421875 18.78125 -19.265625 C 18.625 -20.117188 18.375 -20.96875 18.03125 -21.8125 C 17.6875 -22.65625 17.179688 -23.359375 16.515625 -23.921875 C 15.847656 -24.492188 15.0625 -24.800781 14.15625 -24.84375 C 13.007812 -24.9375 12.097656 -24.625 11.421875 -23.90625 C 12.128906 -23.9375 12.742188 -23.707031 13.265625 -23.21875 C 13.785156 -22.738281 14.046875 -22.15625 14.046875 -21.46875 C 14.046875 -20.820312 13.8125 -20.257812 13.34375 -19.78125 C 12.875 -19.3125 12.304688 -19.078125 11.640625 -19.078125 C 10.972656 -19.078125 10.398438 -19.3125 9.921875 -19.78125 C 9.453125 -20.257812 9.21875 -20.820312 9.21875 -21.46875 C 9.25 -22.863281 10.210938 -23.921875 12.109375 -24.640625 C 14.441406 -25.484375 16.863281 -25.46875 19.375 -24.59375 C 22.5625 -23.425781 24.460938 -21.132812 25.078125 -17.71875 C 25.242188 -16.96875 25.328125 -16.1875 25.328125 -15.375 L 25.328125 -6.4375 C 25.328125 -5.625 25.347656 -4.929688 25.390625 -4.359375 C 25.441406 -3.796875 25.570312 -3.15625 25.78125 -2.4375 C 26 -1.71875 26.347656 -1.15625 26.828125 -0.75 C 27.316406 -0.34375 27.953125 -0.09375 28.734375 0 Z M 19.03125 -14.046875 C 18.738281 -14.640625 18.273438 -15.210938 17.640625 -15.765625 C 17.003906 -16.316406 16.394531 -16.707031 15.8125 -16.9375 C 13.789062 -17.78125 11.941406 -17.550781 10.265625 -16.25 C 8.597656 -14.945312 7.648438 -12.992188 7.421875 -10.390625 C 7.285156 -8.859375 7.425781 -7.300781 7.84375 -5.71875 C 8.269531 -4.144531 9.046875 -2.75 10.171875 -1.53125 C 11.296875 -0.3125 12.640625 0.328125 14.203125 0.390625 C 15.828125 0.453125 17.050781 -0.125 17.875 -1.34375 C 18.707031 -2.5625 19.09375 -4 19.03125 -5.65625 Z M 19.03125 -14.046875 "/></g></g></g><g fill="#000000" fill-opacity="1"><g transform="translate(293.190921, 39.787511)"><g><path d="M 1.21875 -18.984375 C 5.414062 -21.421875 8.503906 -23.226562 10.484375 -24.40625 L 10.484375 -6.25 C 10.484375 -5.40625 10.515625 -4.710938 10.578125 -4.171875 C 10.648438 -3.628906 10.78125 -3.015625 10.96875 -2.328125 C 11.164062 -1.648438 11.515625 -1.113281 12.015625 -0.71875 C 12.523438 -0.332031 13.15625 -0.09375 13.90625 0 L 0.78125 0 C 1.5625 -0.09375 2.195312 -0.332031 2.6875 -0.71875 C 3.175781 -1.113281 3.523438 -1.648438 3.734375 -2.328125 C 3.941406 -3.015625 4.070312 -3.628906 4.125 -4.171875 C 4.175781 -4.710938 4.203125 -5.40625 4.203125 -6.25 L 4.203125 -14.15625 C 4.203125 -14.476562 4.164062 -14.816406 4.09375 -15.171875 C 4.03125 -15.535156 3.910156 -15.976562 3.734375 -16.5 C 3.554688 -17.019531 3.253906 -17.503906 2.828125 -17.953125 C 2.410156 -18.410156 1.875 -18.753906 1.21875 -18.984375 Z M 4.65625 -25.890625 C 3.988281 -26.554688 3.65625 -27.367188 3.65625 -28.328125 C 3.65625 -29.285156 3.988281 -30.101562 4.65625 -30.78125 C 5.320312 -31.46875 6.132812 -31.8125 7.09375 -31.8125 C 8.0625 -31.8125 8.882812 -31.46875 9.5625 -30.78125 C 10.25 -30.101562 10.59375 -29.285156 10.59375 -28.328125 C 10.59375 -27.367188 10.25 -26.554688 9.5625 -25.890625 C 8.882812 -25.222656 8.0625 -24.890625 7.09375 -24.890625 C 6.132812 -24.890625 5.320312 -25.222656 4.65625 -25.890625 Z M 4.65625 -25.890625 "/></g></g></g><g fill="#000000" fill-opacity="1"><g transform="translate(307.680855, 39.787511)"><g><path d="M 3.953125 -6.25 C 3.953125 -15.582031 3.953125 -22.96875 3.953125 -28.40625 C 3.953125 -28.726562 3.914062 -29.066406 3.84375 -29.421875 C 3.78125 -29.785156 3.660156 -30.222656 3.484375 -30.734375 C 3.304688 -31.253906 3.003906 -31.742188 2.578125 -32.203125 C 2.160156 -32.660156 1.625 -33.003906 0.96875 -33.234375 C 1.59375 -33.585938 3 -34.398438 5.1875 -35.671875 C 7.382812 -36.941406 9.070312 -37.929688 10.25 -38.640625 L 10.25 -6.25 C 10.25 -5.40625 10.28125 -4.710938 10.34375 -4.171875 C 10.40625 -3.628906 10.535156 -3.015625 10.734375 -2.328125 C 10.929688 -1.648438 11.28125 -1.113281 11.78125 -0.71875 C 12.289062 -0.332031 12.914062 -0.09375 13.65625 0 L 0.53125 0 C 1.3125 -0.09375 1.945312 -0.332031 2.4375 -0.71875 C 2.925781 -1.113281 3.273438 -1.648438 3.484375 -2.328125 C 3.703125 -3.015625 3.832031 -3.628906 3.875 -4.171875 C 3.925781 -4.710938 3.953125 -5.40625 3.953125 -6.25 Z M 3.953125 -6.25 "/></g></g></g><g fill="#000000" fill-opacity="1"><g transform="translate(321.926844, 39.787511)"><g><path d="M 12.046875 -25.171875 C 13.253906 -25.273438 14.515625 -25.125 15.828125 -24.71875 C 17.148438 -24.3125 18.316406 -23.617188 19.328125 -22.640625 C 20.335938 -21.660156 20.859375 -20.519531 20.890625 -19.21875 C 20.890625 -18.375 20.664062 -17.679688 20.21875 -17.140625 C 19.78125 -16.609375 19.15625 -16.34375 18.34375 -16.34375 C 17.632812 -16.34375 17.023438 -16.59375 16.515625 -17.09375 C 16.015625 -17.601562 15.765625 -18.207031 15.765625 -18.90625 C 15.765625 -19.601562 16.015625 -20.203125 16.515625 -20.703125 C 17.023438 -21.210938 17.632812 -21.46875 18.34375 -21.46875 C 19.289062 -21.46875 20.007812 -21.0625 20.5 -20.25 C 20.269531 -21.15625 19.707031 -21.972656 18.8125 -22.703125 C 17.914062 -23.441406 16.878906 -23.957031 15.703125 -24.25 C 14.535156 -24.539062 13.390625 -24.675781 12.265625 -24.65625 C 11.148438 -24.644531 10.164062 -24.3125 9.3125 -23.65625 C 8.46875 -23.007812 7.984375 -22.117188 7.859375 -20.984375 C 7.828125 -19.847656 8.085938 -18.878906 8.640625 -18.078125 C 9.191406 -17.285156 9.914062 -16.679688 10.8125 -16.265625 C 11.707031 -15.859375 12.707031 -15.5 13.8125 -15.1875 C 14.914062 -14.882812 16.035156 -14.5625 17.171875 -14.21875 C 18.316406 -13.882812 19.359375 -13.472656 20.296875 -12.984375 C 21.242188 -12.492188 22.023438 -11.785156 22.640625 -10.859375 C 23.253906 -9.929688 23.597656 -8.816406 23.671875 -7.515625 C 23.703125 -6.046875 23.441406 -4.757812 22.890625 -3.65625 C 22.335938 -2.550781 21.539062 -1.679688 20.5 -1.046875 C 19.457031 -0.410156 18.285156 0.0546875 16.984375 0.359375 C 15.679688 0.671875 14.265625 0.828125 12.734375 0.828125 C 10.785156 0.828125 9.085938 0.550781 7.640625 0 C 6.191406 -0.550781 5.113281 -1.234375 4.40625 -2.046875 C 3.707031 -2.859375 3.195312 -3.734375 2.875 -4.671875 C 2.550781 -5.617188 2.4375 -6.507812 2.53125 -7.34375 C 2.632812 -8.175781 2.847656 -8.867188 3.171875 -9.421875 C 3.660156 -10.296875 4.394531 -10.734375 5.375 -10.734375 C 6.082031 -10.734375 6.6875 -10.488281 7.1875 -10 C 7.695312 -9.507812 7.953125 -8.910156 7.953125 -8.203125 C 7.953125 -7.484375 7.707031 -6.878906 7.21875 -6.390625 C 6.726562 -5.898438 6.113281 -5.65625 5.375 -5.65625 C 4.519531 -5.65625 3.84375 -6.019531 3.34375 -6.75 C 2.84375 -7.488281 2.832031 -8.363281 3.3125 -9.375 C 2.695312 -8.039062 2.640625 -6.582031 3.140625 -5 C 3.648438 -3.425781 4.648438 -2.132812 6.140625 -1.125 C 7.742188 -0.0195312 9.972656 0.484375 12.828125 0.390625 C 14.359375 0.328125 15.632812 -0.0234375 16.65625 -0.671875 C 17.6875 -1.328125 18.335938 -2.101562 18.609375 -3 C 18.890625 -3.894531 18.816406 -4.820312 18.390625 -5.78125 C 17.972656 -6.738281 17.191406 -7.546875 16.046875 -8.203125 C 15.367188 -8.585938 14.398438 -8.972656 13.140625 -9.359375 C 11.890625 -9.753906 10.753906 -10.128906 9.734375 -10.484375 C 8.710938 -10.847656 7.6875 -11.304688 6.65625 -11.859375 C 5.632812 -12.410156 4.820312 -13.164062 4.21875 -14.125 C 3.613281 -15.082031 3.296875 -16.226562 3.265625 -17.5625 C 3.328125 -18.800781 3.609375 -19.90625 4.109375 -20.875 C 4.617188 -21.851562 5.296875 -22.632812 6.140625 -23.21875 C 6.992188 -23.8125 7.914062 -24.269531 8.90625 -24.59375 C 9.894531 -24.914062 10.941406 -25.109375 12.046875 -25.171875 Z M 12.046875 -25.171875 "/></g></g></g></g></g><g transform="matrix(1, 0, 0, 1, 295, 68)"><g clip-path="url(#8902b49a1b)"><g fill="#6b4631" fill-opacity="1"><g transform="translate(3.067026, 16.094881)"><g><path d="M 5.65625 -9.15625 C 5.382812 -9.15625 5.128906 -9.085938 4.890625 -8.953125 C 4.648438 -8.816406 4.441406 -8.632812 4.265625 -8.40625 C 4.085938 -8.1875 3.945312 -7.929688 3.84375 -7.640625 C 3.75 -7.359375 3.703125 -7.0625 3.703125 -6.75 L 3.703125 -1.84375 C 3.703125 -1.375 3.828125 -1.015625 4.078125 -0.765625 C 4.328125 -0.523438 4.65625 -0.40625 5.0625 -0.40625 C 5.476562 -0.40625 5.84375 -0.535156 6.15625 -0.796875 C 6.476562 -1.054688 6.742188 -1.410156 6.953125 -1.859375 C 7.171875 -2.304688 7.332031 -2.828125 7.4375 -3.421875 C 7.550781 -4.015625 7.609375 -4.640625 7.609375 -5.296875 C 7.609375 -6.546875 7.4375 -7.5 7.09375 -8.15625 C 6.75 -8.820312 6.269531 -9.15625 5.65625 -9.15625 Z M 6.65625 -10.40625 C 7.71875 -10.40625 8.554688 -9.988281 9.171875 -9.15625 C 9.796875 -8.320312 10.109375 -7.171875 10.109375 -5.703125 C 10.109375 -4.742188 9.972656 -3.898438 9.703125 -3.171875 C 9.441406 -2.441406 9.085938 -1.828125 8.640625 -1.328125 C 8.191406 -0.835938 7.671875 -0.460938 7.078125 -0.203125 C 6.484375 0.0546875 5.863281 0.1875 5.21875 0.1875 C 4.914062 0.1875 4.632812 0.160156 4.375 0.109375 C 4.125 0.0664062 3.882812 0.0195312 3.65625 -0.03125 C 3.425781 -0.0820312 3.203125 -0.128906 2.984375 -0.171875 C 2.765625 -0.222656 2.53125 -0.25 2.28125 -0.25 C 2.007812 -0.25 1.75 -0.21875 1.5 -0.15625 C 1.25 -0.101562 0.96875 -0.046875 0.65625 0.015625 C 0.613281 0.0351562 0.570312 0.0234375 0.53125 -0.015625 C 0.5 -0.0546875 0.484375 -0.101562 0.484375 -0.15625 C 0.484375 -0.21875 0.492188 -0.273438 0.515625 -0.328125 C 0.535156 -0.390625 0.578125 -0.429688 0.640625 -0.453125 C 0.847656 -0.515625 1 -0.65625 1.09375 -0.875 C 1.195312 -1.09375 1.25 -1.425781 1.25 -1.875 L 1.25 -12.234375 C 1.25 -12.703125 1.160156 -13.015625 0.984375 -13.171875 C 0.804688 -13.335938 0.441406 -13.410156 -0.109375 -13.390625 C -0.140625 -13.367188 -0.171875 -13.414062 -0.203125 -13.53125 C -0.234375 -13.65625 -0.203125 -13.726562 -0.109375 -13.75 C 0.566406 -13.820312 1.171875 -13.914062 1.703125 -14.03125 C 2.234375 -14.15625 2.769531 -14.320312 3.3125 -14.53125 C 3.40625 -14.570312 3.492188 -14.570312 3.578125 -14.53125 C 3.660156 -14.488281 3.703125 -14.421875 3.703125 -14.328125 L 3.703125 -8.734375 L 3.796875 -8.734375 C 4.035156 -9.160156 4.382812 -9.546875 4.84375 -9.890625 C 5.300781 -10.234375 5.90625 -10.40625 6.65625 -10.40625 Z M 6.65625 -10.40625 "/></g></g></g><g fill="#6b4631" fill-opacity="1"><g transform="translate(12.766688, 16.094881)"><g><path d="M 6.125 -2.78125 L 8.421875 -8.546875 C 8.515625 -8.773438 8.546875 -8.96875 8.515625 -9.125 C 8.492188 -9.28125 8.4375 -9.410156 8.34375 -9.515625 C 8.257812 -9.617188 8.144531 -9.695312 8 -9.75 C 7.851562 -9.800781 7.707031 -9.832031 7.5625 -9.84375 C 7.488281 -9.863281 7.453125 -9.925781 7.453125 -10.03125 C 7.453125 -10.144531 7.488281 -10.203125 7.5625 -10.203125 L 10.28125 -10.203125 C 10.34375 -10.203125 10.375 -10.144531 10.375 -10.03125 C 10.375 -9.925781 10.34375 -9.863281 10.28125 -9.84375 C 9.988281 -9.8125 9.753906 -9.695312 9.578125 -9.5 C 9.398438 -9.3125 9.222656 -9.003906 9.046875 -8.578125 L 5.0625 1.1875 C 4.632812 2.207031 4.179688 2.945312 3.703125 3.40625 C 3.234375 3.875 2.691406 4.109375 2.078125 4.109375 C 1.785156 4.109375 1.519531 4.054688 1.28125 3.953125 C 1.039062 3.847656 0.835938 3.710938 0.671875 3.546875 C 0.503906 3.378906 0.378906 3.191406 0.296875 2.984375 C 0.222656 2.773438 0.1875 2.570312 0.1875 2.375 C 0.1875 2.0625 0.273438 1.8125 0.453125 1.625 C 0.628906 1.4375 0.832031 1.34375 1.0625 1.34375 C 1.3125 1.34375 1.53125 1.4375 1.71875 1.625 C 1.90625 1.820312 2 2.097656 2 2.453125 C 2 2.660156 2.046875 2.832031 2.140625 2.96875 C 2.234375 3.101562 2.382812 3.171875 2.59375 3.171875 C 2.90625 3.171875 3.234375 3 3.578125 2.65625 C 3.929688 2.3125 4.28125 1.707031 4.625 0.84375 L 4.828125 0.3125 L 1.0625 -8.671875 C 0.894531 -9.066406 0.726562 -9.351562 0.5625 -9.53125 C 0.394531 -9.707031 0.160156 -9.8125 -0.140625 -9.84375 C -0.210938 -9.863281 -0.25 -9.925781 -0.25 -10.03125 C -0.25 -10.144531 -0.210938 -10.203125 -0.140625 -10.203125 L 4.6875 -10.203125 C 4.75 -10.203125 4.78125 -10.144531 4.78125 -10.03125 C 4.78125 -9.925781 4.75 -9.863281 4.6875 -9.84375 C 4.53125 -9.832031 4.375 -9.800781 4.21875 -9.75 C 4.070312 -9.707031 3.945312 -9.640625 3.84375 -9.546875 C 3.75 -9.460938 3.6875 -9.34375 3.65625 -9.1875 C 3.632812 -9.03125 3.671875 -8.835938 3.765625 -8.609375 Z M 6.125 -2.78125 "/></g></g></g><g fill="#6b4631" fill-opacity="1"><g transform="translate(23.059239, 16.094881)"><g/></g></g><g fill="#6b4631" fill-opacity="1"><g transform="translate(26.510511, 16.094881)"><g><path d="M 2.46875 -14.9375 C 1.976562 -14.9375 1.59375 -14.773438 1.3125 -14.453125 C 1.039062 -14.140625 0.90625 -13.75 0.90625 -13.28125 C 0.90625 -12.820312 1.039062 -12.425781 1.3125 -12.09375 C 1.59375 -11.769531 1.976562 -11.609375 2.46875 -11.609375 C 2.957031 -11.609375 3.34375 -11.769531 3.625 -12.09375 C 3.90625 -12.425781 4.046875 -12.820312 4.046875 -13.28125 C 4.046875 -13.75 3.90625 -14.140625 3.625 -14.453125 C 3.34375 -14.773438 2.957031 -14.9375 2.46875 -14.9375 Z M 3.90625 1.125 C 3.90625 1.5625 3.816406 1.972656 3.640625 2.359375 C 3.472656 2.742188 3.234375 3.078125 2.921875 3.359375 C 2.609375 3.648438 2.234375 3.878906 1.796875 4.046875 C 1.359375 4.222656 0.875 4.3125 0.34375 4.3125 C -0.332031 4.3125 -0.863281 4.175781 -1.25 3.90625 C -1.644531 3.644531 -1.84375 3.296875 -1.84375 2.859375 C -1.84375 2.546875 -1.742188 2.273438 -1.546875 2.046875 C -1.359375 1.828125 -1.101562 1.71875 -0.78125 1.71875 C -0.488281 1.71875 -0.238281 1.816406 -0.03125 2.015625 C 0.164062 2.222656 0.265625 2.523438 0.265625 2.921875 C 0.265625 3.171875 0.304688 3.367188 0.390625 3.515625 C 0.484375 3.660156 0.601562 3.734375 0.75 3.734375 C 0.945312 3.734375 1.113281 3.617188 1.25 3.390625 C 1.382812 3.171875 1.453125 2.84375 1.453125 2.40625 L 1.453125 -8.140625 C 1.453125 -8.609375 1.359375 -8.914062 1.171875 -9.0625 C 0.992188 -9.21875 0.644531 -9.289062 0.125 -9.28125 C 0.0507812 -9.269531 0.0078125 -9.316406 0 -9.421875 C -0.0078125 -9.523438 0.03125 -9.59375 0.125 -9.625 C 0.78125 -9.695312 1.375 -9.789062 1.90625 -9.90625 C 2.4375 -10.03125 2.976562 -10.195312 3.53125 -10.40625 C 3.625 -10.445312 3.707031 -10.445312 3.78125 -10.40625 C 3.863281 -10.363281 3.90625 -10.296875 3.90625 -10.203125 Z M 3.90625 1.125 "/></g></g></g><g fill="#6b4631" fill-opacity="1"><g transform="translate(30.839518, 16.094881)"><g><path d="M 9.953125 -0.9375 C 9.953125 -0.664062 10.066406 -0.507812 10.296875 -0.46875 C 10.523438 -0.425781 10.785156 -0.382812 11.078125 -0.34375 C 11.140625 -0.332031 11.171875 -0.269531 11.171875 -0.15625 C 11.171875 -0.0507812 11.140625 0 11.078125 0 L 6.359375 0 C 6.285156 0 6.25 -0.0507812 6.25 -0.15625 C 6.25 -0.269531 6.285156 -0.332031 6.359375 -0.34375 C 6.503906 -0.375 6.644531 -0.390625 6.78125 -0.390625 C 6.914062 -0.398438 7.035156 -0.421875 7.140625 -0.453125 C 7.253906 -0.492188 7.34375 -0.546875 7.40625 -0.609375 C 7.46875 -0.679688 7.5 -0.78125 7.5 -0.90625 L 7.5 -7.3125 C 7.5 -7.9375 7.351562 -8.398438 7.0625 -8.703125 C 6.769531 -9.003906 6.425781 -9.15625 6.03125 -9.15625 C 5.738281 -9.15625 5.476562 -9.082031 5.25 -8.9375 C 5.019531 -8.800781 4.816406 -8.613281 4.640625 -8.375 C 4.460938 -8.144531 4.328125 -7.882812 4.234375 -7.59375 C 4.140625 -7.300781 4.09375 -7 4.09375 -6.6875 L 4.09375 -0.875 C 4.09375 -0.632812 4.207031 -0.492188 4.4375 -0.453125 C 4.664062 -0.421875 4.929688 -0.382812 5.234375 -0.34375 C 5.296875 -0.332031 5.328125 -0.269531 5.328125 -0.15625 C 5.328125 -0.0507812 5.296875 0 5.234375 0 L 0.484375 0 C 0.421875 0 0.390625 -0.0507812 0.390625 -0.15625 C 0.390625 -0.269531 0.421875 -0.332031 0.484375 -0.34375 C 0.785156 -0.382812 1.050781 -0.425781 1.28125 -0.46875 C 1.519531 -0.507812 1.640625 -0.660156 1.640625 -0.921875 L 1.640625 -12.234375 C 1.640625 -12.691406 1.550781 -13.003906 1.375 -13.171875 C 1.195312 -13.335938 0.832031 -13.410156 0.28125 -13.390625 C 0.238281 -13.367188 0.207031 -13.410156 0.1875 -13.515625 C 0.164062 -13.628906 0.195312 -13.703125 0.28125 -13.734375 C 0.945312 -13.804688 1.546875 -13.898438 2.078125 -14.015625 C 2.609375 -14.140625 3.148438 -14.304688 3.703125 -14.515625 C 3.796875 -14.554688 3.882812 -14.554688 3.96875 -14.515625 C 4.050781 -14.472656 4.09375 -14.40625 4.09375 -14.3125 L 4.09375 -8.734375 L 4.171875 -8.734375 C 4.367188 -9.140625 4.707031 -9.519531 5.1875 -9.875 C 5.664062 -10.226562 6.28125 -10.40625 7.03125 -10.40625 C 7.445312 -10.40625 7.835938 -10.335938 8.203125 -10.203125 C 8.566406 -10.066406 8.878906 -9.875 9.140625 -9.625 C 9.398438 -9.382812 9.597656 -9.085938 9.734375 -8.734375 C 9.878906 -8.390625 9.953125 -8 9.953125 -7.5625 Z M 9.953125 -0.9375 "/></g></g></g><g fill="#6b4631" fill-opacity="1"><g transform="translate(41.662674, 16.094881)"><g><path d="M 6.84375 -7.5 C 6.84375 -7.8125 6.800781 -8.109375 6.71875 -8.390625 C 6.632812 -8.671875 6.515625 -8.914062 6.359375 -9.125 C 6.203125 -9.332031 6.015625 -9.5 5.796875 -9.625 C 5.585938 -9.757812 5.34375 -9.828125 5.0625 -9.828125 C 4.59375 -9.828125 4.171875 -9.617188 3.796875 -9.203125 C 3.429688 -8.785156 3.15625 -8.21875 2.96875 -7.5 Z M 2.859375 -6.921875 C 2.773438 -6.472656 2.734375 -5.992188 2.734375 -5.484375 C 2.734375 -4.066406 3.003906 -2.960938 3.546875 -2.171875 C 4.085938 -1.390625 4.847656 -1 5.828125 -1 C 6.421875 -1 6.925781 -1.125 7.34375 -1.375 C 7.757812 -1.625 8.082031 -1.894531 8.3125 -2.1875 C 8.375 -2.28125 8.441406 -2.289062 8.515625 -2.21875 C 8.597656 -2.144531 8.628906 -2.078125 8.609375 -2.015625 C 8.472656 -1.742188 8.28125 -1.472656 8.03125 -1.203125 C 7.78125 -0.941406 7.484375 -0.707031 7.140625 -0.5 C 6.804688 -0.289062 6.425781 -0.125 6 0 C 5.570312 0.132812 5.101562 0.203125 4.59375 0.203125 C 3.945312 0.203125 3.351562 0.0859375 2.8125 -0.140625 C 2.28125 -0.367188 1.832031 -0.703125 1.46875 -1.140625 C 1.101562 -1.578125 0.816406 -2.101562 0.609375 -2.71875 C 0.410156 -3.34375 0.3125 -4.046875 0.3125 -4.828125 C 0.3125 -5.640625 0.425781 -6.390625 0.65625 -7.078125 C 0.882812 -7.765625 1.210938 -8.351562 1.640625 -8.84375 C 2.066406 -9.332031 2.582031 -9.710938 3.1875 -9.984375 C 3.789062 -10.265625 4.46875 -10.40625 5.21875 -10.40625 C 5.6875 -10.40625 6.125 -10.347656 6.53125 -10.234375 C 6.945312 -10.117188 7.300781 -9.960938 7.59375 -9.765625 C 7.882812 -9.566406 8.113281 -9.328125 8.28125 -9.046875 C 8.457031 -8.773438 8.546875 -8.484375 8.546875 -8.171875 C 8.546875 -7.816406 8.425781 -7.519531 8.1875 -7.28125 C 7.957031 -7.039062 7.625 -6.921875 7.1875 -6.921875 Z M 2.859375 -6.921875 "/></g></g></g><g fill="#6b4631" fill-opacity="1"><g transform="translate(50.341988, 16.094881)"><g><path d="M 9.9375 -0.9375 C 9.9375 -0.664062 10.050781 -0.507812 10.28125 -0.46875 C 10.507812 -0.425781 10.773438 -0.382812 11.078125 -0.34375 C 11.140625 -0.332031 11.171875 -0.269531 11.171875 -0.15625 C 11.171875 -0.0507812 11.140625 0 11.078125 0 L 6.359375 0 C 6.285156 0 6.25 -0.0507812 6.25 -0.15625 C 6.25 -0.269531 6.285156 -0.332031 6.359375 -0.34375 C 6.503906 -0.375 6.640625 -0.390625 6.765625 -0.390625 C 6.898438 -0.398438 7.019531 -0.421875 7.125 -0.453125 C 7.238281 -0.492188 7.328125 -0.546875 7.390625 -0.609375 C 7.453125 -0.679688 7.484375 -0.78125 7.484375 -0.90625 L 7.484375 -7.3125 C 7.484375 -7.9375 7.335938 -8.398438 7.046875 -8.703125 C 6.765625 -9.003906 6.425781 -9.15625 6.03125 -9.15625 C 5.738281 -9.15625 5.476562 -9.082031 5.25 -8.9375 C 5.019531 -8.800781 4.816406 -8.613281 4.640625 -8.375 C 4.460938 -8.144531 4.328125 -7.882812 4.234375 -7.59375 C 4.140625 -7.300781 4.09375 -7 4.09375 -6.6875 L 4.09375 -0.875 C 4.09375 -0.632812 4.207031 -0.492188 4.4375 -0.453125 C 4.664062 -0.421875 4.925781 -0.382812 5.21875 -0.34375 C 5.28125 -0.332031 5.3125 -0.269531 5.3125 -0.15625 C 5.3125 -0.0507812 5.28125 0 5.21875 0 L 0.484375 0 C 0.421875 0 0.390625 -0.0507812 0.390625 -0.15625 C 0.390625 -0.269531 0.421875 -0.332031 0.484375 -0.34375 C 0.785156 -0.382812 1.050781 -0.425781 1.28125 -0.46875 C 1.519531 -0.507812 1.640625 -0.660156 1.640625 -0.921875 L 1.640625 -7.96875 C 1.640625 -8.40625 1.550781 -8.703125 1.375 -8.859375 C 1.195312 -9.023438 0.832031 -9.097656 0.28125 -9.078125 C 0.238281 -9.054688 0.207031 -9.097656 0.1875 -9.203125 C 0.164062 -9.316406 0.195312 -9.390625 0.28125 -9.421875 C 0.945312 -9.492188 1.546875 -9.585938 2.078125 -9.703125 C 2.609375 -9.828125 3.148438 -9.992188 3.703125 -10.203125 C 3.796875 -10.242188 3.882812 -10.242188 3.96875 -10.203125 C 4.050781 -10.160156 4.09375 -10.09375 4.09375 -10 L 4.09375 -8.703125 L 4.171875 -8.703125 C 4.273438 -8.910156 4.410156 -9.113281 4.578125 -9.3125 C 4.742188 -9.519531 4.941406 -9.703125 5.171875 -9.859375 C 5.410156 -10.015625 5.679688 -10.144531 5.984375 -10.25 C 6.296875 -10.351562 6.644531 -10.40625 7.03125 -10.40625 C 7.445312 -10.40625 7.832031 -10.335938 8.1875 -10.203125 C 8.550781 -10.066406 8.859375 -9.875 9.109375 -9.625 C 9.367188 -9.382812 9.570312 -9.085938 9.71875 -8.734375 C 9.863281 -8.390625 9.9375 -8 9.9375 -7.5625 Z M 9.9375 -0.9375 "/></g></g></g></g></g></svg>