<svg xmlns="http://www.w3.org/2000/svg" xmlns:xlink="http://www.w3.org/1999/xlink" width="500" zoomAndPan="magnify" viewBox="0 0 375 112.499997" height="150" preserveAspectRatio="xMidYMid meet" version="1.0"><defs><g/><clipPath id="ace4038d92"><rect x="0" width="268" y="0" height="108"/></clipPath></defs><g transform="matrix(1, 0, 0, 1, 50, 0)"><g clip-path="url(#ace4038d92)"><g fill="#000000" fill-opacity="1"><g transform="translate(3.286811, 84.795324)"><g><path d="M 44.9375 -30.609375 C 45.195312 -30.347656 45.132812 -30.085938 44.75 -29.828125 C 43.582031 -28.796875 42.710938 -28.054688 42.140625 -27.609375 C 38.191406 -24.566406 35.734375 -22.628906 34.765625 -21.796875 C 30.898438 -18.503906 26.445312 -13.691406 21.40625 -7.359375 C 20.957031 -6.710938 20.695312 -6.066406 20.625 -5.421875 L 18.40625 5.234375 C 17.625 8.910156 16.425781 12.394531 14.8125 15.6875 C 14.039062 17.363281 13.300781 18.625 12.59375 19.46875 C 12.007812 20.3125 11.425781 20.894531 10.84375 21.21875 C 10.007812 21.664062 9.253906 21.742188 8.578125 21.453125 C 7.898438 21.160156 7.429688 20.5625 7.171875 19.65625 C 6.972656 19.007812 6.90625 18.363281 6.96875 17.71875 C 7.039062 17.007812 7.269531 16.007812 7.65625 14.71875 C 7.914062 14.207031 8.253906 13.429688 8.671875 12.390625 C 9.085938 11.359375 9.394531 10.585938 9.59375 10.078125 C 12.5 4.328125 15.46875 -0.742188 18.5 -5.140625 C 19.207031 -6.234375 19.691406 -7.394531 19.953125 -8.625 C 20.859375 -14.300781 21.601562 -18.5625 22.1875 -21.40625 C 23.34375 -27.40625 24.34375 -32.410156 25.1875 -36.421875 C 25.375 -37.390625 25.375 -38.003906 25.1875 -38.265625 C 20.019531 -32.898438 14.722656 -28.570312 9.296875 -25.28125 C 7.421875 -24.1875 5.9375 -23.476562 4.84375 -23.15625 C 4.070312 -22.894531 3.265625 -22.695312 2.421875 -22.5625 C 0.679688 -22.5625 -0.382812 -23.40625 -0.78125 -25.09375 C -0.96875 -25.601562 -1 -26.179688 -0.875 -26.828125 C -0.675781 -27.859375 -0.351562 -28.695312 0.09375 -29.34375 C 1.582031 -32.0625 3.742188 -34.191406 6.578125 -35.734375 C 9.421875 -37.285156 12.363281 -37.929688 15.40625 -37.671875 C 16.757812 -37.609375 17.757812 -37.414062 18.40625 -37.09375 C 19.050781 -36.769531 19.828125 -36.125 20.734375 -35.15625 C 20.984375 -35.21875 21.335938 -35.476562 21.796875 -35.9375 C 24.566406 -38.644531 26.179688 -40.320312 26.640625 -40.96875 C 26.898438 -41.226562 27.125 -41.257812 27.3125 -41.0625 C 27.507812 -40.875 27.578125 -40.679688 27.515625 -40.484375 L 26.921875 -38.265625 C 26.410156 -35.867188 25.640625 -32.21875 24.609375 -27.3125 C 24.472656 -26.863281 23.695312 -22.472656 22.28125 -14.140625 C 21.894531 -12.328125 21.632812 -10.9375 21.5 -9.96875 C 21.820312 -9.90625 22.113281 -10.066406 22.375 -10.453125 C 22.820312 -10.972656 23.484375 -11.734375 24.359375 -12.734375 C 25.234375 -13.734375 25.863281 -14.492188 26.25 -15.015625 C 29.21875 -18.628906 32.898438 -22.050781 37.296875 -25.28125 C 39.742188 -27.09375 41.519531 -28.476562 42.625 -29.4375 L 44.171875 -30.609375 C 44.492188 -30.734375 44.75 -30.734375 44.9375 -30.609375 Z M 18.890625 -33.21875 C 19.210938 -33.539062 19.40625 -33.832031 19.46875 -34.09375 C 18.882812 -34.738281 18.109375 -35.125 17.140625 -35.25 C 10.617188 -36.21875 5.488281 -33.863281 1.75 -28.1875 C 1.351562 -27.601562 1.0625 -26.957031 0.875 -26.25 C 0.550781 -24.4375 1.289062 -23.628906 3.09375 -23.828125 C 3.226562 -23.828125 3.421875 -23.859375 3.671875 -23.921875 C 3.929688 -23.984375 4.128906 -24.015625 4.265625 -24.015625 C 5.492188 -24.410156 6.625 -24.894531 7.65625 -25.46875 C 11.132812 -27.28125 14.878906 -29.863281 18.890625 -33.21875 Z M 13.46875 15.203125 C 15.269531 11.398438 17.046875 5.265625 18.796875 -3.203125 C 18.273438 -2.804688 17.820312 -2.285156 17.4375 -1.640625 C 15.238281 1.910156 13.429688 5.039062 12.015625 7.75 C 10.648438 10.332031 9.613281 12.625 8.90625 14.625 C 8.519531 15.914062 8.265625 16.914062 8.140625 17.625 C 7.941406 18.144531 7.972656 18.695312 8.234375 19.28125 C 8.679688 20.375 9.359375 20.597656 10.265625 19.953125 C 10.585938 19.828125 11.039062 19.375 11.625 18.59375 C 12.070312 17.882812 12.6875 16.753906 13.46875 15.203125 Z M 13.46875 15.203125 "/></g></g></g><g fill="#000000" fill-opacity="1"><g transform="translate(46.387615, 84.795324)"><g><path d="M 9.6875 -20.140625 C 6.582031 -20.140625 4.222656 -21.5625 2.609375 -24.40625 C 2.546875 -24.664062 2.429688 -25.019531 2.265625 -25.46875 C 2.109375 -25.925781 1.96875 -26.25 1.84375 -26.4375 C 0.613281 -28.894531 0.546875 -33.804688 1.640625 -41.171875 C 2.679688 -48.460938 4.71875 -55.5625 7.75 -62.46875 C 8.976562 -65.25 10.300781 -67.609375 11.71875 -69.546875 C 12.363281 -70.453125 13.300781 -71.484375 14.53125 -72.640625 C 15.300781 -73.285156 16.171875 -73.867188 17.140625 -74.390625 C 18.367188 -74.898438 19.5625 -74.894531 20.71875 -74.375 C 21.882812 -73.863281 22.695312 -72.992188 23.15625 -71.765625 C 23.539062 -70.734375 23.734375 -69.410156 23.734375 -67.796875 C 23.671875 -65.410156 23.15625 -62.894531 22.1875 -60.25 C 21.144531 -57.46875 19.367188 -53.882812 16.859375 -49.5 C 13.691406 -44.007812 9.71875 -38.164062 4.9375 -31.96875 C 4.75 -31.832031 4.523438 -31.570312 4.265625 -31.1875 C 4.003906 -30.800781 3.8125 -30.539062 3.6875 -30.40625 C 3.164062 -29.832031 3.003906 -29.191406 3.203125 -28.484375 C 3.847656 -26.410156 4.296875 -25.148438 4.546875 -24.703125 C 5.972656 -22.242188 8.101562 -21.113281 10.9375 -21.3125 C 13.65625 -21.632812 16.628906 -24.28125 19.859375 -29.25 C 19.984375 -29.570312 20.238281 -29.992188 20.625 -30.515625 C 20.695312 -30.578125 20.796875 -30.609375 20.921875 -30.609375 C 21.117188 -30.546875 21.21875 -30.382812 21.21875 -30.125 C 21.019531 -29.738281 20.921875 -29.546875 20.921875 -29.546875 C 17.492188 -23.472656 13.75 -20.335938 9.6875 -20.140625 Z M 3.09375 -31.375 C 3.351562 -31.507812 3.804688 -31.992188 4.453125 -32.828125 C 4.972656 -33.609375 5.957031 -35 7.40625 -37 C 8.863281 -39 9.976562 -40.550781 10.75 -41.65625 C 14.425781 -47.132812 17.332031 -52.070312 19.46875 -56.46875 C 21.144531 -59.757812 22.210938 -62.988281 22.671875 -66.15625 C 22.921875 -68.351562 22.820312 -70.0625 22.375 -71.28125 C 21.988281 -72.382812 21.3125 -73.113281 20.34375 -73.46875 C 19.375 -73.820312 18.375 -73.675781 17.34375 -73.03125 C 16.882812 -72.707031 16.269531 -72.160156 15.5 -71.390625 C 13.75 -69.578125 12.195312 -67.347656 10.84375 -64.703125 C 8.71875 -60.503906 6.941406 -55.820312 5.515625 -50.65625 C 3.898438 -44.976562 3 -39.070312 2.8125 -32.9375 C 2.8125 -32.15625 2.90625 -31.632812 3.09375 -31.375 Z M 3.09375 -31.375 "/></g></g></g><g fill="#000000" fill-opacity="1"><g transform="translate(65.27449, 84.795324)"><g><path d="M 11.53125 -26.640625 C 10.101562 -26.253906 9.296875 -26.800781 9.109375 -28.28125 C 9.046875 -29.050781 9.109375 -29.921875 9.296875 -30.890625 C 9.429688 -31.609375 9.460938 -32.0625 9.390625 -32.25 C 9.265625 -32.25 9.132812 -32.21875 9 -32.15625 C 8.875 -32.09375 8.78125 -32.023438 8.71875 -31.953125 C 8.65625 -31.890625 8.570312 -31.8125 8.46875 -31.71875 C 8.375 -31.625 8.296875 -31.546875 8.234375 -31.484375 C 6.742188 -30.191406 5.390625 -29.253906 4.171875 -28.671875 C 3.710938 -28.410156 3.257812 -28.1875 2.8125 -28 C 2.164062 -27.800781 1.664062 -27.863281 1.3125 -28.1875 C 0.957031 -28.507812 0.84375 -28.992188 0.96875 -29.640625 C 0.96875 -29.765625 1.03125 -30.019531 1.15625 -30.40625 C 1.550781 -31.3125 2.132812 -32.054688 2.90625 -32.640625 C 4.257812 -33.609375 5.613281 -33.609375 6.96875 -32.640625 L 7.078125 -32.546875 L 7.171875 -32.546875 C 7.617188 -32.222656 8.003906 -32.222656 8.328125 -32.546875 L 10.171875 -34.390625 C 10.492188 -34.640625 10.75 -34.664062 10.9375 -34.46875 C 11.132812 -34.28125 11.171875 -34.125 11.046875 -34 C 10.972656 -33.476562 10.8125 -32.703125 10.5625 -31.671875 C 10.238281 -30.441406 10.109375 -29.3125 10.171875 -28.28125 C 10.234375 -27.769531 10.554688 -27.546875 11.140625 -27.609375 C 12.109375 -27.734375 14.691406 -28.796875 18.890625 -30.796875 C 19.148438 -30.796875 19.3125 -30.734375 19.375 -30.609375 C 19.5 -30.285156 19.335938 -29.992188 18.890625 -29.734375 C 15.523438 -28.054688 13.070312 -27.023438 11.53125 -26.640625 Z M 3.296875 -29.25 C 4.003906 -29.507812 4.742188 -29.863281 5.515625 -30.3125 C 5.972656 -30.632812 6.234375 -30.894531 6.296875 -31.09375 C 6.359375 -31.21875 6.273438 -31.328125 6.046875 -31.421875 C 5.828125 -31.523438 5.554688 -31.578125 5.234375 -31.578125 C 4.710938 -31.441406 4.320312 -31.3125 4.0625 -31.1875 C 3.289062 -30.601562 2.773438 -29.988281 2.515625 -29.34375 C 2.835938 -29.09375 3.097656 -29.0625 3.296875 -29.25 Z M 3.296875 -29.25 "/></g></g></g><g fill="#000000" fill-opacity="1"><g transform="translate(82.708521, 84.795324)"><g><path d="M 2.515625 -25.28125 C 1.742188 -24.832031 1.164062 -25.023438 0.78125 -25.859375 C 0.582031 -26.179688 0.484375 -26.503906 0.484375 -26.828125 C 0.484375 -28.378906 0.742188 -29.769531 1.265625 -31 L 1.546875 -31.28125 C 1.742188 -31.476562 2.035156 -31.546875 2.421875 -31.484375 C 2.617188 -31.410156 2.71875 -31.179688 2.71875 -30.796875 C 2.71875 -30.347656 2.648438 -29.800781 2.515625 -29.15625 C 2.515625 -28.957031 2.5 -28.710938 2.46875 -28.421875 C 2.4375 -28.140625 2.421875 -27.929688 2.421875 -27.796875 C 2.421875 -27.609375 2.484375 -27.515625 2.609375 -27.515625 L 3 -27.515625 C 3.457031 -27.960938 4.132812 -28.832031 5.03125 -30.125 C 6.132812 -31.925781 7.265625 -33.472656 8.421875 -34.765625 C 8.679688 -35.085938 9.070312 -35.507812 9.59375 -36.03125 C 9.71875 -36.226562 9.972656 -36.453125 10.359375 -36.703125 C 11.390625 -37.421875 12.003906 -37.195312 12.203125 -36.03125 C 12.265625 -35.769531 12.3125 -35.378906 12.34375 -34.859375 C 12.375 -34.347656 12.390625 -34.03125 12.390625 -33.90625 L 11.8125 -28.671875 C 11.75 -28.410156 11.71875 -27.988281 11.71875 -27.40625 C 11.71875 -27.082031 11.78125 -26.890625 11.90625 -26.828125 C 12.039062 -26.765625 12.238281 -26.863281 12.5 -27.125 C 12.625 -27.3125 12.847656 -27.613281 13.171875 -28.03125 C 13.492188 -28.457031 13.71875 -28.769531 13.84375 -28.96875 C 14.625 -29.863281 15.367188 -30.503906 16.078125 -30.890625 C 16.984375 -31.347656 17.789062 -31.222656 18.5 -30.515625 L 19.28125 -29.640625 C 19.789062 -29.054688 20.398438 -28.601562 21.109375 -28.28125 C 21.890625 -27.957031 22.695312 -27.988281 23.53125 -28.375 C 24.113281 -28.632812 24.890625 -29.1875 25.859375 -30.03125 C 26.117188 -30.21875 26.359375 -30.375 26.578125 -30.5 C 26.804688 -30.632812 26.96875 -30.703125 27.0625 -30.703125 C 27.164062 -30.703125 27.25 -30.671875 27.3125 -30.609375 C 27.375 -30.285156 27.117188 -29.894531 26.546875 -29.4375 C 25.898438 -28.800781 25.414062 -28.351562 25.09375 -28.09375 C 22.894531 -26.28125 20.664062 -26.503906 18.40625 -28.765625 C 18.144531 -29.023438 17.820312 -29.410156 17.4375 -29.921875 C 17.238281 -30.179688 16.945312 -30.25 16.5625 -30.125 C 15.789062 -29.800781 15.175781 -29.316406 14.71875 -28.671875 C 14.53125 -28.472656 14.289062 -28.164062 14 -27.75 C 13.707031 -27.332031 13.492188 -27.023438 13.359375 -26.828125 C 12.972656 -26.316406 12.648438 -25.929688 12.390625 -25.671875 C 11.554688 -24.960938 11.007812 -25.125 10.75 -26.15625 C 10.6875 -26.414062 10.65625 -26.867188 10.65625 -27.515625 L 10.9375 -30.703125 C 11.070312 -31.472656 11.203125 -32.703125 11.328125 -34.390625 C 11.460938 -34.898438 11.429688 -35.347656 11.234375 -35.734375 C 11.109375 -35.992188 10.945312 -36.03125 10.75 -35.84375 C 10.226562 -35.445312 9.773438 -34.992188 9.390625 -34.484375 C 8.359375 -33.378906 7.195312 -31.765625 5.90625 -29.640625 C 5 -28.222656 4.289062 -27.15625 3.78125 -26.4375 C 3.394531 -25.789062 2.972656 -25.40625 2.515625 -25.28125 Z M 2.515625 -25.28125 "/></g></g></g><g fill="#000000" fill-opacity="1"><g transform="translate(108.084721, 84.795324)"><g><path d="M 2.515625 -25.28125 C 1.742188 -24.832031 1.164062 -25.023438 0.78125 -25.859375 C 0.582031 -26.179688 0.484375 -26.503906 0.484375 -26.828125 C 0.484375 -28.378906 0.742188 -29.769531 1.265625 -31 L 1.546875 -31.28125 C 1.742188 -31.476562 2.035156 -31.546875 2.421875 -31.484375 C 2.617188 -31.410156 2.71875 -31.179688 2.71875 -30.796875 C 2.71875 -30.347656 2.648438 -29.800781 2.515625 -29.15625 C 2.515625 -28.957031 2.5 -28.710938 2.46875 -28.421875 C 2.4375 -28.140625 2.421875 -27.929688 2.421875 -27.796875 C 2.421875 -27.609375 2.484375 -27.515625 2.609375 -27.515625 L 3 -27.515625 C 3.457031 -27.960938 4.132812 -28.832031 5.03125 -30.125 C 6.132812 -31.925781 7.265625 -33.472656 8.421875 -34.765625 C 8.679688 -35.085938 9.070312 -35.507812 9.59375 -36.03125 C 9.71875 -36.226562 9.972656 -36.453125 10.359375 -36.703125 C 11.390625 -37.421875 12.003906 -37.195312 12.203125 -36.03125 C 12.265625 -35.769531 12.3125 -35.378906 12.34375 -34.859375 C 12.375 -34.347656 12.390625 -34.03125 12.390625 -33.90625 L 11.8125 -28.671875 C 11.75 -28.410156 11.71875 -27.988281 11.71875 -27.40625 C 11.71875 -27.082031 11.78125 -26.890625 11.90625 -26.828125 C 12.039062 -26.765625 12.238281 -26.863281 12.5 -27.125 C 12.625 -27.3125 12.847656 -27.613281 13.171875 -28.03125 C 13.492188 -28.457031 13.71875 -28.769531 13.84375 -28.96875 C 14.625 -29.863281 15.367188 -30.503906 16.078125 -30.890625 C 16.984375 -31.347656 17.789062 -31.222656 18.5 -30.515625 L 19.28125 -29.640625 C 19.789062 -29.054688 20.398438 -28.601562 21.109375 -28.28125 C 21.890625 -27.957031 22.695312 -27.988281 23.53125 -28.375 C 24.113281 -28.632812 24.890625 -29.1875 25.859375 -30.03125 C 26.117188 -30.21875 26.359375 -30.375 26.578125 -30.5 C 26.804688 -30.632812 26.96875 -30.703125 27.0625 -30.703125 C 27.164062 -30.703125 27.25 -30.671875 27.3125 -30.609375 C 27.375 -30.285156 27.117188 -29.894531 26.546875 -29.4375 C 25.898438 -28.800781 25.414062 -28.351562 25.09375 -28.09375 C 22.894531 -26.28125 20.664062 -26.503906 18.40625 -28.765625 C 18.144531 -29.023438 17.820312 -29.410156 17.4375 -29.921875 C 17.238281 -30.179688 16.945312 -30.25 16.5625 -30.125 C 15.789062 -29.800781 15.175781 -29.316406 14.71875 -28.671875 C 14.53125 -28.472656 14.289062 -28.164062 14 -27.75 C 13.707031 -27.332031 13.492188 -27.023438 13.359375 -26.828125 C 12.972656 -26.316406 12.648438 -25.929688 12.390625 -25.671875 C 11.554688 -24.960938 11.007812 -25.125 10.75 -26.15625 C 10.6875 -26.414062 10.65625 -26.867188 10.65625 -27.515625 L 10.9375 -30.703125 C 11.070312 -31.472656 11.203125 -32.703125 11.328125 -34.390625 C 11.460938 -34.898438 11.429688 -35.347656 11.234375 -35.734375 C 11.109375 -35.992188 10.945312 -36.03125 10.75 -35.84375 C 10.226562 -35.445312 9.773438 -34.992188 9.390625 -34.484375 C 8.359375 -33.378906 7.195312 -31.765625 5.90625 -29.640625 C 5 -28.222656 4.289062 -27.15625 3.78125 -26.4375 C 3.394531 -25.789062 2.972656 -25.40625 2.515625 -25.28125 Z M 2.515625 -25.28125 "/></g></g></g><g fill="#000000" fill-opacity="1"><g transform="translate(133.460921, 84.795324)"><g><path d="M 3.09375 -23.15625 C 1.476562 -23.28125 0.476562 -24.179688 0.09375 -25.859375 C 0.03125 -26.242188 0 -26.796875 0 -27.515625 C 0 -29.515625 0.421875 -31.253906 1.265625 -32.734375 C 1.773438 -33.515625 2.191406 -34.03125 2.515625 -34.28125 C 3.035156 -34.675781 3.617188 -34.875 4.265625 -34.875 C 4.972656 -34.875 5.457031 -34.613281 5.71875 -34.09375 C 6.101562 -33.507812 6.035156 -32.894531 5.515625 -32.25 C 4.359375 -31.019531 3.265625 -30.28125 2.234375 -30.03125 C 1.515625 -29.894531 1.09375 -29.378906 0.96875 -28.484375 C 0.84375 -27.378906 0.941406 -26.472656 1.265625 -25.765625 C 1.648438 -24.796875 2.257812 -24.25 3.09375 -24.125 C 5.488281 -23.863281 8.71875 -25.765625 12.78125 -29.828125 L 13.65625 -30.703125 C 13.851562 -30.703125 13.984375 -30.671875 14.046875 -30.609375 C 14.109375 -30.472656 14.140625 -30.375 14.140625 -30.3125 C 14.140625 -30.125 14.078125 -29.960938 13.953125 -29.828125 C 12.523438 -28.148438 10.695312 -26.597656 8.46875 -25.171875 C 6.25 -23.753906 4.457031 -23.082031 3.09375 -23.15625 Z M 1.75 -31.28125 C 3.101562 -31.925781 4.003906 -32.570312 4.453125 -33.21875 C 4.585938 -33.28125 4.585938 -33.378906 4.453125 -33.515625 C 4.453125 -33.640625 4.359375 -33.703125 4.171875 -33.703125 C 3.773438 -33.835938 3.414062 -33.742188 3.09375 -33.421875 C 2.382812 -32.835938 1.9375 -32.125 1.75 -31.28125 Z M 1.75 -31.28125 "/></g></g></g><g fill="#000000" fill-opacity="1"><g transform="translate(145.664747, 84.795324)"><g><path d="M 1.9375 -19.5625 C 0.96875 -19.175781 0.0976562 -19.40625 -0.671875 -20.25 C -1.773438 -21.40625 -2.164062 -22.726562 -1.84375 -24.21875 C -1.320312 -27.382812 0 -30.03125 2.125 -32.15625 L 3.296875 -32.9375 C 3.484375 -33.0625 3.835938 -33.125 4.359375 -33.125 C 5.066406 -33.125 5.488281 -32.800781 5.625 -32.15625 C 5.6875 -31.632812 5.523438 -31.210938 5.140625 -30.890625 C 3.003906 -29.347656 1.582031 -26.769531 0.875 -23.15625 C 0.675781 -22.632812 0.707031 -22.019531 0.96875 -21.3125 C 1.226562 -20.789062 1.550781 -20.628906 1.9375 -20.828125 C 2.382812 -21.015625 2.835938 -21.238281 3.296875 -21.5 C 4.328125 -22.144531 5.164062 -22.820312 5.8125 -23.53125 C 7.363281 -25.144531 9.363281 -27.957031 11.8125 -31.96875 C 12.070312 -32.351562 12.007812 -32.675781 11.625 -32.9375 C 8.59375 -35.382812 6.554688 -39.160156 5.515625 -44.265625 C 4.484375 -49.753906 4.9375 -55.335938 6.875 -61.015625 C 7.394531 -62.441406 8.140625 -63.894531 9.109375 -65.375 C 10.328125 -66.988281 11.8125 -68.28125 13.5625 -69.25 C 14.394531 -69.707031 15.332031 -70 16.375 -70.125 C 18.695312 -70.507812 20.3125 -69.640625 21.21875 -67.515625 C 22.050781 -65.960938 22.40625 -64.023438 22.28125 -61.703125 C 22.082031 -57.828125 21.40625 -53.953125 20.25 -50.078125 C 19.019531 -45.816406 16.953125 -40.679688 14.046875 -34.671875 C 13.984375 -34.546875 13.914062 -34.382812 13.84375 -34.1875 C 13.519531 -33.476562 13.519531 -33.023438 13.84375 -32.828125 L 14.921875 -32.25 C 15.890625 -31.800781 17.113281 -31.445312 18.59375 -31.1875 C 18.914062 -31.125 19.398438 -31.039062 20.046875 -30.9375 C 20.691406 -30.84375 21.144531 -30.796875 21.40625 -30.796875 C 21.664062 -30.671875 21.796875 -30.507812 21.796875 -30.3125 C 21.796875 -30.25 21.632812 -30.15625 21.3125 -30.03125 L 20.921875 -30.03125 C 18.210938 -30.03125 15.851562 -30.546875 13.84375 -31.578125 C 13.59375 -31.703125 13.429688 -31.796875 13.359375 -31.859375 C 12.972656 -32.054688 12.6875 -31.992188 12.5 -31.671875 C 12.300781 -31.410156 12.070312 -31.023438 11.8125 -30.515625 C 10.394531 -28.316406 9.332031 -26.703125 8.625 -25.671875 C 7.457031 -23.796875 6.003906 -22.242188 4.265625 -21.015625 C 3.617188 -20.429688 2.84375 -19.945312 1.9375 -19.5625 Z M 12.109375 -33.90625 C 12.492188 -33.707031 12.785156 -33.738281 12.984375 -34 C 13.171875 -34.382812 13.296875 -34.609375 13.359375 -34.671875 C 17.691406 -43.328125 20.273438 -50.851562 21.109375 -57.25 C 21.628906 -60.539062 21.664062 -63.023438 21.21875 -64.703125 C 20.957031 -65.992188 20.632812 -66.898438 20.25 -67.421875 C 19.46875 -68.773438 18.300781 -69.382812 16.75 -69.25 C 15.53125 -69.1875 14.4375 -68.800781 13.46875 -68.09375 C 11.207031 -66.675781 9.429688 -64.546875 8.140625 -61.703125 C 6.910156 -58.859375 6.132812 -54.953125 5.8125 -49.984375 C 6.070312 -46.691406 6.425781 -44.203125 6.875 -42.515625 C 7.582031 -40.066406 8.613281 -37.9375 9.96875 -36.125 C 10.550781 -35.351562 11.265625 -34.613281 12.109375 -33.90625 Z M 12.109375 -33.90625 "/></g></g></g><g fill="#000000" fill-opacity="1"><g transform="translate(166.004452, 84.795324)"><g><path d="M 2.609375 -25.09375 C 1.898438 -24.507812 1.414062 -24.671875 1.15625 -25.578125 C 0.96875 -26.222656 0.9375 -27.125 1.0625 -28.28125 C 1.125 -28.863281 1.285156 -29.570312 1.546875 -30.40625 C 1.679688 -30.800781 1.875 -31 2.125 -31 C 2.382812 -30.925781 2.515625 -30.664062 2.515625 -30.21875 C 2.390625 -29.695312 2.328125 -29.242188 2.328125 -28.859375 C 2.191406 -27.828125 2.191406 -27.054688 2.328125 -26.546875 C 3.160156 -27.378906 3.738281 -27.988281 4.0625 -28.375 C 5.226562 -29.539062 6.296875 -30.378906 7.265625 -30.890625 C 8.679688 -31.796875 10.066406 -31.734375 11.421875 -30.703125 C 12.003906 -30.253906 12.75 -29.640625 13.65625 -28.859375 C 14.175781 -28.210938 15.160156 -28.003906 16.609375 -28.234375 C 18.066406 -28.460938 19.359375 -28.753906 20.484375 -29.109375 C 21.617188 -29.460938 22.703125 -29.863281 23.734375 -30.3125 C 23.921875 -30.445312 24.222656 -30.59375 24.640625 -30.75 C 25.066406 -30.914062 25.378906 -31.03125 25.578125 -31.09375 C 25.898438 -31.09375 26.125 -30.992188 26.25 -30.796875 C 26.3125 -30.671875 26.25 -30.507812 26.0625 -30.3125 C 24.894531 -29.476562 23.488281 -28.722656 21.84375 -28.046875 C 20.195312 -27.367188 18.484375 -26.898438 16.703125 -26.640625 C 14.929688 -26.378906 13.53125 -26.632812 12.5 -27.40625 C 11.457031 -28.050781 10.710938 -28.570312 10.265625 -28.96875 C 9.492188 -29.476562 8.65625 -29.539062 7.75 -29.15625 C 6.394531 -28.382812 5.164062 -27.445312 4.0625 -26.34375 Z M 2.609375 -25.09375 "/></g></g></g><g fill="#000000" fill-opacity="1"><g transform="translate(190.315241, 84.795324)"><g><path d="M 11.53125 -26.640625 C 10.101562 -26.253906 9.296875 -26.800781 9.109375 -28.28125 C 9.046875 -29.050781 9.109375 -29.921875 9.296875 -30.890625 C 9.429688 -31.609375 9.460938 -32.0625 9.390625 -32.25 C 9.265625 -32.25 9.132812 -32.21875 9 -32.15625 C 8.875 -32.09375 8.78125 -32.023438 8.71875 -31.953125 C 8.65625 -31.890625 8.570312 -31.8125 8.46875 -31.71875 C 8.375 -31.625 8.296875 -31.546875 8.234375 -31.484375 C 6.742188 -30.191406 5.390625 -29.253906 4.171875 -28.671875 C 3.710938 -28.410156 3.257812 -28.1875 2.8125 -28 C 2.164062 -27.800781 1.664062 -27.863281 1.3125 -28.1875 C 0.957031 -28.507812 0.84375 -28.992188 0.96875 -29.640625 C 0.96875 -29.765625 1.03125 -30.019531 1.15625 -30.40625 C 1.550781 -31.3125 2.132812 -32.054688 2.90625 -32.640625 C 4.257812 -33.609375 5.613281 -33.609375 6.96875 -32.640625 L 7.078125 -32.546875 L 7.171875 -32.546875 C 7.617188 -32.222656 8.003906 -32.222656 8.328125 -32.546875 L 10.171875 -34.390625 C 10.492188 -34.640625 10.75 -34.664062 10.9375 -34.46875 C 11.132812 -34.28125 11.171875 -34.125 11.046875 -34 C 10.972656 -33.476562 10.8125 -32.703125 10.5625 -31.671875 C 10.238281 -30.441406 10.109375 -29.3125 10.171875 -28.28125 C 10.234375 -27.769531 10.554688 -27.546875 11.140625 -27.609375 C 12.109375 -27.734375 14.691406 -28.796875 18.890625 -30.796875 C 19.148438 -30.796875 19.3125 -30.734375 19.375 -30.609375 C 19.5 -30.285156 19.335938 -29.992188 18.890625 -29.734375 C 15.523438 -28.054688 13.070312 -27.023438 11.53125 -26.640625 Z M 3.296875 -29.25 C 4.003906 -29.507812 4.742188 -29.863281 5.515625 -30.3125 C 5.972656 -30.632812 6.234375 -30.894531 6.296875 -31.09375 C 6.359375 -31.21875 6.273438 -31.328125 6.046875 -31.421875 C 5.828125 -31.523438 5.554688 -31.578125 5.234375 -31.578125 C 4.710938 -31.441406 4.320312 -31.3125 4.0625 -31.1875 C 3.289062 -30.601562 2.773438 -29.988281 2.515625 -29.34375 C 2.835938 -29.09375 3.097656 -29.0625 3.296875 -29.25 Z M 3.296875 -29.25 "/></g></g></g><g fill="#000000" fill-opacity="1"><g transform="translate(207.749272, 84.795324)"><g><path d="M 3 -35.0625 C 2.8125 -35.0625 2.664062 -35.09375 2.5625 -35.15625 C 2.46875 -35.21875 2.453125 -35.316406 2.515625 -35.453125 C 2.648438 -36.609375 2.972656 -37.578125 3.484375 -38.359375 C 3.484375 -38.421875 3.644531 -38.453125 3.96875 -38.453125 C 4.03125 -38.453125 4.160156 -38.351562 4.359375 -38.15625 C 4.421875 -38.03125 4.453125 -37.835938 4.453125 -37.578125 C 4.128906 -36.421875 3.90625 -35.742188 3.78125 -35.546875 C 3.582031 -35.222656 3.320312 -35.0625 3 -35.0625 Z M 2.71875 -24.890625 C 1.226562 -25.347656 0.484375 -26.347656 0.484375 -27.890625 C 0.484375 -28.921875 0.707031 -29.859375 1.15625 -30.703125 C 1.351562 -31.085938 1.675781 -31.25 2.125 -31.1875 C 2.582031 -31.0625 2.8125 -30.769531 2.8125 -30.3125 L 2.8125 -29.25 C 2.8125 -28.988281 2.78125 -28.765625 2.71875 -28.578125 L 2.71875 -28.28125 C 2.644531 -27.570312 2.816406 -27.003906 3.234375 -26.578125 C 3.660156 -26.160156 4.226562 -25.953125 4.9375 -25.953125 C 5.457031 -25.953125 6.101562 -26.113281 6.875 -26.4375 C 8.039062 -26.894531 9.363281 -27.703125 10.84375 -28.859375 L 13.171875 -30.609375 C 13.492188 -30.796875 13.71875 -30.859375 13.84375 -30.796875 C 13.976562 -30.796875 14.046875 -30.695312 14.046875 -30.5 C 14.046875 -30.3125 13.976562 -30.21875 13.84375 -30.21875 C 10.945312 -27.832031 8.5625 -26.1875 6.6875 -25.28125 C 5.332031 -24.632812 4.007812 -24.503906 2.71875 -24.890625 Z M 2.71875 -24.890625 "/></g></g></g><g fill="#000000" fill-opacity="1"><g transform="translate(219.856236, 84.795324)"><g><path d="M 9.6875 -20.140625 C 6.582031 -20.140625 4.222656 -21.5625 2.609375 -24.40625 C 2.546875 -24.664062 2.429688 -25.019531 2.265625 -25.46875 C 2.109375 -25.925781 1.96875 -26.25 1.84375 -26.4375 C 0.613281 -28.894531 0.546875 -33.804688 1.640625 -41.171875 C 2.679688 -48.460938 4.71875 -55.5625 7.75 -62.46875 C 8.976562 -65.25 10.300781 -67.609375 11.71875 -69.546875 C 12.363281 -70.453125 13.300781 -71.484375 14.53125 -72.640625 C 15.300781 -73.285156 16.171875 -73.867188 17.140625 -74.390625 C 18.367188 -74.898438 19.5625 -74.894531 20.71875 -74.375 C 21.882812 -73.863281 22.695312 -72.992188 23.15625 -71.765625 C 23.539062 -70.734375 23.734375 -69.410156 23.734375 -67.796875 C 23.671875 -65.410156 23.15625 -62.894531 22.1875 -60.25 C 21.144531 -57.46875 19.367188 -53.882812 16.859375 -49.5 C 13.691406 -44.007812 9.71875 -38.164062 4.9375 -31.96875 C 4.75 -31.832031 4.523438 -31.570312 4.265625 -31.1875 C 4.003906 -30.800781 3.8125 -30.539062 3.6875 -30.40625 C 3.164062 -29.832031 3.003906 -29.191406 3.203125 -28.484375 C 3.847656 -26.410156 4.296875 -25.148438 4.546875 -24.703125 C 5.972656 -22.242188 8.101562 -21.113281 10.9375 -21.3125 C 13.65625 -21.632812 16.628906 -24.28125 19.859375 -29.25 C 19.984375 -29.570312 20.238281 -29.992188 20.625 -30.515625 C 20.695312 -30.578125 20.796875 -30.609375 20.921875 -30.609375 C 21.117188 -30.546875 21.21875 -30.382812 21.21875 -30.125 C 21.019531 -29.738281 20.921875 -29.546875 20.921875 -29.546875 C 17.492188 -23.472656 13.75 -20.335938 9.6875 -20.140625 Z M 3.09375 -31.375 C 3.351562 -31.507812 3.804688 -31.992188 4.453125 -32.828125 C 4.972656 -33.609375 5.957031 -35 7.40625 -37 C 8.863281 -39 9.976562 -40.550781 10.75 -41.65625 C 14.425781 -47.132812 17.332031 -52.070312 19.46875 -56.46875 C 21.144531 -59.757812 22.210938 -62.988281 22.671875 -66.15625 C 22.921875 -68.351562 22.820312 -70.0625 22.375 -71.28125 C 21.988281 -72.382812 21.3125 -73.113281 20.34375 -73.46875 C 19.375 -73.820312 18.375 -73.675781 17.34375 -73.03125 C 16.882812 -72.707031 16.269531 -72.160156 15.5 -71.390625 C 13.75 -69.578125 12.195312 -67.347656 10.84375 -64.703125 C 8.71875 -60.503906 6.941406 -55.820312 5.515625 -50.65625 C 3.898438 -44.976562 3 -39.070312 2.8125 -32.9375 C 2.8125 -32.15625 2.90625 -31.632812 3.09375 -31.375 Z M 3.09375 -31.375 "/></g></g></g><g fill="#000000" fill-opacity="1"><g transform="translate(238.743111, 84.795324)"><g><path d="M 7.265625 -13.171875 C 6.097656 -13.296875 5.675781 -13.941406 6 -15.109375 C 6.132812 -15.628906 6.332031 -16.015625 6.59375 -16.265625 C 7.238281 -17.171875 7.785156 -17.816406 8.234375 -18.203125 C 10.171875 -20.210938 12.332031 -22.023438 14.71875 -23.640625 L 16.65625 -24.984375 C 14.914062 -25.566406 13.046875 -25.859375 11.046875 -25.859375 L 3.875 -25.28125 C 3.101562 -25.28125 2.519531 -25.34375 2.125 -25.46875 C 0.832031 -25.863281 0.285156 -26.609375 0.484375 -27.703125 C 0.679688 -29.765625 1.679688 -31.410156 3.484375 -32.640625 C 3.804688 -32.898438 4.257812 -32.960938 4.84375 -32.828125 C 5.164062 -32.703125 5.40625 -32.460938 5.5625 -32.109375 C 5.726562 -31.753906 5.679688 -31.414062 5.421875 -31.09375 C 5.359375 -31.03125 5.296875 -30.945312 5.234375 -30.84375 C 5.171875 -30.75 5.085938 -30.671875 4.984375 -30.609375 C 4.890625 -30.546875 4.8125 -30.476562 4.75 -30.40625 C 4.425781 -30.019531 4.003906 -29.378906 3.484375 -28.484375 C 3.097656 -27.578125 3.359375 -27.09375 4.265625 -27.03125 C 4.847656 -26.894531 5.71875 -26.765625 6.875 -26.640625 C 7.394531 -26.640625 8.117188 -26.65625 9.046875 -26.6875 C 9.984375 -26.71875 10.679688 -26.734375 11.140625 -26.734375 C 13.523438 -26.734375 15.492188 -26.410156 17.046875 -25.765625 C 17.367188 -25.640625 17.789062 -25.703125 18.3125 -25.953125 L 26.0625 -30.515625 C 26.1875 -30.578125 26.539062 -30.703125 27.125 -30.890625 C 27.382812 -30.890625 27.546875 -30.796875 27.609375 -30.609375 C 27.796875 -30.410156 27.765625 -30.25 27.515625 -30.125 L 22.46875 -27.125 L 18.984375 -25.09375 C 18.597656 -24.832031 18.5 -24.507812 18.6875 -24.125 C 19.144531 -22.894531 19.050781 -21.632812 18.40625 -20.34375 C 16.40625 -16.59375 13.335938 -14.203125 9.203125 -13.171875 C 8.617188 -13.046875 7.972656 -13.046875 7.265625 -13.171875 Z M 7.5625 -14.234375 C 8.59375 -14.234375 9.394531 -14.363281 9.96875 -14.625 C 12.550781 -15.46875 14.71875 -17.019531 16.46875 -19.28125 C 16.976562 -19.789062 17.394531 -20.5 17.71875 -21.40625 L 18.015625 -22.375 C 18.015625 -22.757812 17.984375 -23.050781 17.921875 -23.25 C 17.921875 -23.957031 17.597656 -24.117188 16.953125 -23.734375 C 13.722656 -21.796875 10.785156 -19.4375 8.140625 -16.65625 C 7.878906 -16.394531 7.71875 -16.171875 7.65625 -15.984375 C 7.519531 -15.847656 7.390625 -15.65625 7.265625 -15.40625 C 7.066406 -15.082031 7.015625 -14.804688 7.109375 -14.578125 C 7.210938 -14.347656 7.363281 -14.234375 7.5625 -14.234375 Z M 7.5625 -14.234375 "/></g></g></g></g></g><g fill="#122620" fill-opacity="1"><g transform="translate(214.880536, 77.578545)"><g><path d="M 4.328125 -5.546875 C 4.734375 -5.546875 5.101562 -5.445312 5.4375 -5.25 C 5.78125 -5.050781 6.054688 -4.757812 6.265625 -4.375 C 6.472656 -4 6.578125 -3.53125 6.578125 -2.96875 C 6.578125 -2.300781 6.425781 -1.726562 6.125 -1.25 C 5.832031 -0.78125 5.453125 -0.421875 4.984375 -0.171875 C 4.523438 0.0664062 4.035156 0.1875 3.515625 0.1875 C 2.796875 0.1875 2.164062 -0.0195312 1.625 -0.4375 L 0.5625 0.0625 L 0.546875 0.0625 C 0.503906 0.0625 0.476562 0.0390625 0.46875 0 C 0.457031 -0.03125 0.46875 -0.0507812 0.5 -0.0625 C 0.789062 -0.269531 1 -0.460938 1.125 -0.640625 C 1.25 -0.828125 1.3125 -1.09375 1.3125 -1.4375 L 1.3125 -8.296875 C 1.3125 -8.628906 1.273438 -8.867188 1.203125 -9.015625 C 1.128906 -9.160156 1.007812 -9.234375 0.84375 -9.234375 C 0.71875 -9.234375 0.507812 -9.175781 0.21875 -9.0625 L 0.1875 -9.0625 C 0.164062 -9.0625 0.144531 -9.082031 0.125 -9.125 C 0.113281 -9.175781 0.125 -9.203125 0.15625 -9.203125 L 1.890625 -10.0625 L 1.953125 -10.078125 C 1.972656 -10.078125 2 -10.0625 2.03125 -10.03125 C 2.0625 -10.007812 2.078125 -9.984375 2.078125 -9.953125 L 2.078125 -4.328125 C 2.429688 -4.703125 2.785156 -5 3.140625 -5.21875 C 3.492188 -5.4375 3.890625 -5.546875 4.328125 -5.546875 Z M 3.9375 -0.078125 C 4.476562 -0.078125 4.898438 -0.285156 5.203125 -0.703125 C 5.503906 -1.117188 5.65625 -1.71875 5.65625 -2.5 C 5.65625 -3.332031 5.492188 -3.96875 5.171875 -4.40625 C 4.847656 -4.851562 4.414062 -5.078125 3.875 -5.078125 C 3.5625 -5.078125 3.257812 -4.988281 2.96875 -4.8125 C 2.6875 -4.644531 2.390625 -4.410156 2.078125 -4.109375 L 2.078125 -1.828125 C 2.078125 -1.421875 2.175781 -1.085938 2.375 -0.828125 C 2.582031 -0.566406 2.828125 -0.375 3.109375 -0.25 C 3.398438 -0.132812 3.675781 -0.078125 3.9375 -0.078125 Z M 3.9375 -0.078125 "/></g></g></g><g fill="#122620" fill-opacity="1"><g transform="translate(221.967094, 77.578545)"><g><path d="M 5.984375 -5.359375 C 6.015625 -5.359375 6.03125 -5.328125 6.03125 -5.265625 C 6.03125 -5.210938 6.015625 -5.1875 5.984375 -5.1875 C 5.753906 -5.1875 5.554688 -5.101562 5.390625 -4.9375 C 5.222656 -4.769531 5.066406 -4.5 4.921875 -4.125 L 3.21875 0.390625 C 2.875 1.285156 2.550781 1.984375 2.25 2.484375 C 1.957031 2.992188 1.648438 3.359375 1.328125 3.578125 C 1.003906 3.796875 0.632812 3.90625 0.21875 3.90625 C 0.0195312 3.90625 -0.144531 3.859375 -0.28125 3.765625 C -0.414062 3.671875 -0.484375 3.535156 -0.484375 3.359375 C -0.484375 3.234375 -0.441406 3.128906 -0.359375 3.046875 C -0.273438 2.972656 -0.175781 2.9375 -0.0625 2.9375 C 0.0625 2.9375 0.164062 2.953125 0.25 2.984375 C 0.332031 3.015625 0.421875 3.0625 0.515625 3.125 C 0.535156 3.132812 0.585938 3.160156 0.671875 3.203125 C 0.765625 3.253906 0.875 3.28125 1 3.28125 C 1.21875 3.28125 1.425781 3.179688 1.625 2.984375 C 1.832031 2.785156 2.046875 2.457031 2.265625 2 C 2.492188 1.539062 2.757812 0.910156 3.0625 0.109375 L 0.953125 -4.203125 C 0.742188 -4.609375 0.582031 -4.875 0.46875 -5 C 0.363281 -5.125 0.222656 -5.1875 0.046875 -5.1875 C 0.0234375 -5.1875 0.015625 -5.210938 0.015625 -5.265625 C 0.015625 -5.328125 0.0234375 -5.359375 0.046875 -5.359375 L 0.515625 -5.34375 C 0.628906 -5.332031 0.78125 -5.328125 0.96875 -5.328125 L 1.859375 -5.34375 C 1.992188 -5.351562 2.175781 -5.359375 2.40625 -5.359375 C 2.425781 -5.359375 2.4375 -5.328125 2.4375 -5.265625 C 2.4375 -5.210938 2.425781 -5.1875 2.40625 -5.1875 C 1.863281 -5.1875 1.59375 -5.082031 1.59375 -4.875 C 1.59375 -4.820312 1.617188 -4.75 1.671875 -4.65625 L 3.5 -0.890625 L 4.609375 -4.078125 C 4.679688 -4.304688 4.71875 -4.484375 4.71875 -4.609375 C 4.71875 -4.828125 4.632812 -4.976562 4.46875 -5.0625 C 4.300781 -5.144531 4.03125 -5.1875 3.65625 -5.1875 C 3.632812 -5.1875 3.625 -5.210938 3.625 -5.265625 C 3.625 -5.328125 3.632812 -5.359375 3.65625 -5.359375 C 3.90625 -5.359375 4.09375 -5.351562 4.21875 -5.34375 L 5.0625 -5.328125 L 5.5625 -5.34375 C 5.644531 -5.351562 5.785156 -5.359375 5.984375 -5.359375 Z M 5.984375 -5.359375 "/></g></g></g><g fill="#122620" fill-opacity="1"><g transform="translate(228.011503, 77.578545)"><g/></g></g><g fill="#122620" fill-opacity="1"><g transform="translate(231.262978, 77.578545)"><g><path d="M 3.890625 -8.6875 C 3.910156 -8.6875 3.921875 -8.65625 3.921875 -8.59375 C 3.921875 -8.539062 3.910156 -8.515625 3.890625 -8.515625 C 3.585938 -8.515625 3.363281 -8.484375 3.21875 -8.421875 C 3.082031 -8.367188 2.988281 -8.273438 2.9375 -8.140625 C 2.882812 -8.015625 2.859375 -7.8125 2.859375 -7.53125 L 2.859375 0.390625 C 2.859375 1.304688 2.644531 2.035156 2.21875 2.578125 C 1.789062 3.117188 1.175781 3.390625 0.375 3.390625 C 0.0625 3.390625 -0.179688 3.332031 -0.359375 3.21875 C -0.546875 3.113281 -0.640625 2.972656 -0.640625 2.796875 C -0.640625 2.648438 -0.597656 2.535156 -0.515625 2.453125 C -0.429688 2.367188 -0.316406 2.328125 -0.171875 2.328125 C -0.015625 2.328125 0.101562 2.363281 0.1875 2.4375 C 0.269531 2.507812 0.359375 2.613281 0.453125 2.75 C 0.535156 2.875 0.609375 2.960938 0.671875 3.015625 C 0.742188 3.078125 0.835938 3.109375 0.953125 3.109375 C 1.285156 3.109375 1.53125 2.914062 1.6875 2.53125 C 1.851562 2.144531 1.9375 1.53125 1.9375 0.6875 L 1.9375 -7.5625 C 1.9375 -7.832031 1.90625 -8.03125 1.84375 -8.15625 C 1.78125 -8.289062 1.65625 -8.382812 1.46875 -8.4375 C 1.28125 -8.488281 0.984375 -8.515625 0.578125 -8.515625 C 0.566406 -8.515625 0.5625 -8.539062 0.5625 -8.59375 C 0.5625 -8.65625 0.566406 -8.6875 0.578125 -8.6875 L 1.390625 -8.671875 C 1.816406 -8.648438 2.148438 -8.640625 2.390625 -8.640625 C 2.628906 -8.640625 2.925781 -8.648438 3.28125 -8.671875 Z M 3.890625 -8.6875 "/></g></g></g><g fill="#122620" fill-opacity="1"><g transform="translate(235.737233, 77.578545)"><g><path d="M 6.625 -0.171875 C 6.65625 -0.171875 6.671875 -0.140625 6.671875 -0.078125 C 6.671875 -0.0234375 6.65625 0 6.625 0 C 6.414062 0 6.242188 -0.00390625 6.109375 -0.015625 L 5.359375 -0.03125 L 4.609375 -0.015625 C 4.484375 -0.00390625 4.3125 0 4.09375 0 C 4.070312 0 4.0625 -0.0234375 4.0625 -0.078125 C 4.0625 -0.140625 4.070312 -0.171875 4.09375 -0.171875 C 4.34375 -0.171875 4.523438 -0.191406 4.640625 -0.234375 C 4.765625 -0.285156 4.847656 -0.378906 4.890625 -0.515625 C 4.941406 -0.648438 4.96875 -0.851562 4.96875 -1.125 L 4.96875 -3.328125 C 4.96875 -3.878906 4.863281 -4.285156 4.65625 -4.546875 C 4.445312 -4.804688 4.125 -4.9375 3.6875 -4.9375 C 3.40625 -4.9375 3.113281 -4.859375 2.8125 -4.703125 C 2.519531 -4.554688 2.253906 -4.347656 2.015625 -4.078125 L 2.015625 -1.125 C 2.015625 -0.851562 2.035156 -0.648438 2.078125 -0.515625 C 2.128906 -0.378906 2.210938 -0.285156 2.328125 -0.234375 C 2.453125 -0.191406 2.640625 -0.171875 2.890625 -0.171875 C 2.921875 -0.171875 2.9375 -0.140625 2.9375 -0.078125 C 2.9375 -0.0234375 2.921875 0 2.890625 0 C 2.671875 0 2.5 -0.00390625 2.375 -0.015625 L 1.625 -0.03125 L 0.875 -0.015625 C 0.75 -0.00390625 0.578125 0 0.359375 0 C 0.328125 0 0.3125 -0.0234375 0.3125 -0.078125 C 0.3125 -0.140625 0.328125 -0.171875 0.359375 -0.171875 C 0.609375 -0.171875 0.789062 -0.191406 0.90625 -0.234375 C 1.03125 -0.285156 1.113281 -0.378906 1.15625 -0.515625 C 1.207031 -0.648438 1.234375 -0.851562 1.234375 -1.125 L 1.234375 -8.3125 C 1.234375 -8.644531 1.203125 -8.882812 1.140625 -9.03125 C 1.078125 -9.175781 0.960938 -9.25 0.796875 -9.25 C 0.648438 -9.25 0.4375 -9.1875 0.15625 -9.0625 L 0.125 -9.0625 C 0.09375 -9.0625 0.0664062 -9.082031 0.046875 -9.125 C 0.0351562 -9.175781 0.046875 -9.203125 0.078125 -9.203125 L 1.84375 -10.078125 L 1.890625 -10.078125 C 1.921875 -10.078125 1.945312 -10.0625 1.96875 -10.03125 C 2 -10.007812 2.015625 -9.984375 2.015625 -9.953125 L 2.015625 -4.3125 C 2.367188 -4.726562 2.71875 -5.03125 3.0625 -5.21875 C 3.40625 -5.40625 3.769531 -5.5 4.15625 -5.5 C 4.664062 -5.5 5.054688 -5.351562 5.328125 -5.0625 C 5.609375 -4.78125 5.75 -4.363281 5.75 -3.8125 L 5.75 -1.125 C 5.75 -0.851562 5.769531 -0.648438 5.8125 -0.515625 C 5.863281 -0.378906 5.945312 -0.285156 6.0625 -0.234375 C 6.1875 -0.191406 6.375 -0.171875 6.625 -0.171875 Z M 6.625 -0.171875 "/></g></g></g><g fill="#122620" fill-opacity="1"><g transform="translate(242.670935, 77.578545)"><g><path d="M 4.984375 -0.78125 C 5.015625 -0.78125 5.039062 -0.765625 5.0625 -0.734375 C 5.082031 -0.703125 5.082031 -0.671875 5.0625 -0.640625 C 4.457031 -0.0976562 3.785156 0.171875 3.046875 0.171875 C 2.503906 0.171875 2.039062 0.046875 1.65625 -0.203125 C 1.28125 -0.453125 0.992188 -0.78125 0.796875 -1.1875 C 0.597656 -1.601562 0.5 -2.039062 0.5 -2.5 C 0.5 -3.039062 0.628906 -3.539062 0.890625 -4 C 1.148438 -4.457031 1.503906 -4.816406 1.953125 -5.078125 C 2.398438 -5.347656 2.894531 -5.484375 3.4375 -5.484375 C 3.945312 -5.484375 4.34375 -5.34375 4.625 -5.0625 C 4.90625 -4.789062 5.046875 -4.40625 5.046875 -3.90625 C 5.046875 -3.769531 5.03125 -3.675781 5 -3.625 C 4.976562 -3.570312 4.941406 -3.546875 4.890625 -3.546875 L 1.4375 -3.53125 C 1.425781 -3.320312 1.421875 -3.15625 1.421875 -3.03125 C 1.421875 -2.21875 1.609375 -1.5625 1.984375 -1.0625 C 2.367188 -0.5625 2.898438 -0.3125 3.578125 -0.3125 C 3.859375 -0.3125 4.097656 -0.347656 4.296875 -0.421875 C 4.492188 -0.503906 4.71875 -0.625 4.96875 -0.78125 Z M 2.96875 -5.203125 C 2.570312 -5.203125 2.242188 -5.070312 1.984375 -4.8125 C 1.722656 -4.550781 1.550781 -4.179688 1.46875 -3.703125 L 4.109375 -3.765625 C 4.109375 -4.234375 4.003906 -4.585938 3.796875 -4.828125 C 3.597656 -5.078125 3.320312 -5.203125 2.96875 -5.203125 Z M 2.96875 -5.203125 "/></g></g></g><g fill="#122620" fill-opacity="1"><g transform="translate(248.340181, 77.578545)"><g><path d="M 6.875 -0.171875 C 6.90625 -0.171875 6.921875 -0.140625 6.921875 -0.078125 C 6.921875 -0.0234375 6.90625 0 6.875 0 C 6.664062 0 6.5 -0.00390625 6.375 -0.015625 L 5.625 -0.03125 L 4.859375 -0.015625 C 4.742188 -0.00390625 4.578125 0 4.359375 0 C 4.328125 0 4.3125 -0.0234375 4.3125 -0.078125 C 4.3125 -0.140625 4.328125 -0.171875 4.359375 -0.171875 C 4.609375 -0.171875 4.789062 -0.191406 4.90625 -0.234375 C 5.03125 -0.285156 5.113281 -0.375 5.15625 -0.5 C 5.195312 -0.632812 5.21875 -0.84375 5.21875 -1.125 L 5.21875 -3.375 C 5.21875 -3.914062 5.113281 -4.316406 4.90625 -4.578125 C 4.695312 -4.835938 4.375 -4.96875 3.9375 -4.96875 C 3.65625 -4.96875 3.367188 -4.890625 3.078125 -4.734375 C 2.785156 -4.585938 2.519531 -4.378906 2.28125 -4.109375 L 2.28125 -1.125 C 2.28125 -0.84375 2.300781 -0.632812 2.34375 -0.5 C 2.382812 -0.375 2.460938 -0.285156 2.578125 -0.234375 C 2.703125 -0.191406 2.890625 -0.171875 3.140625 -0.171875 C 3.171875 -0.171875 3.1875 -0.140625 3.1875 -0.078125 C 3.1875 -0.0234375 3.171875 0 3.140625 0 C 2.921875 0 2.753906 -0.00390625 2.640625 -0.015625 L 1.890625 -0.03125 L 1.125 -0.015625 C 1 -0.00390625 0.832031 0 0.625 0 C 0.59375 0 0.578125 -0.0234375 0.578125 -0.078125 C 0.578125 -0.140625 0.59375 -0.171875 0.625 -0.171875 C 0.875 -0.171875 1.054688 -0.191406 1.171875 -0.234375 C 1.296875 -0.285156 1.378906 -0.375 1.421875 -0.5 C 1.460938 -0.632812 1.484375 -0.84375 1.484375 -1.125 L 1.484375 -3.875 C 1.484375 -4.1875 1.445312 -4.410156 1.375 -4.546875 C 1.300781 -4.691406 1.175781 -4.765625 1 -4.765625 C 0.851562 -4.765625 0.601562 -4.695312 0.25 -4.5625 L 0.21875 -4.5625 C 0.1875 -4.5625 0.160156 -4.582031 0.140625 -4.625 C 0.128906 -4.664062 0.144531 -4.691406 0.1875 -4.703125 L 1.796875 -5.46875 L 1.875 -5.484375 C 1.957031 -5.484375 2.046875 -5.375 2.140625 -5.15625 C 2.234375 -4.945312 2.28125 -4.675781 2.28125 -4.34375 C 2.632812 -4.75 2.984375 -5.050781 3.328125 -5.25 C 3.671875 -5.445312 4.03125 -5.546875 4.40625 -5.546875 C 4.925781 -5.546875 5.320312 -5.398438 5.59375 -5.109375 C 5.875 -4.828125 6.015625 -4.40625 6.015625 -3.84375 L 6.015625 -1.125 C 6.015625 -0.84375 6.035156 -0.632812 6.078125 -0.5 C 6.117188 -0.375 6.195312 -0.285156 6.3125 -0.234375 C 6.4375 -0.191406 6.625 -0.171875 6.875 -0.171875 Z M 6.875 -0.171875 "/></g></g></g><g fill="#122620" fill-opacity="1"><g transform="translate(255.524004, 77.578545)"><g/></g></g><g fill="#122620" fill-opacity="1"><g transform="translate(258.775479, 77.578545)"><g><path d="M 5.703125 -8.828125 C 6.285156 -8.828125 6.773438 -8.785156 7.171875 -8.703125 C 7.578125 -8.617188 7.976562 -8.476562 8.375 -8.28125 C 8.4375 -8.238281 8.472656 -8.203125 8.484375 -8.171875 C 8.492188 -8.148438 8.507812 -8.082031 8.53125 -7.96875 L 8.703125 -6.3125 C 8.703125 -6.289062 8.675781 -6.273438 8.625 -6.265625 C 8.570312 -6.265625 8.539062 -6.28125 8.53125 -6.3125 C 8.101562 -7.851562 7.148438 -8.625 5.671875 -8.625 C 4.890625 -8.625 4.203125 -8.453125 3.609375 -8.109375 C 3.015625 -7.765625 2.554688 -7.273438 2.234375 -6.640625 C 1.910156 -6.003906 1.75 -5.269531 1.75 -4.4375 C 1.75 -3.625 1.925781 -2.878906 2.28125 -2.203125 C 2.632812 -1.535156 3.113281 -1.007812 3.71875 -0.625 C 4.332031 -0.238281 4.992188 -0.046875 5.703125 -0.046875 C 6.460938 -0.046875 7.078125 -0.226562 7.546875 -0.59375 C 8.023438 -0.96875 8.390625 -1.535156 8.640625 -2.296875 C 8.640625 -2.304688 8.660156 -2.3125 8.703125 -2.3125 C 8.773438 -2.3125 8.8125 -2.300781 8.8125 -2.28125 L 8.671875 -0.75 C 8.660156 -0.632812 8.644531 -0.5625 8.625 -0.53125 C 8.601562 -0.507812 8.566406 -0.476562 8.515625 -0.4375 C 8.035156 -0.207031 7.582031 -0.046875 7.15625 0.046875 C 6.738281 0.140625 6.253906 0.1875 5.703125 0.1875 C 4.734375 0.1875 3.863281 -0.00390625 3.09375 -0.390625 C 2.332031 -0.773438 1.738281 -1.316406 1.3125 -2.015625 C 0.894531 -2.710938 0.6875 -3.507812 0.6875 -4.40625 C 0.6875 -5.269531 0.898438 -6.035156 1.328125 -6.703125 C 1.765625 -7.378906 2.363281 -7.898438 3.125 -8.265625 C 3.894531 -8.640625 4.753906 -8.828125 5.703125 -8.828125 Z M 5.703125 -8.828125 "/></g></g></g><g fill="#122620" fill-opacity="1"><g transform="translate(268.307596, 77.578545)"><g><path d="M 4.984375 -0.78125 C 5.015625 -0.78125 5.039062 -0.765625 5.0625 -0.734375 C 5.082031 -0.703125 5.082031 -0.671875 5.0625 -0.640625 C 4.457031 -0.0976562 3.785156 0.171875 3.046875 0.171875 C 2.503906 0.171875 2.039062 0.046875 1.65625 -0.203125 C 1.28125 -0.453125 0.992188 -0.78125 0.796875 -1.1875 C 0.597656 -1.601562 0.5 -2.039062 0.5 -2.5 C 0.5 -3.039062 0.628906 -3.539062 0.890625 -4 C 1.148438 -4.457031 1.503906 -4.816406 1.953125 -5.078125 C 2.398438 -5.347656 2.894531 -5.484375 3.4375 -5.484375 C 3.945312 -5.484375 4.34375 -5.34375 4.625 -5.0625 C 4.90625 -4.789062 5.046875 -4.40625 5.046875 -3.90625 C 5.046875 -3.769531 5.03125 -3.675781 5 -3.625 C 4.976562 -3.570312 4.941406 -3.546875 4.890625 -3.546875 L 1.4375 -3.53125 C 1.425781 -3.320312 1.421875 -3.15625 1.421875 -3.03125 C 1.421875 -2.21875 1.609375 -1.5625 1.984375 -1.0625 C 2.367188 -0.5625 2.898438 -0.3125 3.578125 -0.3125 C 3.859375 -0.3125 4.097656 -0.347656 4.296875 -0.421875 C 4.492188 -0.503906 4.71875 -0.625 4.96875 -0.78125 Z M 2.96875 -5.203125 C 2.570312 -5.203125 2.242188 -5.070312 1.984375 -4.8125 C 1.722656 -4.550781 1.550781 -4.179688 1.46875 -3.703125 L 4.109375 -3.765625 C 4.109375 -4.234375 4.003906 -4.585938 3.796875 -4.828125 C 3.597656 -5.078125 3.320312 -5.203125 2.96875 -5.203125 Z M 2.96875 -5.203125 "/></g></g></g><g fill="#122620" fill-opacity="1"><g transform="translate(273.976841, 77.578545)"><g><path d="M 3.8125 -5.484375 C 4.019531 -5.484375 4.21875 -5.425781 4.40625 -5.3125 C 4.59375 -5.207031 4.6875 -5.078125 4.6875 -4.921875 C 4.6875 -4.796875 4.644531 -4.691406 4.5625 -4.609375 C 4.476562 -4.523438 4.363281 -4.484375 4.21875 -4.484375 C 4.132812 -4.484375 4.0625 -4.5 4 -4.53125 C 3.945312 -4.5625 3.878906 -4.613281 3.796875 -4.6875 C 3.710938 -4.757812 3.628906 -4.8125 3.546875 -4.84375 C 3.472656 -4.882812 3.390625 -4.90625 3.296875 -4.90625 C 3.171875 -4.90625 3.039062 -4.851562 2.90625 -4.75 C 2.769531 -4.644531 2.5625 -4.425781 2.28125 -4.09375 L 2.28125 -1.125 C 2.28125 -0.84375 2.3125 -0.632812 2.375 -0.5 C 2.445312 -0.375 2.578125 -0.285156 2.765625 -0.234375 C 2.953125 -0.191406 3.238281 -0.171875 3.625 -0.171875 C 3.664062 -0.171875 3.6875 -0.140625 3.6875 -0.078125 C 3.6875 -0.0234375 3.664062 0 3.625 0 C 3.332031 0 3.097656 -0.00390625 2.921875 -0.015625 L 1.890625 -0.03125 L 1.125 -0.015625 C 1 -0.00390625 0.832031 0 0.625 0 C 0.59375 0 0.578125 -0.0234375 0.578125 -0.078125 C 0.578125 -0.140625 0.59375 -0.171875 0.625 -0.171875 C 0.875 -0.171875 1.054688 -0.191406 1.171875 -0.234375 C 1.296875 -0.285156 1.378906 -0.375 1.421875 -0.5 C 1.460938 -0.632812 1.484375 -0.84375 1.484375 -1.125 L 1.484375 -3.875 C 1.484375 -4.1875 1.445312 -4.410156 1.375 -4.546875 C 1.300781 -4.691406 1.175781 -4.765625 1 -4.765625 C 0.851562 -4.765625 0.601562 -4.695312 0.25 -4.5625 L 0.21875 -4.5625 C 0.1875 -4.5625 0.160156 -4.582031 0.140625 -4.625 C 0.128906 -4.664062 0.144531 -4.691406 0.1875 -4.703125 L 1.796875 -5.46875 L 1.875 -5.484375 C 1.957031 -5.484375 2.046875 -5.375 2.140625 -5.15625 C 2.234375 -4.945312 2.28125 -4.675781 2.28125 -4.34375 L 2.28125 -4.328125 C 2.65625 -4.773438 2.953125 -5.078125 3.171875 -5.234375 C 3.398438 -5.398438 3.613281 -5.484375 3.8125 -5.484375 Z M 3.8125 -5.484375 "/></g></g></g><g fill="#122620" fill-opacity="1"><g transform="translate(279.034691, 77.578545)"><g><path d="M 1.90625 -7.109375 C 1.707031 -7.109375 1.554688 -7.160156 1.453125 -7.265625 C 1.347656 -7.367188 1.296875 -7.515625 1.296875 -7.703125 C 1.296875 -7.878906 1.347656 -8.019531 1.453125 -8.125 C 1.554688 -8.226562 1.707031 -8.28125 1.90625 -8.28125 C 2.09375 -8.28125 2.234375 -8.226562 2.328125 -8.125 C 2.429688 -8.019531 2.484375 -7.878906 2.484375 -7.703125 C 2.484375 -7.515625 2.429688 -7.367188 2.328125 -7.265625 C 2.234375 -7.160156 2.09375 -7.109375 1.90625 -7.109375 Z M 0.734375 0 C 0.710938 0 0.703125 -0.0234375 0.703125 -0.078125 C 0.703125 -0.140625 0.710938 -0.171875 0.734375 -0.171875 C 0.984375 -0.171875 1.171875 -0.191406 1.296875 -0.234375 C 1.421875 -0.285156 1.503906 -0.378906 1.546875 -0.515625 C 1.597656 -0.648438 1.625 -0.851562 1.625 -1.125 L 1.625 -3.71875 C 1.625 -4.050781 1.585938 -4.289062 1.515625 -4.4375 C 1.453125 -4.59375 1.335938 -4.671875 1.171875 -4.671875 C 1.003906 -4.671875 0.796875 -4.601562 0.546875 -4.46875 L 0.53125 -4.46875 C 0.488281 -4.46875 0.457031 -4.488281 0.4375 -4.53125 C 0.425781 -4.582031 0.429688 -4.617188 0.453125 -4.640625 L 2.265625 -5.46875 L 2.3125 -5.484375 C 2.332031 -5.484375 2.359375 -5.472656 2.390625 -5.453125 C 2.421875 -5.429688 2.4375 -5.40625 2.4375 -5.375 C 2.4375 -5.3125 2.429688 -5.125 2.421875 -4.8125 C 2.410156 -4.507812 2.40625 -4.148438 2.40625 -3.734375 L 2.40625 -1.125 C 2.40625 -0.84375 2.425781 -0.632812 2.46875 -0.5 C 2.519531 -0.375 2.601562 -0.285156 2.71875 -0.234375 C 2.84375 -0.191406 3.03125 -0.171875 3.28125 -0.171875 C 3.300781 -0.171875 3.3125 -0.140625 3.3125 -0.078125 C 3.3125 -0.0234375 3.300781 0 3.28125 0 C 3.0625 0 2.890625 -0.00390625 2.765625 -0.015625 L 2.015625 -0.03125 L 1.265625 -0.015625 C 1.128906 -0.00390625 0.953125 0 0.734375 0 Z M 0.734375 0 "/></g></g></g><g fill="#122620" fill-opacity="1"><g transform="translate(282.828085, 77.578545)"><g><path d="M 3.203125 0.1875 C 2.671875 0.1875 2.195312 0.0546875 1.78125 -0.203125 C 1.375 -0.472656 1.054688 -0.832031 0.828125 -1.28125 C 0.609375 -1.726562 0.5 -2.21875 0.5 -2.75 C 0.5 -3.351562 0.644531 -3.863281 0.9375 -4.28125 C 1.226562 -4.707031 1.601562 -5.023438 2.0625 -5.234375 C 2.519531 -5.441406 2.984375 -5.546875 3.453125 -5.546875 C 4.003906 -5.546875 4.484375 -5.410156 4.890625 -5.140625 C 5.296875 -4.867188 5.609375 -4.515625 5.828125 -4.078125 C 6.046875 -3.640625 6.15625 -3.175781 6.15625 -2.6875 C 6.15625 -2.101562 6.019531 -1.597656 5.75 -1.171875 C 5.476562 -0.742188 5.117188 -0.410156 4.671875 -0.171875 C 4.222656 0.0664062 3.734375 0.1875 3.203125 0.1875 Z M 3.609375 -0.078125 C 4.117188 -0.078125 4.507812 -0.257812 4.78125 -0.625 C 5.0625 -0.988281 5.203125 -1.546875 5.203125 -2.296875 C 5.203125 -2.867188 5.109375 -3.378906 4.921875 -3.828125 C 4.734375 -4.285156 4.472656 -4.640625 4.140625 -4.890625 C 3.804688 -5.148438 3.425781 -5.28125 3 -5.28125 C 2.5 -5.28125 2.113281 -5.097656 1.84375 -4.734375 C 1.570312 -4.367188 1.4375 -3.851562 1.4375 -3.1875 C 1.4375 -2.613281 1.523438 -2.09375 1.703125 -1.625 C 1.890625 -1.15625 2.148438 -0.78125 2.484375 -0.5 C 2.816406 -0.21875 3.191406 -0.078125 3.609375 -0.078125 Z M 3.609375 -0.078125 "/></g></g></g></svg>